<svg width="12" height="12" viewBox="0 0 12 12" fill="none" xmlns="http://www.w3.org/2000/svg">
<path d="M0.999939 3.5C0.999939 3.23478 1.1053 2.98043 1.29283 2.79289C1.48037 2.60536 1.73472 2.5 1.99994 2.5H9.99994C10.2652 2.5 10.5195 2.60536 10.707 2.79289C10.8946 2.98043 10.9999 3.23478 10.9999 3.5V8.5C10.9999 8.76522 10.8946 9.01957 10.707 9.20711C10.5195 9.39464 10.2652 9.5 9.99994 9.5H1.99994C1.73472 9.5 1.48037 9.39464 1.29283 9.20711C1.1053 9.01957 0.999939 8.76522 0.999939 8.5V3.5Z" stroke="#9E9E9E" stroke-width="0.75" stroke-linecap="round" stroke-linejoin="round"/>
<path d="M5.99988 7.5C6.82831 7.5 7.49988 6.82843 7.49988 6C7.49988 5.17157 6.82831 4.5 5.99988 4.5C5.17145 4.5 4.49988 5.17157 4.49988 6C4.49988 6.82843 5.17145 7.5 5.99988 7.5Z" stroke="#9E9E9E" stroke-width="0.75" stroke-linecap="round" stroke-linejoin="round"/>
<path d="M0.999939 4.5C1.53037 4.5 2.03908 4.28929 2.41415 3.91421C2.78923 3.53914 2.99994 3.03043 2.99994 2.5M8.99994 9.5C8.99994 8.96957 9.21065 8.46086 9.58573 8.08579C9.9608 7.71071 10.4695 7.5 10.9999 7.5" stroke="#9E9E9E" stroke-width="0.75" stroke-linecap="round" stroke-linejoin="round"/>
</svg>
