<svg width="16" height="16" viewBox="0 0 16 16" fill="none" xmlns="http://www.w3.org/2000/svg">
<path d="M13.5 11.5V12.5H12.5V11.5M2.5 7L3.68062 4.24531C3.87281 3.79688 4.3625 3.5 4.90969 3.5H11.0903C11.6375 3.5 12.1272 3.79688 12.3194 4.24531L13.5 7H2.5ZM2.5 7H13.5V11.5H2.5V7ZM3.5 11.5V12.5H2.5V11.5H3.5Z" stroke="#F7FDFB" stroke-width="0.666667" stroke-linecap="round" stroke-linejoin="round"/>
<path d="M4.5 9.5C4.77614 9.5 5 9.27614 5 9C5 8.72386 4.77614 8.5 4.5 8.5C4.22386 8.5 4 8.72386 4 9C4 9.27614 4.22386 9.5 4.5 9.5Z" stroke="#F7FDFB" stroke-width="0.666667" stroke-linecap="round" stroke-linejoin="round"/>
<path d="M11.5 9.5C11.7761 9.5 12 9.27614 12 9C12 8.72386 11.7761 8.5 11.5 8.5C11.2239 8.5 11 8.72386 11 9C11 9.27614 11.2239 9.5 11.5 9.5Z" stroke="#F7FDFB" stroke-width="0.666667" stroke-linecap="round" stroke-linejoin="round"/>
</svg>
