<svg width="110" height="110" viewBox="0 0 110 110" fill="none" xmlns="http://www.w3.org/2000/svg">
<path d="M76.7316 27.5854C75.6624 27.7218 69.641 33.3758 69.641 33.3758C69.641 33.3758 64.471 29.3674 63.5756 29.319C63.0278 29.2882 58.6652 33.0436 54.1684 37.0542C48.7366 31.409 41.1884 23.7464 40.4008 23.8542C39.1424 24.0148 32.7008 30.837 32.7008 30.837C32.7008 30.837 30.7208 29.1716 29.6648 29.1144C28.6462 29.0594 11.022 43.3858 3.22742 49.7768V82.9528H106.7V50.3796C99.5544 44.7586 77.605 27.4732 76.7316 27.5854Z" fill="#E0E0E0"/>
<path d="M38.9818 26.5339C38.1304 27.6339 39.8112 26.7825 40.6164 27.0311C41.4216 27.2797 37.6376 30.0209 38.3086 30.6721C38.6826 31.0351 41.1026 30.0627 40.6472 30.9471C40.502 31.2309 38.0072 33.2725 39.1732 33.4287C39.8662 33.5211 40.8166 33.1449 40.4162 34.1767C40.1521 34.8545 39.7557 35.473 39.2502 35.9961L32.6942 30.8305C32.6942 30.8305 38.8542 24.3163 40.3062 23.8697L40.4008 23.8477C40.6648 23.9379 39.831 25.4251 38.9818 26.5339Z" fill="#EBEBEB"/>
<path d="M40.9046 28.005C40.1104 28.071 38.8168 28.885 38.2646 28.3658C37.7124 27.8466 36.5046 26.9578 35.9832 27.4858C37.774 25.7258 39.7518 23.935 40.3832 23.8536C40.8034 23.7986 43.1068 25.9128 45.9844 28.7508C44.7766 28.0116 43.9494 28.9136 43.2278 29.1138C42.5062 29.314 41.701 27.939 40.9046 28.005Z" fill="#FAFAFA"/>
<path d="M30.5272 39.7929C31.526 38.5675 30.3886 38.3145 29.7 38.5675C28.71 38.9327 27.4318 39.2693 27.4582 38.8205C27.5088 37.9955 30.9782 35.1795 30.8946 34.7857C30.811 34.3919 27.8344 35.2433 27.8696 34.8011C27.9048 34.3589 31.1696 31.8927 31.0772 31.5341C30.9848 31.1755 28.644 31.7101 28.8904 31.1711C29.1104 30.6739 30.2104 29.3231 29.7858 29.1251C29.7418 29.1251 29.6978 29.1097 29.6582 29.1075C28.6462 29.0525 3.22083 49.7721 3.22083 49.7721V67.4491C3.22083 67.4491 30.0564 40.3715 30.5272 39.7929Z" fill="#EBEBEB"/>
<path d="M32.6943 30.8303L35.1341 32.7531C34.3971 32.1723 33.7283 33.1139 32.6943 33.0765C31.6603 33.0391 31.0795 32.1107 30.0873 32.4033C29.2711 32.6409 28.9521 33.0083 28.3779 33.1051C27.3263 33.2789 27.6189 32.6805 27.0227 32.5485C26.6201 32.4605 24.5653 32.7839 23.7227 33.1491C26.7169 30.8435 29.1699 29.0813 29.6627 29.1077C29.7898 29.1184 29.9153 29.1435 30.0367 29.1825C30.2831 29.2626 30.5217 29.3649 30.7495 29.4883L30.9475 29.5983C31.3841 29.8535 31.8044 30.1357 32.2059 30.4431C32.5051 30.6631 32.6987 30.8303 32.6987 30.8303H32.6943Z" fill="#FAFAFA"/>
<path d="M75.5237 29.8668C74.8021 30.8084 76.2299 30.0868 76.9141 30.2914C77.5983 30.496 74.5227 32.3638 75.0947 32.9182C75.4115 33.2262 76.9493 32.4782 76.5621 33.2372C76.1749 33.9962 73.6669 36.2446 73.6669 36.2446L69.6409 33.3846C69.6409 33.3846 75.4159 27.9902 76.6523 27.6118L76.7315 27.5942C76.9559 27.6624 76.2475 28.9252 75.5237 29.8668Z" fill="#EBEBEB"/>
<path d="M63.1773 31.38C62.9573 31.8354 64.7019 31.0742 64.7833 31.38C64.8647 31.6858 62.4337 34.2752 62.4007 34.6514C62.3677 35.0276 64.5523 33.8088 64.6271 34.1432C64.7019 34.4776 61.7495 36.8734 61.7077 37.573C61.6835 37.9558 62.7703 37.6676 63.6129 37.353C64.1981 37.133 65.1639 37.353 64.3147 38.3958C63.8175 39.0074 43.9009 50.8676 43.7337 51.29L49.6913 41.9708C49.6913 41.9708 52.4369 38.4992 55.1605 36.0792C58.6981 32.909 62.9199 29.2834 63.5799 29.3186C63.62 29.3226 63.6598 29.33 63.6987 29.3406C64.0309 29.5342 63.3599 30.962 63.1773 31.38Z" fill="#EBEBEB"/>
<path d="M63.5799 29.3186C64.1431 29.3494 66.3827 30.9334 67.9799 32.1148C67.5267 32.2094 66.7501 32.7132 66.1649 32.6912C65.2849 32.6582 64.6249 31.8112 63.9847 32.1764C63.3445 32.5416 62.6317 33.4546 61.8243 33.5932C60.5285 33.8132 60.3305 33.2544 59.6375 33.4194C59.0564 33.5414 58.4688 33.6295 57.8775 33.6834C60.5769 31.3294 63.0783 29.2922 63.5799 29.3186Z" fill="#FAFAFA"/>
<path d="M77.1606 31.1182C76.4852 31.1754 75.3852 31.8574 74.9254 31.4262C74.4656 30.995 73.8782 30.665 73.3238 30.8344C72.7694 31.0038 71.9444 31.2744 71.9444 31.2744C73.7682 29.6508 76.1112 27.6598 76.7404 27.5806C77.0902 27.5344 79.3364 29.1404 82.2074 31.3206C80.773 31.0258 80.4474 32.2842 79.5234 32.0686C78.54 31.8486 77.836 31.0632 77.1606 31.1182Z" fill="#FAFAFA"/>
<path d="M47.144 78.6085C47.1032 78.2286 46.9352 77.8736 46.6672 77.6012C46.3992 77.3288 46.047 77.155 45.6678 77.1081C45.999 76.9655 46.2624 76.7007 46.4034 76.3688C46.5443 76.0369 46.5519 75.6634 46.4246 75.3261C46.31 75.0759 46.1311 74.8606 45.9062 74.7022C45.6813 74.5437 45.4183 74.4478 45.1442 74.4241C45.538 73.6805 44.8824 72.5035 43.8946 72.7697C43.8792 71.1021 41.578 70.6665 40.8916 71.8347C40.8165 71.7281 40.7204 71.6379 40.6093 71.5696C40.4982 71.5013 40.3744 71.4563 40.2453 71.4374C40.1163 71.4184 39.9848 71.4259 39.8587 71.4595C39.7327 71.493 39.6148 71.5518 39.5122 71.6323C39.5342 70.8139 38.2802 70.7523 37.7654 71.1175C38.498 70.4421 38.8896 69.4719 38.102 68.6579C37.53 68.0705 36.716 67.7955 36.0912 68.4489C36.606 67.0145 34.7712 66.2489 33.9132 67.3489C33.0552 65.9651 30.4856 66.9771 31.183 68.6205C30.083 68.2509 28.7498 69.8305 29.8344 70.6467C29.7269 70.6312 29.6172 70.6398 29.5134 70.6719C29.4096 70.7039 29.3142 70.7587 29.2342 70.8322C29.1542 70.9057 29.0915 70.9961 29.0507 71.0968C29.0099 71.1975 28.9921 71.306 28.9984 71.4145C28.8846 71.0772 28.6436 70.7977 28.3268 70.6354C28.01 70.4731 27.6424 70.4408 27.3022 70.5455C27.4936 70.465 27.6531 70.3236 27.756 70.1433C27.8589 69.9629 27.8995 69.7537 27.8714 69.5479C27.8434 69.3422 27.7482 69.1514 27.6008 69.0053C27.4533 68.8591 27.2618 68.7656 27.0558 68.7393C28.202 66.4799 24.6556 64.3789 23.0496 65.9233C22.8296 64.1919 19.5978 64.5901 19.831 66.2313C19.6141 66.0888 19.3622 66.0088 19.1028 66.0003C18.6069 65.9772 18.1181 66.1239 17.7168 66.4161C17.6497 66.4663 17.5865 66.5215 17.5276 66.5811C17.3398 66.7553 17.2068 66.9803 17.1447 67.2287C17.0826 67.4771 17.0941 67.7383 17.1778 67.9803C15.9392 67.6327 14.9052 69.2871 15.7368 70.3519C14.9228 70.3343 14.3046 71.6719 15.0108 72.6025C14.4938 72.4661 13.4246 73.2493 13.3058 73.7927C13.1232 72.6927 11.1366 72.2527 10.7142 73.6299C9.61419 72.8313 8.15559 73.4231 8.24359 74.8553C6.79159 74.7607 6.19099 76.1753 6.33619 77.3633C4.53439 77.0575 3.47619 79.5787 4.35619 81.1165C3.28259 81.1627 2.59619 81.9965 2.40259 82.9557H45.1266C45.6458 82.9557 46.6446 82.4409 46.5192 81.1539C46.5053 80.9752 46.4428 80.8036 46.3385 80.6578C46.2342 80.512 46.0921 80.3975 45.9274 80.3267C46.2945 80.2199 46.6146 79.9919 46.8355 79.6799C47.0564 79.3679 47.1652 78.9902 47.144 78.6085Z" fill="#455A64"/>
<path d="M20.7881 69.8083C20.9767 69.6807 21.1928 69.5993 21.4188 69.5709C21.6447 69.5425 21.8742 69.5678 22.0886 69.6447C22.303 69.7217 22.4961 69.8481 22.6524 70.0138C22.8087 70.1795 22.9237 70.3797 22.9881 70.5981C23.2172 70.492 23.4699 70.4472 23.7215 70.4682C23.9732 70.4892 24.215 70.5752 24.4233 70.7179C24.6317 70.8605 24.7993 71.0549 24.9099 71.2819C25.0204 71.5089 25.07 71.7608 25.0539 72.0127C24.932 71.7515 24.7469 71.5249 24.5153 71.3533C24.2837 71.1818 24.013 71.0708 23.7276 71.0303C23.4423 70.9899 23.1513 71.0214 22.8812 71.1219C22.611 71.2223 22.3703 71.3887 22.1807 71.6057C22.1954 71.5232 22.2198 71.4428 22.2533 71.3659C22.3289 71.18 22.4428 71.0121 22.5877 70.8731C22.5564 70.8073 22.5211 70.7434 22.4821 70.6817C22.2826 70.379 21.9931 70.1465 21.6545 70.017C21.3158 69.8875 20.9451 69.8676 20.5945 69.9601C20.6538 69.9032 20.7186 69.8523 20.7881 69.8083Z" fill="#37474F"/>
<path d="M36.0802 71.2804C35.9463 71.0141 35.712 70.8118 35.429 70.7182C35.146 70.6245 34.8374 70.6471 34.571 70.781C34.4741 70.8307 34.3852 70.8944 34.307 70.9702C34.1944 70.8115 34.0425 70.6849 33.8661 70.6026C33.6898 70.5204 33.4951 70.4855 33.3012 70.5012C33.1072 70.517 32.9208 70.5829 32.76 70.6925C32.5992 70.8021 32.4697 70.9516 32.3842 71.1264C32.5658 70.9983 32.7764 70.9175 32.9971 70.8914C33.2177 70.8652 33.4414 70.8946 33.6478 70.9767C33.8543 71.0588 34.037 71.1912 34.1794 71.3618C34.3217 71.5324 34.4193 71.7358 34.4632 71.9536C34.4848 71.8923 34.4996 71.8289 34.5072 71.7644C34.5268 71.6111 34.5148 71.4553 34.472 71.3068C34.5177 71.2744 34.5655 71.245 34.615 71.2188C34.8645 71.0925 35.1473 71.0477 35.4236 71.0907C35.6999 71.1338 35.9557 71.2624 36.155 71.4586C36.1373 71.3964 36.1122 71.3366 36.0802 71.2804Z" fill="#37474F"/>
<path d="M18.9975 73.6566C18.2781 72.7194 17.0175 73.8106 17.3717 74.7566C17.2705 74.4926 16.5335 74.3914 16.2937 74.3738C15.4643 74.3144 14.5865 74.717 14.4611 75.63C14.2577 75.4715 14.02 75.3629 13.7671 75.3129C13.5142 75.2628 13.2531 75.2727 13.0047 75.3418C12.7584 75.4192 12.5431 75.5727 12.3897 75.7802C12.2363 75.9878 12.1527 76.2387 12.1511 76.4968C11.5901 76.1602 10.9059 75.9556 10.2811 76.1448C9.65627 76.334 9.16347 77.0248 9.35707 77.6452C9.09671 77.5348 8.81123 77.4972 8.53117 77.5366C8.25111 77.5759 7.98701 77.6906 7.76712 77.8685C7.54724 78.0463 7.37984 78.2806 7.28285 78.5463C7.18585 78.8119 7.16291 79.0989 7.21647 79.3766C6.93307 79.3442 6.64619 79.3892 6.38627 79.5067C6.12635 79.6242 5.9031 79.8099 5.74022 80.044C5.57734 80.2782 5.48091 80.5521 5.46116 80.8367C5.44142 81.1212 5.4991 81.4058 5.62807 81.6602C5.71387 81.8296 5.83047 82.0342 5.72267 82.1904C5.67471 82.2482 5.61462 82.2948 5.54667 82.3268C5.28564 82.483 5.06664 82.7005 4.90867 82.9604H2.42047C2.61407 81.999 3.30047 81.1674 4.37407 81.1212C3.49407 79.5812 4.54567 77.0622 6.35407 77.368C6.20887 76.18 6.80947 74.7654 8.26147 74.86C8.17347 73.4278 9.63427 72.836 10.7321 73.6346C11.1545 72.2596 13.1411 72.7018 13.3237 73.7974C13.4425 73.254 14.5117 72.4774 15.0287 72.6072C14.3225 71.6722 14.9407 70.339 15.7547 70.3566C14.9231 69.2918 15.9571 67.6374 17.1957 67.985C17.1134 67.7439 17.1026 67.4841 17.1647 67.237C17.2267 66.9899 17.359 66.766 17.5455 66.5924C17.6044 66.5328 17.6676 66.4777 17.7347 66.4274C18.1359 66.1352 18.6248 65.9886 19.1207 66.0116C18.6565 66.3152 18.1901 66.7618 18.3045 67.38C18.4079 67.9322 19.0173 68.1874 19.3825 68.5042C18.2957 68.5768 17.5741 69.4546 18.0823 70.5282C17.0329 70.3874 16.5423 71.7008 16.8041 72.3564C17.1121 72.2068 17.6445 72.2948 18.0031 72.4686C18.4805 72.693 18.6741 73.023 18.9975 73.6566Z" fill="#37474F"/>
<path d="M105.349 81.1143C106.24 79.5743 105.178 77.0553 103.369 77.3611C103.515 76.1731 102.914 74.7585 101.462 74.8531C101.55 73.4209 100.089 72.8291 98.9913 73.6277C98.5689 72.2527 96.5823 72.6949 96.3997 73.7905C96.2809 73.2471 95.2117 72.4705 94.6947 72.6003C95.4009 71.6653 94.7827 70.3321 93.9687 70.3497C94.8003 69.2849 93.7663 67.6305 92.5277 67.9781C92.61 67.737 92.6208 67.4772 92.5588 67.2301C92.4967 66.983 92.3644 66.7591 92.1779 66.5855C92.119 66.5259 92.0558 66.4707 91.9887 66.4205C91.5875 66.1283 91.0986 65.9816 90.6027 66.0047C90.3429 66.0145 90.0909 66.096 89.8745 66.2401C90.1077 64.5989 86.8737 64.2007 86.6559 65.9321C85.0499 64.3921 81.5035 66.4887 82.6497 68.7481C82.4438 68.7744 82.2522 68.8678 82.1047 69.014C81.9573 69.1602 81.8621 69.351 81.8341 69.5567C81.806 69.7625 81.8466 69.9717 81.9495 70.1521C82.0524 70.3324 82.2119 70.4738 82.4033 70.5543C82.0631 70.4496 81.6955 70.4819 81.3787 70.6442C81.0619 70.8065 80.8209 71.086 80.7071 71.4233C80.7135 71.3148 80.6956 71.2063 80.6548 71.1056C80.614 71.0049 80.5514 70.9145 80.4713 70.841C80.3913 70.7675 80.2959 70.7127 80.1921 70.6806C80.0883 70.6486 79.9787 70.64 79.8711 70.6555C80.9601 69.8393 79.6401 68.2597 78.5401 68.6403C79.2375 66.9969 76.6679 65.9849 75.8099 67.3687C74.9475 66.2687 73.1171 67.0255 73.6319 68.4687C73.0071 67.8087 72.1931 68.0903 71.6211 68.6777C70.8335 69.4917 71.2251 70.4619 71.9577 71.1373C71.4429 70.7765 70.1977 70.8337 70.2109 71.6521C70.1083 71.5716 69.9904 71.5128 69.8644 71.4792C69.7384 71.4457 69.6068 71.4382 69.4778 71.4571C69.3487 71.4761 69.2249 71.5211 69.1138 71.5894C69.0027 71.6577 68.9067 71.7479 68.8315 71.8545C68.1451 70.6863 65.8439 71.1219 65.8285 72.7895C64.8407 72.5233 64.1851 73.7003 64.5789 74.4439C64.3042 74.4675 64.0407 74.5633 63.815 74.7218C63.5893 74.8802 63.4096 75.0955 63.2941 75.3459C63.1668 75.6832 63.1744 76.0567 63.3153 76.3886C63.4563 76.7205 63.7198 76.9853 64.0509 77.1279C63.668 77.1649 63.3104 77.3354 63.0405 77.6095C62.7707 77.8837 62.6058 78.244 62.5749 78.6274C62.5439 79.0109 62.6489 79.3929 62.8712 79.7068C63.0936 80.0207 63.4193 80.2464 63.7913 80.3443C63.6269 80.4155 63.485 80.5301 63.3808 80.6759C63.2765 80.8216 63.2139 80.9929 63.1995 81.1715C63.0741 82.4607 64.0795 82.9843 64.5965 82.9733H107.303C107.109 81.9921 106.423 81.1605 105.349 81.1143Z" fill="#455A64"/>
<path d="M88.9241 69.8084C88.7646 69.7026 88.5859 69.6292 88.398 69.5925C88.2102 69.5558 88.017 69.5564 87.8295 69.5944C87.6419 69.6324 87.4637 69.707 87.3049 69.814C87.1462 69.9209 87.0101 70.058 86.9045 70.2176C86.8259 70.3343 86.7665 70.4628 86.7285 70.5982C86.4994 70.492 86.2466 70.4472 85.995 70.4682C85.7434 70.4892 85.5015 70.5753 85.2932 70.7179C85.0849 70.8606 84.9172 71.0549 84.8067 71.282C84.6961 71.509 84.6465 71.7608 84.6627 72.0128C84.7845 71.7516 84.9696 71.5249 85.2012 71.3534C85.4328 71.1818 85.7036 71.0708 85.9889 71.0304C86.2743 70.99 86.5652 71.0214 86.8354 71.1219C87.1055 71.2224 87.3463 71.3887 87.5359 71.6058C87.5211 71.5233 87.4968 71.4428 87.4633 71.366C87.3869 71.1805 87.273 71.0127 87.1289 70.8732C87.1593 70.8069 87.1946 70.7429 87.2345 70.6818C87.434 70.3804 87.723 70.1492 88.0608 70.0205C88.3986 69.8919 88.7682 69.8723 89.1177 69.9646C89.0586 69.9061 88.9937 69.8538 88.9241 69.8084Z" fill="#37474F"/>
<path d="M73.6341 71.2804C73.7681 71.0141 74.0023 70.8118 74.2853 70.7182C74.5683 70.6245 74.877 70.6471 75.1433 70.781C75.2402 70.8307 75.3292 70.8944 75.4073 70.9702C75.5199 70.8115 75.6719 70.6849 75.8482 70.6026C76.0246 70.5204 76.2192 70.4855 76.4132 70.5012C76.6071 70.517 76.7936 70.5829 76.9544 70.6925C77.1151 70.8021 77.2446 70.9516 77.3301 71.1264C77.1492 70.9964 76.9386 70.9137 76.7175 70.8857C76.4965 70.8577 76.2719 70.8855 76.0643 70.9663C75.8566 71.0472 75.6725 71.1787 75.5286 71.3488C75.3847 71.5189 75.2855 71.7222 75.2401 71.9404C75.2203 71.8788 75.2063 71.8154 75.1983 71.7512C75.1788 71.5979 75.1908 71.4421 75.2335 71.2936C75.1878 71.2612 75.14 71.2318 75.0905 71.2056C74.8411 71.0793 74.5582 71.0345 74.2819 71.0775C74.0056 71.1206 73.7498 71.2492 73.5505 71.4454C73.572 71.3874 73.6001 71.332 73.6341 71.2804Z" fill="#37474F"/>
<path d="M90.7148 73.6561C91.4342 72.7189 92.7058 73.8101 92.3406 74.7561C92.4418 74.4921 93.1788 74.3909 93.4186 74.3733C94.248 74.3139 95.1258 74.7165 95.2512 75.6295C95.4546 75.4711 95.6923 75.3624 95.9452 75.3124C96.1981 75.2623 96.4592 75.2723 96.7076 75.3413C96.9539 75.4187 97.1692 75.5722 97.3226 75.7798C97.476 75.9873 97.5596 76.2382 97.5612 76.4963C98.1222 76.1597 98.8064 75.9551 99.4312 76.1443C100.056 76.3335 100.549 77.0243 100.355 77.6447C100.616 77.5343 100.901 77.4968 101.181 77.5361C101.461 77.5754 101.725 77.6901 101.945 77.868C102.165 78.0458 102.332 78.2801 102.429 78.5458C102.526 78.8114 102.549 79.0985 102.496 79.3761C102.779 79.3437 103.066 79.3887 103.326 79.5062C103.586 79.6237 103.809 79.8094 103.972 80.0435C104.135 80.2777 104.231 80.5516 104.251 80.8362C104.271 81.1207 104.213 81.4053 104.084 81.6597C103.998 81.8291 103.882 82.0337 103.99 82.1899C104.038 82.2478 104.098 82.2943 104.166 82.3263C104.427 82.4825 104.646 82.7 104.804 82.9599H107.303C107.109 81.9985 106.423 81.167 105.349 81.1208C106.24 79.5808 105.178 77.0618 103.369 77.3675C103.514 76.1796 102.914 74.7649 101.462 74.8595C101.55 73.4273 100.089 72.8356 98.9912 73.6342C98.5688 72.2592 96.5822 72.7013 96.3996 73.7969C96.2808 73.2535 95.2116 72.4769 94.6946 72.6067C95.4008 71.6717 94.7826 70.3385 93.9686 70.3561C94.8002 69.2913 93.7662 67.6369 92.5276 67.9845C92.6099 67.7434 92.6207 67.4836 92.5586 67.2365C92.4966 66.9894 92.3643 66.7656 92.1778 66.5919C92.1189 66.5323 92.0557 66.4772 91.9886 66.4269C91.5873 66.1348 91.0985 65.9881 90.6026 66.0111C91.0668 66.3147 91.5332 66.7613 91.4188 67.3795C91.3154 67.9317 90.706 68.1869 90.3408 68.5037C91.4276 68.5763 92.1492 69.4541 91.641 70.5277C92.6904 70.3869 93.181 71.7004 92.9192 72.356C92.6112 72.2064 92.0788 72.2943 91.7202 72.4681C91.2428 72.6925 91.0382 73.0225 90.7148 73.6561Z" fill="#37474F"/>
<path d="M18.4579 70.7475C16.2315 72.3931 6.0213 72.1665 3.7179 70.7475C3.5155 69.8675 3.6189 67.8765 3.9379 65.2717L6.6769 66.7457L4.2019 63.2741C4.5627 60.7485 5.0687 57.8335 5.6605 54.8481L7.3545 55.7919L5.9047 53.6161C6.0213 53.0573 6.1357 52.4963 6.2545 51.9375L8.1883 52.8857L6.5295 50.6659C7.0223 48.4109 7.5459 46.1977 8.0695 44.1693L9.6095 44.6093C9.6095 44.6093 9.0309 43.7403 8.4193 42.8383C8.9583 40.8407 9.4995 39.0653 10.0077 37.6595C10.0868 37.4368 10.2329 37.2441 10.4259 37.1079C10.6189 36.9716 10.8494 36.8984 11.0857 36.8984C11.322 36.8984 11.5525 36.9716 11.7455 37.1079C11.9385 37.2441 12.0846 37.4368 12.1637 37.6595C12.8479 39.5493 13.5893 42.1189 14.3197 44.9987L12.9579 47.2999L14.5441 45.8985C14.8719 47.2185 15.2041 48.6155 15.5077 50.0213L13.3209 53.9329L15.9609 52.0893C16.4009 54.1551 16.8035 56.2275 17.1599 58.2141L15.0193 60.3371L17.3953 59.5759C17.4393 59.8179 17.4789 60.0555 17.5185 60.2909L15.3185 63.2455L17.7693 61.9035C18.4315 66.1297 18.7395 69.5199 18.4579 70.7475Z" fill="#1F8562"/>
<path opacity="0.2" d="M18.4579 70.7475C16.2315 72.3931 6.0213 72.1665 3.7179 70.7475C3.5155 69.8675 3.6189 67.8765 3.9379 65.2717L6.6769 66.7457L4.2019 63.2741C4.5627 60.7485 5.0687 57.8335 5.6605 54.8481L7.3545 55.7919L5.9047 53.6161C6.0213 53.0573 6.1357 52.4963 6.2545 51.9375L8.1883 52.8857L6.5295 50.6659C7.0223 48.4109 7.5459 46.1977 8.0695 44.1693L9.6095 44.6093C9.6095 44.6093 9.0309 43.7403 8.4193 42.8383C8.9583 40.8407 9.4995 39.0653 10.0077 37.6595C10.0868 37.4368 10.2329 37.2441 10.4259 37.1079C10.6189 36.9716 10.8494 36.8984 11.0857 36.8984C11.322 36.8984 11.5525 36.9716 11.7455 37.1079C11.9385 37.2441 12.0846 37.4368 12.1637 37.6595C12.8479 39.5493 13.5893 42.1189 14.3197 44.9987L12.9579 47.2999L14.5441 45.8985C14.8719 47.2185 15.2041 48.6155 15.5077 50.0213L13.3209 53.9329L15.9609 52.0893C16.4009 54.1551 16.8035 56.2275 17.1599 58.2141L15.0193 60.3371L17.3953 59.5759C17.4393 59.8179 17.4789 60.0555 17.5185 60.2909L15.3185 63.2455L17.7693 61.9035C18.4315 66.1297 18.7395 69.5199 18.4579 70.7475Z" fill="white"/>
<path d="M11.6311 61.2657L14.7397 55.4137L11.5761 59.2901L11.0899 41.1401L10.7093 52.1907L8.4961 48.9831L10.6411 54.1751L10.2561 65.3687L6.0387 61.4791L10.2011 66.9967L9.8469 82.3681C9.8469 83.0281 12.0601 83.0281 12.0601 82.3681L11.6201 61.2657H11.6311Z" fill="#F0F0F0"/>
<path d="M30.822 66.0792C28.292 67.9448 16.7046 67.6852 14.102 66.0792C13.9216 65.2938 13.9524 63.7494 14.146 61.7034L17.1556 62.8034L14.3462 59.785C14.6652 57.156 15.169 53.977 15.7916 50.6198L17.49 51.3282L16.0116 49.4516C16.0732 49.1216 16.1414 48.7916 16.2052 48.4594L20.24 50.5186L16.7508 45.76C17.2942 43.142 17.8794 40.5218 18.4822 38.06L21.12 40.26L18.8364 36.6586C19.0014 35.9986 19.1708 35.3606 19.3358 34.738L21.6612 36.003L19.7582 33.22C20.262 31.4336 20.7614 29.8386 21.2322 28.534C21.3234 28.2825 21.4899 28.0652 21.709 27.9117C21.928 27.7582 22.189 27.6758 22.4565 27.6758C22.724 27.6758 22.985 27.7582 23.2041 27.9117C23.4231 28.0652 23.5896 28.2825 23.6808 28.534C24.3892 30.492 25.1526 33.0902 25.9116 36.014C25.2516 37.554 24.728 38.7486 24.728 38.7486L26.4022 37.972C26.587 38.7156 26.7696 39.479 26.95 40.2512C26.1558 42.6866 25.1636 45.7512 25.1636 45.804C25.2142 45.7094 26.3868 43.604 27.3328 41.9232C29.6142 52.0476 31.4314 63.4128 30.822 66.0792Z" fill="#1F8562"/>
<path opacity="0.2" d="M30.822 66.0792C28.292 67.9448 16.7046 67.6852 14.102 66.0792C13.9216 65.2938 13.9524 63.7494 14.146 61.7034L17.1556 62.8034L14.3462 59.785C14.6652 57.156 15.169 53.977 15.7916 50.6198L17.49 51.3282L16.0116 49.4516C16.0732 49.1216 16.1414 48.7916 16.2052 48.4594L20.24 50.5186L16.7508 45.76C17.2942 43.142 17.8794 40.5218 18.4822 38.06L21.12 40.26L18.8364 36.6586C19.0014 35.9986 19.1708 35.3606 19.3358 34.738L21.6612 36.003L19.7582 33.22C20.262 31.4336 20.7614 29.8386 21.2322 28.534C21.3234 28.2825 21.4899 28.0652 21.709 27.9117C21.928 27.7582 22.189 27.6758 22.4565 27.6758C22.724 27.6758 22.985 27.7582 23.2041 27.9117C23.4231 28.0652 23.5896 28.2825 23.6808 28.534C24.3892 30.492 25.1526 33.0902 25.9116 36.014C25.2516 37.554 24.728 38.7486 24.728 38.7486L26.4022 37.972C26.587 38.7156 26.7696 39.479 26.95 40.2512C26.1558 42.6866 25.1636 45.7512 25.1636 45.804C25.2142 45.7094 26.3868 43.604 27.3328 41.9232C29.6142 52.0476 31.4314 63.4128 30.822 66.0792Z" fill="black"/>
<path d="M23.0712 55.3148L26.5912 48.6686L23.0008 53.0686L22.4486 32.4502L22.0086 44.9902L19.5116 41.3602L21.947 47.2562L21.507 59.9634L16.7198 55.5568L21.4476 61.8202L21.0472 82.3682C21.0472 83.1096 23.5574 83.1096 23.5574 82.3682L23.0712 55.3082V55.3148Z" fill="#F0F0F0"/>
<path d="M40.4799 67.4173C38.2799 68.7659 28.5427 68.9815 26.4153 67.4173C26.3174 66.8317 26.2886 66.2365 26.3295 65.6441L28.5999 66.6605L26.4901 63.4199C26.6221 62.0779 26.8355 60.5027 27.1039 58.7823L29.3039 59.9373L27.3635 57.1257C27.4097 56.8529 27.4581 56.5757 27.5087 56.2963L31.0881 58.3731L27.9663 53.7531C28.4481 51.2077 29.0047 48.5589 29.5877 46.0399L31.6645 47.5997L30.0079 44.2535C30.0893 43.9323 30.1685 43.6177 30.2433 43.3031L32.2937 44.9333L30.7251 41.4419C31.2971 39.2727 31.8735 37.3433 32.4103 35.8539C32.4887 35.6438 32.6294 35.4626 32.8136 35.3347C32.9978 35.2067 33.2167 35.1382 33.441 35.1382C33.6653 35.1382 33.8842 35.2067 34.0684 35.3347C34.2526 35.4626 34.3934 35.6438 34.4717 35.8539C34.9887 37.2817 35.5365 39.1121 36.0909 41.1779L35.4727 44.9333L36.6541 43.3647C37.1733 45.4591 37.6903 47.7097 38.1589 49.9647L36.6189 54.8047L38.6143 52.1647C39.0697 54.4461 39.4723 56.6901 39.7891 58.7317L38.8915 60.9317L40.0179 60.2497C40.0971 60.7909 40.1675 61.3189 40.2379 61.8183L38.2799 65.0765L40.4117 63.3539C40.6009 65.2635 40.6427 66.7089 40.4799 67.4173Z" fill="#1F8562"/>
<path opacity="0.35" d="M40.4799 67.4173C38.2799 68.7659 28.5427 68.9815 26.4153 67.4173C26.3174 66.8317 26.2886 66.2365 26.3295 65.6441L28.5999 66.6605L26.4901 63.4199C26.6221 62.0779 26.8355 60.5027 27.1039 58.7823L29.3039 59.9373L27.3635 57.1257C27.4097 56.8529 27.4581 56.5757 27.5087 56.2963L31.0881 58.3731L27.9663 53.7531C28.4481 51.2077 29.0047 48.5589 29.5877 46.0399L31.6645 47.5997L30.0079 44.2535C30.0893 43.9323 30.1685 43.6177 30.2433 43.3031L32.2937 44.9333L30.7251 41.4419C31.2971 39.2727 31.8735 37.3433 32.4103 35.8539C32.4887 35.6438 32.6294 35.4626 32.8136 35.3347C32.9978 35.2067 33.2167 35.1382 33.441 35.1382C33.6653 35.1382 33.8842 35.2067 34.0684 35.3347C34.2526 35.4626 34.3934 35.6438 34.4717 35.8539C34.9887 37.2817 35.5365 39.1121 36.0909 41.1779L35.4727 44.9333L36.6541 43.3647C37.1733 45.4591 37.6903 47.7097 38.1589 49.9647L36.6189 54.8047L38.6143 52.1647C39.0697 54.4461 39.4723 56.6901 39.7891 58.7317L38.8915 60.9317L40.0179 60.2497C40.0971 60.7909 40.1675 61.3189 40.2379 61.8183L38.2799 65.0765L40.4117 63.3539C40.6009 65.2635 40.6427 66.7089 40.4799 67.4173Z" fill="white"/>
<path d="M32.9294 58.3688L29.9638 52.783L32.98 56.4812L33.4398 39.1606L33.8006 49.7052L35.9214 46.6406L33.8798 51.6016L34.2472 62.2826L38.2732 58.5712L34.3 63.8358L34.6388 82.3686C34.6388 82.9912 32.5268 82.9912 32.5268 82.3686L32.936 58.3688H32.9294Z" fill="#F0F0F0"/>
<path d="M98.2807 66.8803C95.6121 68.7877 83.391 68.5237 80.6366 66.8803C80.487 66.2423 80.4738 65.1093 80.5816 63.6155L84.7616 65.4679L80.7752 61.6443C81.0106 59.4949 81.4022 56.8879 81.8994 54.0653L83.4218 54.8573L82.0314 53.3063C82.3196 51.7113 82.6386 50.0569 82.9818 48.3827L85.4634 50.3143L83.248 47.1023C83.3184 46.7525 83.3932 46.4027 83.468 46.0573L86.8605 48.7677L83.9873 43.6967C84.5175 41.3493 85.0873 39.0459 85.6373 36.8921L87.8526 38.5223C87.7998 38.4299 86.9154 36.9823 86.0266 35.4555C86.757 32.7671 87.4918 30.3955 88.176 28.5519C88.2796 28.2938 88.458 28.0726 88.6884 27.9168C88.9187 27.761 89.1905 27.6777 89.4685 27.6777C89.7466 27.6777 90.0184 27.761 90.2487 27.9168C90.4791 28.0726 90.6575 28.2938 90.761 28.5519C91.421 30.2987 92.1097 32.5361 92.8071 35.0661L91.4541 37.9415L93.0689 36.0297C93.5089 37.6489 93.9357 39.3671 94.3537 41.1315L91.443 47.3003L94.8707 43.3777C94.9235 43.6175 94.9828 43.8639 95.0312 44.1081L93.6387 47.3003L95.26 45.1289C95.8496 47.8217 96.3931 50.5343 96.8573 53.0951L92.84 57.7943L97.1916 54.9827C97.2906 55.5723 97.3852 56.1553 97.4776 56.7207L95.436 58.9053L97.7175 58.2717C98.3225 62.3879 98.5799 65.5999 98.2807 66.8803Z" fill="#1F8562"/>
<path opacity="0.35" d="M98.2807 66.8803C95.6121 68.7877 83.391 68.5237 80.6366 66.8803C80.487 66.2423 80.4738 65.1093 80.5816 63.6155L84.7616 65.4679L80.7752 61.6443C81.0106 59.4949 81.4022 56.8879 81.8994 54.0653L83.4218 54.8573L82.0314 53.3063C82.3196 51.7113 82.6386 50.0569 82.9818 48.3827L85.4634 50.3143L83.248 47.1023C83.3184 46.7525 83.3932 46.4027 83.468 46.0573L86.8605 48.7677L83.9873 43.6967C84.5175 41.3493 85.0873 39.0459 85.6373 36.8921L87.8526 38.5223C87.7998 38.4299 86.9154 36.9823 86.0266 35.4555C86.757 32.7671 87.4918 30.3955 88.176 28.5519C88.2796 28.2938 88.458 28.0726 88.6884 27.9168C88.9187 27.761 89.1905 27.6777 89.4685 27.6777C89.7466 27.6777 90.0184 27.761 90.2487 27.9168C90.4791 28.0726 90.6575 28.2938 90.761 28.5519C91.421 30.2987 92.1097 32.5361 92.8071 35.0661L91.4541 37.9415L93.0689 36.0297C93.5089 37.6489 93.9357 39.3671 94.3537 41.1315L91.443 47.3003L94.8707 43.3777C94.9235 43.6175 94.9828 43.8639 95.0312 44.1081L93.6387 47.3003L95.26 45.1289C95.8496 47.8217 96.3931 50.5343 96.8573 53.0951L92.84 57.7943L97.1916 54.9827C97.2906 55.5723 97.3852 56.1553 97.4776 56.7207L95.436 58.9053L97.7175 58.2717C98.3225 62.3879 98.5799 65.5999 98.2807 66.8803Z" fill="white"/>
<path d="M90.1057 56.8156L93.8259 49.8108L90.0419 54.4506L89.4567 32.7124L89.0035 45.941L86.3525 42.113L88.9221 48.328L88.4601 61.726L83.4111 57.073L88.3941 63.673L87.9717 82.373C87.9717 83.154 90.6117 83.154 90.6117 82.373L90.0991 56.82L90.1057 56.8156Z" fill="#F0F0F0"/>
<path d="M108.566 73.0798C106.02 74.6462 94.7209 74.8948 92.2547 73.0798C92.0347 72.092 92.1469 69.8788 92.4989 66.9748L95.6977 68.3388L92.7475 65.0652C93.0313 63.0742 93.3943 60.8522 93.8189 58.5334L95.7769 59.3892L93.9487 57.8492C94.0499 57.3095 94.1519 56.7668 94.2545 56.2212L97.5259 58.1066L94.5999 54.5382C94.9629 52.732 95.3501 50.917 95.7571 49.1416L97.4445 50.0502L96.0651 47.6742C96.4853 45.9472 97.2861 42.8496 97.7085 41.3294L99.4267 42.6956L97.9747 40.3922C98.4015 38.9138 98.8261 37.5872 99.2265 36.4718C99.3154 36.2266 99.4776 36.0147 99.6911 35.8649C99.9047 35.7151 100.159 35.6348 100.42 35.6348C100.681 35.6348 100.935 35.7151 101.149 35.8649C101.362 36.0147 101.525 36.2266 101.614 36.4718C102.23 38.1702 102.887 40.3658 103.541 42.8342L102.208 45.8636L103.983 44.5194C104.443 46.3432 104.898 48.2748 105.34 50.2394L103.092 55.8956L105.774 52.3096C105.93 53.062 106.088 53.8166 106.242 54.569L104.645 57.6996L106.473 55.7416C106.913 57.9724 107.305 60.1636 107.637 62.2052L103.987 67.9362L107.947 64.161C108.042 64.777 108.126 65.3754 108.203 65.9496L105.448 69.3288L108.42 67.7404C108.693 70.2704 108.77 72.18 108.566 73.0798Z" fill="#1F8562"/>
<path opacity="0.2" d="M108.566 73.0798C106.02 74.6462 94.7209 74.8948 92.2547 73.0798C92.0347 72.092 92.1469 69.8788 92.4989 66.9748L95.6977 68.3388L92.7475 65.0652C93.0313 63.0742 93.3943 60.8522 93.8189 58.5334L95.7769 59.3892L93.9487 57.8492C94.0499 57.3095 94.1519 56.7668 94.2545 56.2212L97.5259 58.1066L94.5999 54.5382C94.9629 52.732 95.3501 50.917 95.7571 49.1416L97.4445 50.0502L96.0651 47.6742C96.4853 45.9472 97.2861 42.8496 97.7085 41.3294L99.4267 42.6956L97.9747 40.3922C98.4015 38.9138 98.8261 37.5872 99.2265 36.4718C99.3154 36.2266 99.4776 36.0147 99.6911 35.8649C99.9047 35.7151 100.159 35.6348 100.42 35.6348C100.681 35.6348 100.935 35.7151 101.149 35.8649C101.362 36.0147 101.525 36.2266 101.614 36.4718C102.23 38.1702 102.887 40.3658 103.541 42.8342L102.208 45.8636L103.983 44.5194C104.443 46.3432 104.898 48.2748 105.34 50.2394L103.092 55.8956L105.774 52.3096C105.93 53.062 106.088 53.8166 106.242 54.569L104.645 57.6996L106.473 55.7416C106.913 57.9724 107.305 60.1636 107.637 62.2052L103.987 67.9362L107.947 64.161C108.042 64.777 108.126 65.3754 108.203 65.9496L105.448 69.3288L108.42 67.7404C108.693 70.2704 108.77 72.18 108.566 73.0798Z" fill="white"/>
<path d="M104.647 59.1027L101.222 63.9427L100.863 53.4839L102.711 47.2293L100.795 51.4995L100.41 40.2949L99.9701 56.4649L98.0473 54.1681L99.9129 58.5857L99.6665 67.7641L95.6911 63.8041L99.5939 70.4459L99.3299 82.3545C99.3299 83.0761 101.779 83.0761 101.779 82.3545L101.323 67.0579L104.647 59.1027Z" fill="#F0F0F0"/>
<path d="M83.3557 69.5051C81.2195 70.8251 71.7287 71.0319 69.6563 69.5051C69.5001 68.8121 69.5419 67.3976 69.7333 65.521L71.8585 65.9258L69.8785 64.2142C69.9709 63.486 70.0765 62.7071 70.1975 61.8931L74.1399 63.4662L70.3889 60.6876C70.7871 58.184 71.3063 55.3965 71.8893 52.6157L74.9341 55.0511L72.1599 51.2869C72.3997 50.1759 72.6505 49.0715 72.9035 47.9869L75.3785 49.5269L73.1983 46.7461C73.4359 45.7825 73.6735 44.8497 73.9111 43.9587L75.3785 45.5647L74.4061 42.1679C74.7779 40.8743 75.1431 39.7127 75.4929 38.7469C75.5666 38.5398 75.7026 38.3606 75.8822 38.2338C76.0618 38.1071 76.2763 38.0391 76.4961 38.0391C76.7159 38.0391 76.9304 38.1071 77.11 38.2338C77.2896 38.3606 77.4256 38.5398 77.4993 38.7469C78.0823 40.3595 78.7137 42.5001 79.3363 44.9069L78.2253 47.2917L79.6839 46.2819C80.1481 48.1585 80.6035 50.1517 81.0281 52.1603L78.7929 56.7803L81.3999 53.9599C81.5957 54.9258 81.7827 55.8849 81.9543 56.8199L80.5199 59.0001L82.1875 58.0255C82.5461 60.0518 82.8475 61.968 83.0675 63.651L80.7399 67.3337L83.3227 65.9433C83.4789 67.6087 83.5009 68.8605 83.3557 69.5051Z" fill="#1F8562"/>
<path opacity="0.2" d="M83.3557 69.5051C81.2195 70.8251 71.7287 71.0319 69.6563 69.5051C69.5001 68.8121 69.5419 67.3976 69.7333 65.521L71.8585 65.9258L69.8785 64.2142C69.9709 63.486 70.0765 62.7071 70.1975 61.8931L74.1399 63.4662L70.3889 60.6876C70.7871 58.184 71.3063 55.3965 71.8893 52.6157L74.9341 55.0511L72.1599 51.2869C72.3997 50.1759 72.6505 49.0715 72.9035 47.9869L75.3785 49.5269L73.1983 46.7461C73.4359 45.7825 73.6735 44.8497 73.9111 43.9587L75.3785 45.5647L74.4061 42.1679C74.7779 40.8743 75.1431 39.7127 75.4929 38.7469C75.5666 38.5398 75.7026 38.3606 75.8822 38.2338C76.0618 38.1071 76.2763 38.0391 76.4961 38.0391C76.7159 38.0391 76.9304 38.1071 77.11 38.2338C77.2896 38.3606 77.4256 38.5398 77.4993 38.7469C78.0823 40.3595 78.7137 42.5001 79.3363 44.9069L78.2253 47.2917L79.6839 46.2819C80.1481 48.1585 80.6035 50.1517 81.0281 52.1603L78.7929 56.7803L81.3999 53.9599C81.5957 54.9258 81.7827 55.8849 81.9543 56.8199L80.5199 59.0001L82.1875 58.0255C82.5461 60.0518 82.8475 61.968 83.0675 63.651L80.7399 67.3337L83.3227 65.9433C83.4789 67.6087 83.5009 68.8605 83.3557 69.5051Z" fill="black"/>
<path d="M76.0033 60.6942L73.1147 55.2536L76.0539 58.8572L76.5071 41.9766L76.8591 52.2484L78.9161 49.2806L76.9229 54.1074L77.2815 64.5112L81.2019 60.8966L77.3321 66.0248L77.6599 82.3686C77.6599 82.9758 75.6029 82.9758 75.6029 82.3686L76.0011 60.6942H76.0033Z" fill="#F0F0F0"/>
<path d="M107.303 82.9532C106.423 83.9285 105.492 84.8775 104.511 85.8C104.104 86.1806 103.686 86.559 103.259 86.9286C91.96 96.8 74.5514 103.136 55.011 103.136C35.9392 103.136 18.8892 97.1058 7.58338 87.6326C7.14338 87.2674 6.71585 86.8963 6.30078 86.5194C4.92893 85.2932 3.63294 83.9848 2.41998 82.6012C2.81158 82.4406 3.21418 82.2822 3.61678 82.126C10.5424 79.4464 18.5306 77.4268 27.0578 76.0694C28.6623 75.8127 30.2837 75.5803 31.922 75.372C48.103 73.3106 65.802 73.535 81.642 76.043C83.4636 76.3363 85.2573 76.6546 87.0232 76.9978C93.5902 78.2914 99.7502 80.003 105.241 82.1282C105.951 82.3995 106.638 82.6745 107.303 82.9532Z" fill="#1F8562"/>
<path opacity="0.4" d="M107.303 82.9532C106.423 83.9285 105.492 84.8775 104.511 85.8C104.104 86.1806 103.686 86.559 103.259 86.9286C91.96 96.8 74.5514 103.136 55.011 103.136C35.9392 103.136 18.8892 97.1058 7.58338 87.6326C7.14338 87.2674 6.71585 86.8963 6.30078 86.5194C4.92893 85.2932 3.63294 83.9848 2.41998 82.6012C2.81158 82.4406 3.21418 82.2822 3.61678 82.126C10.5424 79.4464 18.5306 77.4268 27.0578 76.0694C28.6623 75.8127 30.2837 75.5803 31.922 75.372C48.103 73.3106 65.802 73.535 81.642 76.043C83.4636 76.3363 85.2573 76.6546 87.0232 76.9978C93.5902 78.2914 99.7502 80.003 105.241 82.1282C105.951 82.3995 106.638 82.6745 107.303 82.9532Z" fill="white"/>
<path d="M21.5928 92.7564L21.9338 92.6904L22.0372 92.6684L22.1406 92.6464L22.4156 92.5914L22.4596 92.5804C22.5234 92.2218 22.5784 91.8764 22.6224 91.5376C23.2824 86.801 22.552 84.0246 22.4024 83.5604C22.4011 83.5465 22.4011 83.5325 22.4024 83.5186C22.4024 83.5186 22.4024 83.5186 22.4024 83.5054C22.4024 83.4922 22.4024 83.4944 22.4024 83.4878C22.6576 85.4832 22.4882 87.692 22.2264 89.4938C22.1516 90.0306 22.068 90.5278 21.9822 90.9766C21.9514 91.146 21.9228 91.3022 21.892 91.4562C21.8414 91.7092 21.7886 91.9402 21.7446 92.1426C21.6808 92.4 21.6324 92.598 21.5928 92.7564Z" fill="#1F8562"/>
<path opacity="0.15" d="M21.5928 92.7564L21.9338 92.6904L22.0372 92.6684L22.1406 92.6464L22.4156 92.5914L22.4596 92.5804C22.5234 92.2218 22.5784 91.8764 22.6224 91.5376C23.2824 86.801 22.552 84.0246 22.4024 83.5604C22.4011 83.5465 22.4011 83.5325 22.4024 83.5186C22.4024 83.5186 22.4024 83.5186 22.4024 83.5054C22.4024 83.4922 22.4024 83.4944 22.4024 83.4878C22.6576 85.4832 22.4882 87.692 22.2264 89.4938C22.1516 90.0306 22.068 90.5278 21.9822 90.9766C21.9514 91.146 21.9228 91.3022 21.892 91.4562C21.8414 91.7092 21.7886 91.9402 21.7446 92.1426C21.6808 92.4 21.6324 92.598 21.5928 92.7564Z" fill="black"/>
<path opacity="0.15" d="M22.3916 83.4834C22.3916 83.5076 22.4065 83.5317 22.4129 83.5559C22.398 83.5075 22.3916 83.4834 22.3916 83.4834Z" fill="black"/>
<path opacity="0.15" d="M22.0373 92.6685L22.1407 92.6465L22.4157 92.5915L22.4597 92.5805C22.5235 92.2219 22.5785 91.8765 22.6225 91.5377C23.2825 86.8011 22.5521 84.0247 22.4025 83.5605C22.7985 85.1005 22.7193 88.0551 22.4179 90.4355C22.3475 91.0119 22.2595 91.5553 22.1649 92.0371C22.1473 92.1317 22.1275 92.2153 22.1055 92.3033C22.0945 92.4309 22.0637 92.5541 22.0373 92.6685Z" fill="black"/>
<path d="M17.1599 80.8081C17.2655 80.9071 18.9199 82.5175 20.1299 85.8329C20.6458 87.3215 21.0143 88.8571 21.2299 90.4177C21.2761 90.7367 21.3135 91.0359 21.3487 91.3087C21.4235 91.9511 21.4609 92.4659 21.4763 92.7805L21.5929 92.7563L21.9339 92.6903L22.0373 92.6683L22.1407 92.6463L22.4157 92.5913L22.4597 92.5803L22.7413 92.5231C22.7413 92.5231 22.7413 92.4021 22.7083 92.1777C22.7083 92.1403 22.7083 92.0963 22.6951 92.0523C22.6951 91.9643 22.6709 91.8653 22.6577 91.7575C22.6577 91.6893 22.6357 91.6145 22.6225 91.5375C22.6225 91.4627 22.5983 91.3813 22.5851 91.2977C22.5719 91.2141 22.5587 91.1239 22.5411 91.0315C22.5081 90.8489 22.4707 90.6487 22.4289 90.4353C22.3695 90.1471 22.3013 89.8325 22.2089 89.4959C22.1759 89.3595 22.1407 89.2209 22.1011 89.0757C22.0615 88.9305 22.0395 88.8337 22.0021 88.7127C21.9112 88.3812 21.8063 88.0366 21.6875 87.6787C21.6523 87.5687 21.6149 87.4587 21.5797 87.3553C21.3927 86.8163 21.1793 86.2553 20.9197 85.6745C20.6194 84.9724 20.2618 84.2962 19.8505 83.6527L19.7735 83.5317C19.7687 83.5229 19.7628 83.5148 19.7559 83.5075C19.6877 83.4019 19.6195 83.3051 19.5535 83.2083L19.5381 83.1885C19.4875 83.1137 19.4369 83.0433 19.3819 82.9685C19.3269 82.8937 19.2983 82.8541 19.2543 82.7991C19.064 82.5418 18.8599 82.295 18.6427 82.0599C18.5745 81.9851 18.5107 81.9169 18.4447 81.8531C18.2388 81.6359 18.0183 81.4331 17.7847 81.2459C17.7539 81.2173 17.7209 81.1953 17.6901 81.1711C17.5339 81.0457 17.4041 80.9511 17.3161 80.8983L17.2611 80.8653C17.2334 80.8446 17.2039 80.8262 17.1731 80.8103L17.1599 80.8081Z" fill="#1F8562"/>
<path opacity="0.2" d="M17.1599 80.8081C17.2655 80.9071 18.9199 82.5175 20.1299 85.8329C20.6458 87.3215 21.0143 88.8571 21.2299 90.4177C21.2761 90.7367 21.3135 91.0359 21.3487 91.3087C21.4235 91.9511 21.4609 92.4659 21.4763 92.7805L21.5929 92.7563L21.9339 92.6903L22.0373 92.6683L22.1407 92.6463L22.4157 92.5913L22.4597 92.5803L22.7413 92.5231C22.7413 92.5231 22.7413 92.4021 22.7083 92.1777C22.7083 92.1403 22.7083 92.0963 22.6951 92.0523C22.6951 91.9643 22.6709 91.8653 22.6577 91.7575C22.6577 91.6893 22.6357 91.6145 22.6225 91.5375C22.6225 91.4627 22.5983 91.3813 22.5851 91.2977C22.5719 91.2141 22.5587 91.1239 22.5411 91.0315C22.5081 90.8489 22.4707 90.6487 22.4289 90.4353C22.3695 90.1471 22.3013 89.8325 22.2089 89.4959C22.1759 89.3595 22.1407 89.2209 22.1011 89.0757C22.0615 88.9305 22.0395 88.8337 22.0021 88.7127C21.9112 88.3812 21.8063 88.0366 21.6875 87.6787C21.6523 87.5687 21.6149 87.4587 21.5797 87.3553C21.3927 86.8163 21.1793 86.2553 20.9197 85.6745C20.6194 84.9724 20.2618 84.2962 19.8505 83.6527L19.7735 83.5317C19.7687 83.5229 19.7628 83.5148 19.7559 83.5075C19.6877 83.4019 19.6195 83.3051 19.5535 83.2083L19.5381 83.1885C19.4875 83.1137 19.4369 83.0433 19.3819 82.9685C19.3269 82.8937 19.2983 82.8541 19.2543 82.7991C19.064 82.5418 18.8599 82.295 18.6427 82.0599C18.5745 81.9851 18.5107 81.9169 18.4447 81.8531C18.2388 81.6359 18.0183 81.4331 17.7847 81.2459C17.7539 81.2173 17.7209 81.1953 17.6901 81.1711C17.5339 81.0457 17.4041 80.9511 17.3161 80.8983L17.2611 80.8653C17.2334 80.8446 17.2039 80.8262 17.1731 80.8103L17.1599 80.8081Z" fill="black"/>
<path opacity="0.1" d="M17.1599 80.8081C19.0189 82.1897 21.2827 86.1365 21.9647 90.9743C22.0065 91.2559 22.0439 91.5419 22.0703 91.8301C22.0879 91.9863 22.1011 92.1403 22.1099 92.2965C22.1099 92.4087 22.1275 92.5165 22.1341 92.6375L22.4091 92.5825L22.4531 92.5715L22.7347 92.5143C22.7347 92.5143 22.7347 92.3933 22.7017 92.1689C22.7017 92.1315 22.7017 92.0875 22.6885 92.0435C22.6885 91.9555 22.6643 91.8565 22.6511 91.7487C22.6511 91.6805 22.6291 91.6057 22.6159 91.5287C22.6159 91.4539 22.5917 91.3725 22.5785 91.2889C22.5653 91.2053 22.5521 91.1151 22.5345 91.0227C22.5015 90.8401 22.4641 90.6399 22.4223 90.4265C22.3629 90.1383 22.2947 89.8237 22.2023 89.4871C22.1693 89.3507 22.1341 89.2121 22.0945 89.0669C22.0549 88.9217 22.0329 88.8249 21.9955 88.7039C21.9046 88.3724 21.7997 88.0278 21.6809 87.6699C21.6457 87.5599 21.6083 87.4499 21.5731 87.3465C21.3861 86.8075 21.1727 86.2465 20.9131 85.6657C20.6128 84.9636 20.2552 84.2874 19.8439 83.6439L19.7669 83.5229C19.7621 83.5141 19.7562 83.506 19.7493 83.4987C19.6811 83.3931 19.6129 83.2963 19.5469 83.1995L19.5315 83.1797C19.4809 83.1049 19.4303 83.0345 19.3753 82.9597C19.3203 82.8849 19.2917 82.8453 19.2477 82.7903C19.0593 82.5361 18.8574 82.2923 18.6427 82.0599C18.5745 81.9851 18.5107 81.9169 18.4447 81.8531C18.2388 81.6359 18.0183 81.4331 17.7847 81.2459C17.7539 81.2173 17.7209 81.1953 17.6901 81.1711C17.5339 81.0457 17.4041 80.9511 17.3161 80.8983L17.2611 80.8653C17.2292 80.8431 17.1954 80.824 17.1599 80.8081Z" fill="black"/>
<path d="M17.3228 87.0361C20.3302 89.3703 21.2014 91.8915 21.4258 92.7935L21.4764 92.7803L21.593 92.7561L21.934 92.6901L22.0374 92.6681L22.1408 92.6461L22.4158 92.5911C22.341 92.3975 22.2596 92.2105 22.176 92.0323C22.1465 91.9639 22.1135 91.8971 22.077 91.8321C22.0154 91.7023 21.9516 91.5769 21.8812 91.4559C21.6834 91.0962 21.463 90.7493 21.2212 90.4175C21.142 90.3119 21.0672 90.1975 20.9858 90.1051C20.9044 90.0127 20.8274 89.9049 20.746 89.8081C20.6646 89.7113 20.6404 89.6783 20.5876 89.6167C20.4248 89.4319 20.2576 89.2537 20.0948 89.0909C19.987 88.9831 19.8748 88.8709 19.7692 88.7763C19.712 88.7213 19.6548 88.6685 19.5954 88.6201C19.536 88.5717 19.5118 88.5431 19.47 88.5079C19.2852 88.3451 19.1048 88.1977 18.931 88.0679C18.8891 88.0321 18.845 87.9991 18.799 87.9689C18.4646 87.7172 18.1165 87.4844 17.7562 87.2715C17.6902 87.2341 17.633 87.1989 17.5802 87.1725C17.4746 87.1109 17.3932 87.0713 17.3448 87.0471H17.3272L17.3228 87.0361Z" fill="#1F8562"/>
<path opacity="0.1" d="M17.3206 87.0342C18.7242 87.9802 20.3412 89.408 21.34 91.3C21.4834 91.5707 21.6119 91.8491 21.725 92.1338C21.8008 92.3129 21.8677 92.4957 21.9252 92.6816L22.0286 92.6596L22.132 92.6376L22.407 92.5826C22.3322 92.389 22.2508 92.202 22.1672 92.0238C22.1377 91.9554 22.1047 91.8885 22.0682 91.8236C22.0066 91.6938 21.9428 91.5684 21.8724 91.4474C21.6746 91.0876 21.4542 90.7408 21.2124 90.409C21.1332 90.3034 21.0584 90.189 20.977 90.0966C20.8956 90.0042 20.8186 89.8964 20.7372 89.7996C20.6558 89.7028 20.6316 89.6698 20.5788 89.6082C20.416 89.4234 20.2488 89.2452 20.086 89.0824C19.9782 88.9746 19.866 88.8624 19.7604 88.7678C19.7032 88.7128 19.646 88.66 19.5866 88.6116C19.5272 88.5632 19.503 88.5346 19.4612 88.4994C19.2764 88.3366 19.096 88.1892 18.9222 88.0594C18.8803 88.0236 18.8362 87.9905 18.7902 87.9604C18.4559 87.7087 18.1077 87.4758 17.7474 87.263C17.6814 87.2256 17.6242 87.1904 17.5714 87.164C17.4658 87.1024 17.3844 87.0628 17.336 87.0386H17.3184H17.3052L17.3206 87.0342Z" fill="black"/>
<path d="M23.8833 87.3003C23.5687 89.7533 24.3937 92.8003 24.3937 92.8003L23.8525 92.5341C23.2629 89.1505 23.8833 87.3003 23.8833 87.3003Z" fill="#1F8562"/>
<path opacity="0.15" d="M23.8833 87.3003C23.5687 89.7533 24.3937 92.8003 24.3937 92.8003L23.8525 92.5341C23.2629 89.1505 23.8833 87.3003 23.8833 87.3003Z" fill="black"/>
<path opacity="0.15" d="M24.112 92.6199V92.6463L23.8458 92.5165C23.2562 89.1417 23.8766 87.2915 23.8766 87.2915C23.551 88.4993 23.76 91.3263 24.112 92.6199Z" fill="black"/>
<path d="M24.3936 92.7912C24.4607 91.377 24.7213 89.9788 25.168 88.6354C25.8698 86.6884 26.8576 85.7754 26.8576 85.7754C26.8576 85.7754 25.6212 86.4354 24.7126 88.5408C24.1694 89.7798 23.822 91.0957 23.683 92.4414L24.3936 92.7912Z" fill="#1F8562"/>
<path opacity="0.2" d="M24.3936 92.7912C24.4607 91.377 24.7213 89.9788 25.168 88.6354C25.8698 86.6884 26.8576 85.7754 26.8576 85.7754C26.8576 85.7754 25.6212 86.4354 24.7126 88.5408C24.1694 89.7798 23.822 91.0957 23.683 92.4414L24.3936 92.7912Z" fill="black"/>
<path opacity="0.1" d="M24.0196 92.6064L23.683 92.4414C23.822 91.0957 24.1694 89.7798 24.7126 88.5408C25.6212 86.4398 26.8576 85.7754 26.8576 85.7754C25.6674 86.6554 24.1846 89.3856 24.0196 92.6064Z" fill="black"/>
<path d="M24.3937 92.7909C24.3937 92.7909 24.6401 90.9627 26.7807 89.3193C25.4535 90.0084 24.4153 91.148 23.8525 92.5335L24.3937 92.7909Z" fill="#1F8562"/>
<path opacity="0.1" d="M24.1122 92.6193V92.6391L23.8592 92.5159C24.4238 91.1381 25.4591 90.0053 26.7808 89.3193C25.7798 89.9793 24.5764 91.0793 24.1122 92.6193Z" fill="black"/>
<path d="M86.4159 86.6011C86.1013 89.0541 86.9263 92.1011 86.9263 92.1011L86.3851 91.8349C85.7999 88.4513 86.4159 86.6011 86.4159 86.6011Z" fill="#1F8562"/>
<path opacity="0.15" d="M86.4159 86.6011C86.1013 89.0541 86.9263 92.1011 86.9263 92.1011L86.3851 91.8349C85.7999 88.4513 86.4159 86.6011 86.4159 86.6011Z" fill="black"/>
<path opacity="0.15" d="M86.6448 91.9317C86.6448 91.9317 86.6448 91.9471 86.6448 91.9581L86.3786 91.8261C85.789 88.4513 86.4094 86.6011 86.4094 86.6011C86.0838 87.8023 86.295 90.6403 86.6448 91.9317Z" fill="black"/>
<path d="M86.9242 92.092C86.9928 90.6778 87.2541 89.2797 87.7008 87.9362C88.4026 85.9914 89.3904 85.0762 89.3904 85.0762C89.3904 85.0762 88.154 85.7362 87.2454 87.8416C86.7024 89.0799 86.355 90.395 86.2158 91.74L86.9242 92.092Z" fill="#1F8562"/>
<path opacity="0.2" d="M86.9242 92.092C86.9928 90.6778 87.2541 89.2797 87.7008 87.9362C88.4026 85.9914 89.3904 85.0762 89.3904 85.0762C89.3904 85.0762 88.154 85.7362 87.2454 87.8416C86.7024 89.0799 86.355 90.395 86.2158 91.74L86.9242 92.092Z" fill="black"/>
<path opacity="0.1" d="M86.5524 91.9094L86.2158 91.7422C86.3548 90.3965 86.7022 89.0806 87.2454 87.8416C88.154 85.7406 89.3904 85.0762 89.3904 85.0762C88.2002 85.9584 86.7174 88.6864 86.5524 91.9094Z" fill="black"/>
<path d="M86.9242 92.092C86.9242 92.092 87.1706 90.2638 89.3134 88.6138C87.9859 89.3015 86.9476 90.4405 86.3852 91.8258L86.9242 92.092Z" fill="#1F8562"/>
<path opacity="0.1" d="M86.6447 91.9314V91.9512L86.3917 91.8258C86.954 90.4405 87.9924 89.3015 89.3199 88.6138C88.3123 89.2826 87.1199 90.3892 86.6447 91.9314Z" fill="black"/>
<path d="M85.1884 17.7826C87.4374 17.7826 89.2606 15.9594 89.2606 13.7104C89.2606 11.4614 87.4374 9.63818 85.1884 9.63818C82.9393 9.63818 81.1161 11.4614 81.1161 13.7104C81.1161 15.9594 82.9393 17.7826 85.1884 17.7826Z" fill="#F0997A"/>
<path d="M18.6383 16.8439C18.6383 15.9375 17.6439 15.3039 16.5197 15.2027C15.1997 15.0773 14.2559 15.6691 14.2229 16.7119C13.3561 16.3555 12.4431 16.5843 12.5113 17.5369C12.2913 17.2773 11.4443 17.2839 11.1407 17.3565C10.9761 17.403 10.8236 17.4845 10.6933 17.5954C10.5631 17.7062 10.4583 17.8439 10.3861 17.9989C10.3148 18.1488 10.2873 18.3158 10.3069 18.4807C9.80308 18.3157 8.65468 18.2145 8.36648 18.6765C7.85608 19.5015 9.90648 19.5279 10.3091 19.2793C10.3971 19.9195 12.5927 20.0251 13.1251 19.4333C13.5409 19.8513 14.1371 19.9437 14.7795 19.9833C15.8663 20.0471 16.5395 19.6797 17.3799 19.2463C18.3017 20.0273 19.8945 20.0427 20.7261 19.1473C20.9461 19.3475 21.5203 19.4091 21.9889 19.2991C22.2947 19.2243 22.3651 19.0945 22.3651 19.0945C22.5464 19.1724 22.7362 19.2292 22.9305 19.2639C23.5311 19.3893 24.6531 19.2639 24.1823 18.7139C24.0217 18.5291 23.4365 18.4125 23.1879 18.4697C22.9239 17.9527 21.8679 17.4621 21.2651 17.8999C21.2409 17.2751 20.6689 16.7845 19.8637 16.6591C19.5931 16.6239 18.9463 16.5887 18.6383 16.8439Z" fill="#E0E0E0"/>
<path d="M40.9749 12.8902C40.7545 12.8083 40.5215 12.7651 40.2863 12.7626C40.0663 12.745 39.9937 12.701 39.9497 12.6526C39.736 12.3438 39.4229 12.1176 39.0627 12.0115C38.7024 11.9054 38.3167 11.9259 37.9697 12.0696C37.8744 11.7682 37.6693 11.5136 37.395 11.3563C37.1208 11.199 36.7975 11.1505 36.4891 11.2204C36.5133 10.5252 35.6267 9.77942 34.8303 9.61002C34.0691 9.44942 33.4025 9.51762 32.9669 10.0192C32.5005 9.10842 30.6745 8.85102 29.6845 9.33282C29.1169 9.61002 28.6351 9.89382 28.3975 10.4152C28.2409 10.7375 28.1654 11.0933 28.1775 11.4514C27.7925 11.1126 27.0203 11.0114 26.5055 11.2182C25.9511 11.4382 25.9093 11.8518 25.8807 12.2786C25.5519 12.1822 25.2033 12.1753 24.8709 12.2588C24.5211 12.3622 24.3209 12.6372 24.3671 12.8594C24.0921 12.844 23.4321 13.0684 23.5091 13.3588C23.5927 13.6866 24.3451 13.6536 24.6267 13.6448C24.8921 13.623 25.1554 13.5811 25.4143 13.5194C25.545 13.5698 25.6835 13.5966 25.8235 13.5986C26.3031 13.5986 26.5055 13.3786 26.5825 13.2114C26.8157 13.7042 27.6473 14.0782 28.2369 14.23C29.3369 14.5116 30.9121 14.34 31.5941 13.5106C31.6745 13.6666 31.787 13.8038 31.9241 13.9132C32.2169 14.1508 32.5738 14.2955 32.9493 14.329C33.4047 14.3708 34.6257 14.4302 34.9689 13.7064C35.2131 14.1882 36.2999 14.406 37.1271 14.2894C37.4493 14.244 37.7634 14.1528 38.0599 14.0188C38.2429 13.9219 38.4206 13.8155 38.5923 13.6998C38.6579 13.6539 38.7348 13.6268 38.8147 13.6214C38.8945 13.616 38.9743 13.6324 39.0455 13.669C39.6293 13.8747 40.2658 13.8747 40.8495 13.669C41.3115 13.4732 41.4083 13.086 40.9749 12.8902Z" fill="#E0E0E0"/>
</svg>
