<svg width="280" height="268" viewBox="0 0 280 268" fill="none" xmlns="http://www.w3.org/2000/svg">
<path d="M139.469 255.818C207.57 255.818 262.777 223.89 262.777 184.504C262.777 145.118 207.57 113.189 139.469 113.189C71.3675 113.189 16.1606 145.118 16.1606 184.504C16.1606 223.89 71.3675 255.818 139.469 255.818Z" fill="#F5F5F5"/>
<path d="M182.841 264.04L277.383 209.364C279.455 208.167 279.455 206.227 277.383 205.029L103.599 104.962C102.436 104.372 101.151 104.064 99.8472 104.064C98.5438 104.064 97.2587 104.372 96.096 104.962L1.55384 159.607C-0.517947 160.835 -0.517947 162.75 1.55384 163.948L175.345 264.028C176.506 264.62 177.789 264.929 179.092 264.931C180.394 264.933 181.679 264.628 182.841 264.04Z" fill="#E0E0E0"/>
<path d="M254.324 268C253.925 267.992 253.534 267.886 253.187 267.689C252.839 267.493 252.545 267.214 252.332 266.877L236.689 244.89C236.405 244.546 236.225 244.128 236.171 243.685C236.116 243.242 236.19 242.793 236.383 242.391C236.573 242.034 236.86 241.737 237.209 241.534C237.559 241.331 237.959 241.23 238.363 241.243C238.604 241.245 238.845 241.274 239.08 241.329L278.113 250.624C279.988 251.073 280.025 252.399 279.995 252.792C279.964 253.185 279.7 254.486 277.776 254.634L258.492 255.862L256.555 265.949C256.493 266.504 256.232 267.017 255.82 267.393C255.409 267.769 254.875 267.983 254.318 267.994L254.324 268Z" fill="#E0E0E0"/>
<path d="M182.283 48.7878C182.261 48.6099 182.193 48.4409 182.086 48.2976C181.978 48.1543 181.835 48.0418 181.671 47.9712C181.219 47.741 180.719 47.621 180.212 47.621C179.705 47.621 179.205 47.741 178.753 47.9712C178.589 48.0433 178.447 48.1563 178.34 48.2993C178.232 48.4423 178.164 48.6105 178.14 48.7878V143.446H182.265V48.7878H182.283Z" fill="#37474F"/>
<path d="M182.284 48.7878C182.284 48.1738 181.364 47.6212 180.224 47.6212C179.084 47.6212 178.165 48.1431 178.165 48.7878C178.165 49.4325 179.084 49.9605 180.224 49.9605C181.364 49.9605 182.284 49.4325 182.284 48.7878Z" fill="#455A64"/>
<path d="M192.066 69.553L165.158 53.9823L161.112 56.3216L165.158 63.3395L192.066 78.9163V69.553Z" fill="#1F8562"/>
<g opacity="0.4">
<path opacity="0.4" d="M192.066 69.553L165.158 53.9823L161.112 56.3216L165.158 63.3395L192.066 78.9163V69.553Z" fill="black"/>
</g>
<path d="M165.157 53.9823L167.18 52.8096L194.126 68.4049L192.066 69.5531L165.157 53.9823Z" fill="#1F8562"/>
<g opacity="0.3">
<path opacity="0.3" d="M165.157 53.9823L167.18 52.8096L194.126 68.4049L192.066 69.5531L165.157 53.9823Z" fill="black"/>
</g>
<path d="M194.126 77.768L192.066 78.9162V69.5529L194.126 68.4047V77.768Z" fill="#1F8562"/>
<path opacity="0.55" d="M194.126 77.768L192.066 78.9162V69.5529L194.126 68.4047V77.768Z" fill="black"/>
<path d="M180.681 66.6576V64.9159L181.086 65.1525V65.4564L181.101 65.4656C181.129 65.3735 181.175 65.3188 181.239 65.3014C181.304 65.2833 181.378 65.2989 181.462 65.3482C181.483 65.3604 181.506 65.3751 181.53 65.3922C181.554 65.4094 181.575 65.426 181.593 65.442V65.8706C181.574 65.8523 181.547 65.8304 181.512 65.8049C181.478 65.7794 181.446 65.7582 181.417 65.7414C181.356 65.7055 181.301 65.6889 181.253 65.6916C181.205 65.694 181.167 65.7141 181.139 65.7521C181.112 65.7905 181.098 65.8452 181.098 65.9163V66.9017L180.681 66.6576ZM182.424 67.712C182.269 67.6215 182.136 67.5073 182.025 67.3694C181.914 67.2311 181.828 67.0775 181.768 66.9085C181.708 66.7388 181.678 66.5621 181.678 66.3784C181.678 66.1993 181.708 66.0596 181.768 65.9594C181.828 65.8592 181.913 65.8033 182.022 65.7915C182.131 65.78 182.26 65.8175 182.407 65.9038C182.506 65.9619 182.599 66.0345 182.684 66.1216C182.77 66.2083 182.845 66.307 182.909 66.4178C182.974 66.5289 183.024 66.6506 183.06 66.7827C183.096 66.9141 183.114 67.0539 183.114 67.202V67.3347L181.845 66.5915V66.2921L182.721 66.8056C182.721 66.736 182.708 66.6668 182.682 66.5978C182.656 66.5289 182.62 66.4657 182.574 66.4083C182.528 66.3506 182.475 66.304 182.414 66.2684C182.351 66.2314 182.295 66.2155 182.246 66.2209C182.198 66.2259 182.16 66.2487 182.132 66.2894C182.105 66.3293 182.091 66.3834 182.09 66.4518V66.7365C182.09 66.8226 182.104 66.9051 182.131 66.9839C182.159 67.0631 182.199 67.1346 182.25 67.1984C182.301 67.2622 182.361 67.3146 182.431 67.3554C182.477 67.3826 182.52 67.3998 182.558 67.4072C182.597 67.4147 182.629 67.4113 182.657 67.3971C182.684 67.3829 182.705 67.3581 182.719 67.3226L183.105 67.5779C183.085 67.6738 183.045 67.744 182.985 67.7886C182.925 67.8328 182.847 67.8494 182.752 67.8382C182.657 67.8267 182.548 67.7846 182.424 67.712ZM184.071 68.6764C183.916 68.5859 183.783 68.4716 183.672 68.3338C183.561 68.1955 183.475 68.0419 183.415 67.8729C183.355 67.7032 183.325 67.5265 183.325 67.3428C183.325 67.1636 183.355 67.024 183.415 66.9238C183.475 66.8236 183.56 66.7676 183.669 66.7558C183.778 66.7444 183.907 66.7819 184.054 66.8682C184.153 66.9263 184.246 66.9989 184.331 67.0859C184.417 67.1727 184.492 67.2714 184.556 67.3822C184.621 67.4933 184.671 67.615 184.707 67.7471C184.743 67.8785 184.761 68.0183 184.761 68.1664V68.2991L183.492 67.5559V67.2565L184.368 67.7699C184.368 67.7004 184.355 67.6311 184.329 67.5622C184.303 67.4932 184.267 67.4301 184.221 67.3727C184.175 67.315 184.122 67.2684 184.061 67.2328C183.998 67.1958 183.942 67.1799 183.893 67.1853C183.844 67.1903 183.807 67.2131 183.779 67.2538C183.752 67.2937 183.738 67.3478 183.737 67.4162V67.7008C183.737 67.787 183.751 67.8695 183.778 67.9483C183.806 68.0275 183.846 68.099 183.897 68.1628C183.948 68.2266 184.008 68.2789 184.078 68.3198C184.124 68.3469 184.166 68.3642 184.205 68.3716C184.243 68.3791 184.276 68.3757 184.304 68.3615C184.331 68.3473 184.352 68.3225 184.366 68.287L184.752 68.5423C184.732 68.6382 184.692 68.7084 184.631 68.753C184.571 68.7972 184.494 68.8138 184.399 68.8026C184.304 68.791 184.195 68.749 184.071 68.6764ZM185.832 67.9321V68.2949L184.927 67.7649V67.402L185.832 67.9321ZM185.132 67.1051L185.549 67.3492V68.973C185.549 69.0176 185.555 69.0558 185.567 69.0876C185.579 69.1187 185.595 69.1453 185.616 69.1673C185.637 69.1897 185.662 69.2092 185.69 69.2256C185.71 69.2371 185.729 69.2466 185.749 69.2543C185.769 69.2612 185.784 69.2666 185.794 69.2705L185.86 69.6683C185.839 69.6637 185.809 69.6552 185.771 69.6428C185.734 69.6313 185.688 69.6107 185.633 69.5813C185.533 69.527 185.445 69.4599 185.369 69.3801C185.294 69.3006 185.236 69.2113 185.194 69.112C185.152 69.0127 185.132 68.9062 185.132 68.7924V67.1051Z" fill="white"/>
<path d="M258.719 190.324L255.427 187.482C255.427 187.482 255.556 177.314 258.523 169.136C262.703 157.636 271.56 155.118 274.263 156.856C276.966 158.594 276.966 162.253 270.347 168.08C266.436 171.53 260.76 179.297 258.719 190.324Z" fill="#1F8562"/>
<g opacity="0.15">
<path opacity="0.15" d="M258.719 190.324L255.427 187.482C255.427 187.482 255.556 177.314 258.523 169.136C262.703 157.636 271.56 155.118 274.263 156.856C276.966 158.594 276.966 162.253 270.347 168.08C266.436 171.53 260.76 179.297 258.719 190.324Z" fill="black"/>
</g>
<path d="M258.296 185.333H258.333C258.368 185.334 258.403 185.329 258.437 185.317C258.47 185.305 258.501 185.286 258.527 185.262C258.553 185.239 258.574 185.21 258.589 185.177C258.604 185.145 258.613 185.11 258.615 185.075C259.228 173.673 266.068 162.357 272.026 158.44C272.056 158.421 272.081 158.397 272.101 158.368C272.121 158.34 272.136 158.307 272.143 158.273C272.15 158.238 272.151 158.203 272.145 158.168C272.138 158.134 272.125 158.101 272.106 158.072C272.066 158.013 272.005 157.971 271.935 157.956C271.865 157.942 271.792 157.954 271.732 157.992C265.657 161.989 258.713 173.471 258.075 185.044C258.07 185.111 258.089 185.178 258.13 185.231C258.171 185.285 258.23 185.321 258.296 185.333Z" fill="white"/>
<path d="M268.422 198.288C268.943 198.736 270.298 198.233 270.819 198.012C271.718 197.629 272.502 197.017 273.093 196.237C273.762 195.351 274.139 194.278 274.171 193.167C274.19 192.581 274.165 191.994 274.098 191.411L273.951 189.692C273.863 189.13 273.89 188.555 274.03 188.004C274.386 186.923 275.526 186.334 276.55 185.836C277.69 185.284 278.91 184.504 279.167 183.165C279.302 182.114 279.086 181.048 278.554 180.132C278.07 179.193 277.451 178.327 277.04 177.363C276.697 176.678 276.602 175.895 276.77 175.147C276.918 174.693 277.158 174.275 277.475 173.919C278.18 173.194 278.826 172.414 279.406 171.586C279.677 171.165 279.825 170.677 279.834 170.177C279.842 169.677 279.711 169.185 279.455 168.755C279.177 168.447 278.84 168.199 278.464 168.024C278.088 167.848 277.681 167.751 277.267 167.736C276.489 167.679 275.709 167.794 274.981 168.074C272.627 168.841 270.923 171.143 268.495 171.592C267.547 171.698 266.593 171.743 265.639 171.727C265.161 171.724 264.687 171.821 264.248 172.011C263.809 172.201 263.415 172.481 263.089 172.832C261.943 174.324 263.089 176.663 262.157 178.309C261.336 179.764 259.706 180.065 258.596 181.299C258.13 181.85 257.853 182.537 257.806 183.257C257.648 184.46 257.712 185.682 257.996 186.862C258.334 188.047 258.762 189.204 259.277 190.324C259.326 190.367 268.348 198.226 268.422 198.288Z" fill="#1F8562"/>
<path d="M263.034 193.928C263.069 193.935 263.105 193.934 263.14 193.926C263.174 193.918 263.207 193.904 263.236 193.883C263.265 193.863 263.29 193.836 263.309 193.806C263.328 193.776 263.341 193.743 263.347 193.707C264.953 183.104 272.155 172.463 276.409 169.793C276.467 169.754 276.508 169.694 276.524 169.625C276.54 169.557 276.53 169.485 276.495 169.424C276.476 169.394 276.451 169.367 276.422 169.347C276.393 169.326 276.36 169.311 276.326 169.303C276.291 169.295 276.255 169.294 276.22 169.3C276.184 169.306 276.151 169.319 276.121 169.338C271.781 172.058 264.444 182.877 262.813 193.621C262.803 193.691 262.82 193.763 262.861 193.82C262.902 193.877 262.964 193.916 263.034 193.928Z" fill="white"/>
<path d="M267.024 181.784H267.104C269.723 181.582 272.355 181.667 274.956 182.036C275.027 182.046 275.1 182.028 275.159 181.986C275.217 181.943 275.256 181.88 275.269 181.808C275.275 181.773 275.273 181.737 275.265 181.702C275.257 181.668 275.242 181.635 275.221 181.606C275.199 181.578 275.173 181.553 275.142 181.535C275.111 181.517 275.077 181.506 275.042 181.501C272.393 181.126 269.71 181.039 267.043 181.243C266.979 181.253 266.921 181.285 266.879 181.334C266.837 181.383 266.813 181.446 266.813 181.511C266.813 181.575 266.837 181.638 266.879 181.687C266.921 181.736 266.979 181.768 267.043 181.778L267.024 181.784Z" fill="white"/>
<path d="M86.8526 67.0235L83.7878 68.7979C83.7967 68.663 83.7967 68.5276 83.7878 68.3927V67.5024C83.7878 65.9183 82.6784 65.2798 81.336 66.0718C80.748 66.4333 80.2443 66.917 79.8588 67.4901C79.6381 65.5008 78.0751 64.7579 76.1811 65.8569C75.1068 66.5636 74.214 67.5139 73.5751 68.6308C72.9361 69.7477 72.5689 70.9997 72.5033 72.2854V73.587C72.4916 74.1177 72.5984 74.6442 72.8159 75.1281L70.2722 76.6017C69.8741 76.8645 69.5427 77.2166 69.3044 77.6302C69.066 78.0437 68.9273 78.5073 68.8992 78.984C68.8992 79.862 69.5121 80.212 70.2722 79.7822L86.8771 70.1794C87.2752 69.9166 87.6066 69.5645 87.8449 69.1509C88.0833 68.7374 88.222 68.2738 88.2501 67.7971C88.2134 66.9437 87.6004 66.5876 86.8526 67.0235Z" fill="#EBEBEB"/>
<path d="M99.5836 74.9312L97.3341 76.2329C97.3399 76.1327 97.3399 76.0322 97.3341 75.932V75.2812C97.3341 74.1208 96.5189 73.648 95.4952 74.2313C95.0642 74.4966 94.696 74.8528 94.4164 75.2751C94.2509 73.8138 93.1108 73.2735 91.7194 74.0471C90.9287 74.564 90.2707 75.2603 89.7989 76.0796C89.3271 76.8989 89.0548 77.8181 89.004 78.7625V79.7387C88.9932 80.1277 89.0707 80.514 89.2308 80.8685L87.392 81.9491C87.0985 82.1392 86.8544 82.3965 86.6796 82.6996C86.5048 83.0028 86.4045 83.3432 86.3867 83.6928C86.3867 84.3375 86.8342 84.5954 87.392 84.2761L99.5836 77.2705C99.8771 77.0804 100.121 76.8231 100.296 76.52C100.471 76.2168 100.571 75.8764 100.589 75.5268C100.589 74.8698 100.141 74.6119 99.5836 74.9312Z" fill="#EBEBEB"/>
<path d="M269.084 192.615C270.389 193.628 270.248 195.071 268.667 195.973L182.124 246.025C181.148 246.519 180.07 246.776 178.976 246.776C177.883 246.776 176.805 246.519 175.829 246.025L10.4415 150.372C8.83561 149.445 8.70689 147.99 10.0676 146.983C9.25856 147.596 8.59226 148.379 8.11493 149.276C7.63759 150.173 7.36063 151.163 7.30322 152.177V156.346C7.35973 157.442 7.67475 158.508 8.22242 159.458C8.77008 160.408 9.5348 161.214 10.4538 161.811L175.817 257.476C176.793 257.973 177.872 258.232 178.967 258.232C180.062 258.232 181.142 257.973 182.118 257.476L268.661 207.436C269.578 206.839 270.34 206.034 270.887 205.085C271.433 204.136 271.748 203.072 271.805 201.978V197.803C271.75 196.793 271.478 195.807 271.008 194.912C270.539 194.017 269.882 193.233 269.084 192.615Z" fill="#455A64"/>
<path d="M268.667 192.338L103.274 96.6852C102.297 96.1933 101.219 95.9371 100.126 95.9371C99.033 95.9371 97.9551 96.1933 96.9785 96.6852L10.4416 146.738C8.70079 147.738 8.70079 149.372 10.4416 150.372L175.829 246.026C176.805 246.519 177.883 246.776 178.977 246.776C180.07 246.776 181.148 246.519 182.124 246.026L268.667 195.973C270.402 194.972 270.402 193.315 268.667 192.338Z" fill="#37474F"/>
<path d="M10.0676 146.983C9.25856 147.596 8.59226 148.379 8.11493 149.276C7.63759 150.173 7.36063 151.163 7.30322 152.177V156.346C7.36071 157.442 7.67614 158.508 8.22372 159.457C8.7713 160.407 9.53548 161.214 10.4538 161.811L175.817 257.476C176.788 257.993 177.874 258.253 178.973 258.232V246.775C177.877 246.796 176.793 246.538 175.823 246.025L10.4415 150.372C8.83561 149.445 8.70689 147.99 10.0676 146.983Z" fill="#263238"/>
<path d="M52.7476 130.455C53.6302 129.945 53.6302 129.116 52.7476 128.613C52.2525 128.358 51.7041 128.226 51.1477 128.226C50.5914 128.226 50.043 128.358 49.5479 128.613C48.6592 129.122 48.6592 129.951 49.5479 130.455C50.0439 130.706 50.5919 130.837 51.1477 130.837C51.7036 130.837 52.2516 130.706 52.7476 130.455Z" fill="black"/>
<path d="M57.0751 127.655L69.4261 120.514C70.1678 120.091 70.2046 119.415 69.5119 119.016C69.1069 118.821 68.662 118.724 68.2128 118.733C67.7636 118.741 67.3226 118.855 66.9253 119.065L54.5742 126.212C53.8387 126.636 53.8019 127.305 54.4884 127.704C54.893 127.9 55.3382 127.998 55.7876 127.99C56.2371 127.981 56.6782 127.866 57.0751 127.655Z" fill="black"/>
<path d="M108.876 104.36C107.392 103.5 105.811 103.998 104.352 104.863L23.4422 151.613C21.9527 152.472 21.9466 153.866 23.4422 154.732L170.239 239.646C171.076 240.07 172.001 240.291 172.939 240.291C173.877 240.291 174.802 240.07 175.639 239.646L256.549 192.891C258.044 192.031 258.038 190.631 256.549 189.772L108.876 104.36Z" fill="#1F8562"/>
<path opacity="0.96" d="M108.876 104.36C107.392 103.5 105.811 103.998 104.352 104.863L23.4422 151.613C21.9527 152.472 21.9466 153.866 23.4422 154.732L170.239 239.646C171.076 240.07 172.001 240.291 172.939 240.291C173.877 240.291 174.802 240.07 175.639 239.646L256.549 192.891C258.044 192.031 258.038 190.631 256.549 189.772L108.876 104.36Z" fill="white"/>
<g opacity="0.4">
<path opacity="0.4" d="M172.96 238.271L203.449 220.649L198.33 219.169C190.312 216.853 181.91 216.18 173.627 217.192C165.343 218.204 157.349 220.879 150.122 225.058L172.96 238.271Z" fill="#1F8562"/>
<path opacity="0.4" d="M208.689 217.61L254.214 191.282L223.744 173.667L205.766 216.769L208.689 217.61Z" fill="#1F8562"/>
<path opacity="0.4" d="M218.668 170.726L200.893 215.357C190.387 212.017 180.959 211.507 170.165 213.367L187.328 171.039L212.263 167.023L218.668 170.726Z" fill="#1F8562"/>
<path opacity="0.4" d="M162.301 215.08L168.529 199.731L120.148 193.984L112.026 203.034L145.739 222.534C150.908 219.33 156.477 216.824 162.301 215.08Z" fill="#1F8562"/>
<path opacity="0.4" d="M193.372 156.113L208.512 164.85L188.523 168.086L193.372 156.113Z" fill="#1F8562"/>
<path opacity="0.4" d="M96.7883 163.56C99.7639 163.56 102.176 162.167 102.176 160.447C102.176 158.728 99.7639 157.335 96.7883 157.335C93.8126 157.335 91.4004 158.728 91.4004 160.447C91.4004 162.167 93.8126 163.56 96.7883 163.56Z" fill="#1F8562"/>
<path opacity="0.4" d="M179.819 171.34L104.984 162.456C104.193 164.261 102.844 164.666 99.7 165.354L120.577 189.299L170.349 195.157L179.819 171.34Z" fill="#1F8562"/>
<path opacity="0.4" d="M144.262 148.72L138.745 162.075L104.763 158.035C103.945 157.193 102.948 156.549 101.845 156.15L106.51 144.238L144.262 148.72Z" fill="#1F8562"/>
<path opacity="0.4" d="M187.567 152.742L181.726 167.177L144.458 162.75L150.312 148.315L187.567 152.742Z" fill="#1F8562"/>
<path opacity="0.4" d="M180.579 148.696L118.849 112.999L108.159 140.094L180.579 148.696Z" fill="#1F8562"/>
<path opacity="0.4" d="M92.2711 164.93L115.067 191.043L106.945 200.068L62.8799 174.588L90.0522 163.904C90.7487 164.333 91.4935 164.677 92.2711 164.93Z" fill="#1F8562"/>
<path opacity="0.4" d="M103.139 139.498L114.564 110.518L106.945 106.116L58.4114 134.181L103.139 139.498Z" fill="#1F8562"/>
<path opacity="0.4" d="M51.9141 137.871L25.6919 153.104L58.6995 172.193L87.8148 160.699C87.7536 159.3 88.4278 157.955 90.5609 156.702C92.3139 155.689 94.5022 155.309 96.9234 155.253L101.465 143.643L51.9141 137.871Z" fill="#1F8562"/>
</g>
<path d="M110.702 138.51V129.417L124.721 131.081V140.168L110.702 138.51Z" fill="#1F8562"/>
<path d="M124.721 131.081L127.608 122.982V133.009L124.721 140.168V131.081Z" fill="#1F8562"/>
<path d="M127.608 122.982L113.89 121.325L110.702 129.417L124.721 131.081L127.608 122.982Z" fill="#1F8562"/>
<path opacity="0.8" d="M110.702 138.51V129.417L124.721 131.081V140.168L110.702 138.51Z" fill="white"/>
<path opacity="0.75" d="M124.721 131.081L127.608 122.982V133.009L124.721 140.168V131.081Z" fill="white"/>
<path opacity="0.9" d="M127.608 122.982L113.89 121.325L110.702 129.417L124.721 131.081L127.608 122.982Z" fill="white"/>
<path d="M119.891 157.924V153.854L133.915 155.511V159.588L119.891 157.924Z" fill="#1F8562"/>
<path d="M133.915 155.511L136.416 148.493V153.504L133.915 159.588V155.511Z" fill="#1F8562"/>
<path d="M136.416 148.493L122.692 146.836L119.891 153.853L133.915 155.511L136.416 148.493Z" fill="#1F8562"/>
<path opacity="0.8" d="M119.891 157.924V153.854L133.915 155.511V159.588L119.891 157.924Z" fill="white"/>
<path opacity="0.75" d="M133.915 155.511L136.416 148.493V153.504L133.915 159.588V155.511Z" fill="white"/>
<path opacity="0.9" d="M136.416 148.493L122.692 146.836L119.891 153.853L133.915 155.511L136.416 148.493Z" fill="white"/>
<path d="M146.891 211.532V202.445L160.91 204.102V213.195L146.891 211.532Z" fill="#1F8562"/>
<path d="M160.91 204.102L163.803 196.01V206.036L160.91 213.195V204.102Z" fill="#1F8562"/>
<path d="M163.803 196.01L150.085 194.352L146.891 202.444L160.91 204.102L163.803 196.01Z" fill="#1F8562"/>
<path opacity="0.8" d="M146.891 211.532V202.445L160.91 204.102V213.195L146.891 211.532Z" fill="white"/>
<path opacity="0.75" d="M160.91 204.102L163.803 196.01V206.036L160.91 213.195V204.102Z" fill="white"/>
<path opacity="0.9" d="M163.803 196.01L150.085 194.352L146.891 202.444L160.91 204.102L163.803 196.01Z" fill="white"/>
<path d="M146.652 142.599V139.253L153.75 140.094V143.44L146.652 142.599Z" fill="#1F8562"/>
<path d="M153.75 140.094L155.209 135.993V139.818L153.75 143.441V140.094Z" fill="#1F8562"/>
<path d="M155.209 135.993L148.264 135.158L146.652 139.253L153.75 140.094L155.209 135.993Z" fill="#1F8562"/>
<path opacity="0.8" d="M146.652 142.599V139.253L153.75 140.094V143.44L146.652 142.599Z" fill="white"/>
<path opacity="0.75" d="M153.75 140.094L155.209 135.993V139.818L153.75 143.441V140.094Z" fill="white"/>
<path opacity="0.9" d="M155.209 135.993L148.264 135.158L146.652 139.253L153.75 140.094L155.209 135.993Z" fill="white"/>
<path d="M94.9312 126.807V121.932L105.253 123.154V128.029L94.9312 126.807Z" fill="#1F8562"/>
<path d="M105.253 123.154L107.38 117.199V122.761L105.253 128.029V123.154Z" fill="#1F8562"/>
<path d="M107.38 117.198L97.2788 115.977L94.9312 121.932L105.253 123.154L107.38 117.198Z" fill="#1F8562"/>
<path opacity="0.8" d="M94.9312 126.807V121.932L105.253 123.154V128.029L94.9312 126.807Z" fill="white"/>
<path opacity="0.75" d="M105.253 123.154L107.38 117.199V122.761L105.253 128.029V123.154Z" fill="white"/>
<path opacity="0.9" d="M107.38 117.198L97.2788 115.977L94.9312 121.932L105.253 123.154L107.38 117.198Z" fill="white"/>
<path d="M147.884 161.571V157.231L157.091 158.317V162.664L147.884 161.571Z" fill="#1F8562"/>
<path d="M157.091 158.317L158.985 153.006V157.967L157.091 162.664V158.317Z" fill="#1F8562"/>
<path d="M158.985 153.006L149.981 151.92L147.884 157.231L157.091 158.317L158.985 153.006Z" fill="#1F8562"/>
<path opacity="0.8" d="M147.884 161.571V157.231L157.091 158.317V162.664L147.884 161.571Z" fill="white"/>
<path opacity="0.75" d="M157.091 158.317L158.985 153.006V157.967L157.091 162.664V158.317Z" fill="white"/>
<path opacity="0.9" d="M158.985 153.006L149.981 151.92L147.884 157.231L157.091 158.317L158.985 153.006Z" fill="white"/>
<path d="M106.13 156.389V151.92L115.6 153.037V157.513L106.13 156.389Z" fill="#1F8562"/>
<path d="M115.6 153.037L117.549 147.572V152.675L115.6 157.513V153.037Z" fill="#1F8562"/>
<path d="M117.549 147.573L108.287 146.455L106.13 151.92L115.6 153.037L117.549 147.573Z" fill="#1F8562"/>
<path opacity="0.8" d="M106.13 156.389V151.92L115.6 153.037V157.513L106.13 156.389Z" fill="white"/>
<path opacity="0.75" d="M115.6 153.037L117.549 147.572V152.675L115.6 157.513V153.037Z" fill="white"/>
<path opacity="0.9" d="M117.549 147.573L108.287 146.455L106.13 151.92L115.6 153.037L117.549 147.573Z" fill="white"/>
<path d="M159.794 162.947V158.599L169.001 159.692V164.039L159.794 162.947Z" fill="#1F8562"/>
<path d="M169 159.692L170.895 154.381V159.336L169 164.04V159.692Z" fill="#1F8562"/>
<path d="M170.895 154.382L161.89 153.289L159.794 158.6L169.001 159.693L170.895 154.382Z" fill="#1F8562"/>
<path opacity="0.8" d="M159.794 162.947V158.599L169.001 159.692V164.039L159.794 162.947Z" fill="white"/>
<path opacity="0.75" d="M169 159.692L170.895 154.381V159.336L169 164.04V159.692Z" fill="white"/>
<path opacity="0.9" d="M170.895 154.382L161.89 153.289L159.794 158.6L169.001 159.693L170.895 154.382Z" fill="white"/>
<path d="M171.704 164.322V159.975L180.904 161.068V165.409L171.704 164.322Z" fill="#1F8562"/>
<path d="M180.904 161.068L182.804 155.751V160.712L180.904 165.409V161.068Z" fill="#1F8562"/>
<path d="M182.804 155.751L173.8 154.664L171.704 159.975L180.904 161.068L182.804 155.751Z" fill="#1F8562"/>
<path opacity="0.8" d="M171.704 164.322V159.975L180.904 161.068V165.409L171.704 164.322Z" fill="white"/>
<path opacity="0.75" d="M180.904 161.068L182.804 155.751V160.712L180.904 165.409V161.068Z" fill="white"/>
<path opacity="0.9" d="M182.804 155.751L173.8 154.664L171.704 159.975L180.904 161.068L182.804 155.751Z" fill="white"/>
<path d="M61.5559 149.826V145.479L70.7625 146.572V150.919L61.5559 149.826Z" fill="#1F8562"/>
<path d="M70.7622 146.572L72.6562 141.261V146.216L70.7622 150.919V146.572Z" fill="#1F8562"/>
<path d="M72.6565 141.261L63.6522 140.168L61.5559 145.479L70.7625 146.572L72.6565 141.261Z" fill="#1F8562"/>
<path opacity="0.8" d="M61.5559 149.826V145.479L70.7625 146.572V150.919L61.5559 149.826Z" fill="white"/>
<path opacity="0.75" d="M70.7622 146.572L72.6562 141.261V146.216L70.7622 150.919V146.572Z" fill="white"/>
<path opacity="0.9" d="M72.6565 141.261L63.6522 140.168L61.5559 145.479L70.7625 146.572L72.6565 141.261Z" fill="white"/>
<path d="M73.4656 151.201V146.854L82.6722 147.947V152.288L73.4656 151.201Z" fill="#1F8562"/>
<path d="M82.6721 147.947L84.5661 142.63V147.591L82.6721 152.288V147.947Z" fill="#1F8562"/>
<path d="M84.5662 142.63L75.5619 141.543L73.4656 146.854L82.6722 147.947L84.5662 142.63Z" fill="#1F8562"/>
<path opacity="0.8" d="M73.4656 151.201V146.854L82.6722 147.947V152.288L73.4656 151.201Z" fill="white"/>
<path opacity="0.75" d="M82.6721 147.947L84.5661 142.63V147.591L82.6721 152.288V147.947Z" fill="white"/>
<path opacity="0.9" d="M84.5662 142.63L75.5619 141.543L73.4656 146.854L82.6722 147.947L84.5662 142.63Z" fill="white"/>
<path d="M85.375 152.57V148.229L94.5755 149.322V153.663L85.375 152.57Z" fill="#1F8562"/>
<path d="M94.5757 149.322L96.4758 144.005V148.966L94.5757 153.663V149.322Z" fill="#1F8562"/>
<path d="M96.4756 144.005L87.4652 142.918L85.375 148.229L94.5755 149.322L96.4756 144.005Z" fill="#1F8562"/>
<path opacity="0.8" d="M85.375 152.57V148.229L94.5755 149.322V153.663L85.375 152.57Z" fill="white"/>
<path opacity="0.75" d="M94.5757 149.322L96.4758 144.005V148.966L94.5757 153.663V149.322Z" fill="white"/>
<path opacity="0.9" d="M96.4756 144.005L87.4652 142.918L85.375 148.229L94.5755 149.322L96.4756 144.005Z" fill="white"/>
<path d="M204.215 135.882V133.297L212.018 134.218V136.803L204.215 135.882Z" fill="#1F8562"/>
<path opacity="0.8" d="M204.215 135.882V133.297L212.018 134.218V136.803L204.215 135.882Z" fill="white"/>
<path d="M212.018 134.218L213.158 130.866V134.009L212.018 136.803V134.218Z" fill="#1F8562"/>
<path opacity="0.75" d="M212.018 134.218L213.158 130.866V134.009L212.018 136.803V134.218Z" fill="white"/>
<path d="M213.158 130.866L205.533 129.951L204.215 133.297L212.018 134.218L213.158 130.866Z" fill="#1F8562"/>
<path opacity="0.9" d="M213.158 130.866L205.533 129.951L204.215 133.297L212.018 134.218L213.158 130.866Z" fill="white"/>
<path d="M148.89 190.57V186.223L158.096 187.316V191.663L148.89 190.57Z" fill="#1F8562"/>
<path d="M158.096 187.316L159.99 181.999V186.96L158.096 191.663V187.316Z" fill="#1F8562"/>
<path d="M159.99 181.999L150.986 180.912L148.89 186.223L158.096 187.316L159.99 181.999Z" fill="#1F8562"/>
<path opacity="0.8" d="M148.89 190.57V186.223L158.096 187.316V191.663L148.89 190.57Z" fill="white"/>
<path opacity="0.75" d="M158.096 187.316L159.99 181.999V186.96L158.096 191.663V187.316Z" fill="white"/>
<path opacity="0.9" d="M159.99 181.999L150.986 180.912L148.89 186.223L158.096 187.316L159.99 181.999Z" fill="white"/>
<path d="M160.376 191.939V187.598L169.583 188.685V193.032L160.376 191.939Z" fill="#1F8562"/>
<path d="M169.583 188.685L171.483 183.374V188.329L169.583 193.032V188.685Z" fill="#1F8562"/>
<path d="M171.483 183.374L162.473 182.287L160.376 187.598L169.583 188.685L171.483 183.374Z" fill="#1F8562"/>
<path opacity="0.8" d="M160.376 191.939V187.598L169.583 188.685V193.032L160.376 191.939Z" fill="white"/>
<path opacity="0.75" d="M169.583 188.685L171.483 183.374V188.329L169.583 193.032V188.685Z" fill="white"/>
<path opacity="0.9" d="M171.483 183.374L162.473 182.287L160.376 187.598L169.583 188.685L171.483 183.374Z" fill="white"/>
<path d="M119.811 205.128V200.787L129.018 201.874V206.221L119.811 205.128Z" fill="#1F8562"/>
<path d="M129.018 201.874L130.912 196.563V201.524L129.018 206.221V201.874Z" fill="#1F8562"/>
<path d="M130.912 196.563L121.907 195.47L119.811 200.787L129.018 201.874L130.912 196.563Z" fill="#1F8562"/>
<path opacity="0.8" d="M119.811 205.128V200.787L129.018 201.874V206.221L119.811 205.128Z" fill="white"/>
<path opacity="0.75" d="M129.018 201.874L130.912 196.563V201.524L129.018 206.221V201.874Z" fill="white"/>
<path opacity="0.9" d="M130.912 196.563L121.907 195.47L119.811 200.787L129.018 201.874L130.912 196.563Z" fill="white"/>
<path d="M131.298 206.503V202.156L140.504 203.249V207.59L131.298 206.503Z" fill="#1F8562"/>
<path d="M140.504 203.249L142.405 197.932V202.893L140.504 207.59V203.249Z" fill="#1F8562"/>
<path d="M142.405 197.932L133.394 196.845L131.298 202.156L140.504 203.249L142.405 197.932Z" fill="#1F8562"/>
<path opacity="0.8" d="M131.298 206.503V202.156L140.504 203.249V207.59L131.298 206.503Z" fill="white"/>
<path opacity="0.75" d="M140.504 203.249L142.405 197.932V202.893L140.504 207.59V203.249Z" fill="white"/>
<path opacity="0.9" d="M142.405 197.932L133.394 196.845L131.298 202.156L140.504 203.249L142.405 197.932Z" fill="white"/>
<path d="M201.15 184.504V180.157L210.351 181.25V185.591L201.15 184.504Z" fill="#1F8562"/>
<path d="M210.351 181.25L212.251 175.932V180.893L210.351 185.59V181.25Z" fill="#1F8562"/>
<path d="M212.251 175.933L203.24 174.846L201.15 180.157L210.351 181.25L212.251 175.933Z" fill="#1F8562"/>
<path opacity="0.8" d="M201.15 184.504V180.157L210.351 181.25V185.591L201.15 184.504Z" fill="white"/>
<path opacity="0.75" d="M210.351 181.25L212.251 175.932V180.893L210.351 185.59V181.25Z" fill="white"/>
<path opacity="0.9" d="M212.251 175.933L203.24 174.846L201.15 180.157L210.351 181.25L212.251 175.933Z" fill="white"/>
<path d="M197.54 193.456V189.109L206.74 190.202V194.549L197.54 193.456Z" fill="#1F8562"/>
<path d="M206.74 190.202L208.64 184.884V189.845L206.74 194.549V190.202Z" fill="#1F8562"/>
<path d="M208.64 184.884L199.63 183.798L197.54 189.109L206.74 190.202L208.64 184.884Z" fill="#1F8562"/>
<path opacity="0.8" d="M197.54 193.456V189.109L206.74 190.202V194.549L197.54 193.456Z" fill="white"/>
<path opacity="0.75" d="M206.74 190.202L208.64 184.884V189.845L206.74 194.549V190.202Z" fill="white"/>
<path opacity="0.9" d="M208.64 184.884L199.63 183.798L197.54 189.109L206.74 190.202L208.64 184.884Z" fill="white"/>
<path d="M193.923 202.408V198.061L203.13 199.154V203.501L193.923 202.408Z" fill="#1F8562"/>
<path d="M203.13 199.153L205.03 193.836V198.797L203.13 203.5V199.153Z" fill="#1F8562"/>
<path d="M205.03 193.836L196.02 192.75L193.923 198.061L203.13 199.153L205.03 193.836Z" fill="#1F8562"/>
<path opacity="0.8" d="M193.923 202.408V198.061L203.13 199.154V203.501L193.923 202.408Z" fill="white"/>
<path opacity="0.75" d="M203.13 199.153L205.03 193.836V198.797L203.13 203.5V199.153Z" fill="white"/>
<path opacity="0.9" d="M205.03 193.836L196.02 192.75L193.923 198.061L203.13 199.153L205.03 193.836Z" fill="white"/>
<path d="M190.313 211.36V207.019L199.52 208.106V212.453L190.313 211.36Z" fill="#1F8562"/>
<path d="M199.52 208.105L201.42 202.794V207.749L199.52 212.453V208.105Z" fill="#1F8562"/>
<path d="M201.42 202.794L192.409 201.702L190.313 207.019L199.52 208.105L201.42 202.794Z" fill="#1F8562"/>
<path opacity="0.8" d="M190.313 211.36V207.019L199.52 208.106V212.453L190.313 211.36Z" fill="white"/>
<path opacity="0.75" d="M199.52 208.105L201.42 202.794V207.749L199.52 212.453V208.105Z" fill="white"/>
<path opacity="0.9" d="M201.42 202.794L192.409 201.702L190.313 207.019L199.52 208.105L201.42 202.794Z" fill="white"/>
<path d="M185.52 182.68V178.339L194.726 179.426V183.773L185.52 182.68Z" fill="#1F8562"/>
<path d="M194.726 179.426L196.626 174.115V179.07L194.726 183.773V179.426Z" fill="#1F8562"/>
<path d="M196.626 174.115L187.616 173.022L185.52 178.339L194.726 179.426L196.626 174.115Z" fill="#1F8562"/>
<path opacity="0.8" d="M185.52 182.68V178.339L194.726 179.426V183.773L185.52 182.68Z" fill="white"/>
<path opacity="0.75" d="M194.726 179.426L196.626 174.115V179.07L194.726 183.773V179.426Z" fill="white"/>
<path opacity="0.9" d="M196.626 174.115L187.616 173.022L185.52 178.339L194.726 179.426L196.626 174.115Z" fill="white"/>
<path d="M181.909 191.632V187.291L191.116 188.378V192.725L181.909 191.632Z" fill="#1F8562"/>
<path d="M191.116 188.378L193.016 183.067V188.028L191.116 192.725V188.378Z" fill="#1F8562"/>
<path d="M193.016 183.067L184.006 181.98L181.909 187.291L191.116 188.378L193.016 183.067Z" fill="#1F8562"/>
<path opacity="0.8" d="M181.909 191.632V187.291L191.116 188.378V192.725L181.909 191.632Z" fill="white"/>
<path opacity="0.75" d="M191.116 188.378L193.016 183.067V188.028L191.116 192.725V188.378Z" fill="white"/>
<path opacity="0.9" d="M193.016 183.067L184.006 181.98L181.909 187.291L191.116 188.378L193.016 183.067Z" fill="white"/>
<path d="M178.299 200.59V196.243L187.506 197.336V201.677L178.299 200.59Z" fill="#1F8562"/>
<path d="M187.506 197.336L189.406 192.019V196.98L187.506 201.677V197.336Z" fill="#1F8562"/>
<path d="M189.406 192.019L180.396 190.932L178.299 196.243L187.506 197.336L189.406 192.019Z" fill="#1F8562"/>
<path opacity="0.8" d="M178.299 200.59V196.243L187.506 197.336V201.677L178.299 200.59Z" fill="white"/>
<path opacity="0.75" d="M187.506 197.336L189.406 192.019V196.98L187.506 201.677V197.336Z" fill="white"/>
<path opacity="0.9" d="M189.406 192.019L180.396 190.932L178.299 196.243L187.506 197.336L189.406 192.019Z" fill="white"/>
<path d="M174.689 209.542V205.195L183.896 206.288V210.629L174.689 209.542Z" fill="#1F8562"/>
<path d="M183.896 206.288L185.796 200.971V205.932L183.896 210.629V206.288Z" fill="#1F8562"/>
<path d="M185.796 200.971L176.785 199.884L174.689 205.195L183.896 206.288L185.796 200.971Z" fill="#1F8562"/>
<path opacity="0.8" d="M174.689 209.542V205.195L183.896 206.288V210.629L174.689 209.542Z" fill="white"/>
<path opacity="0.75" d="M183.896 206.288L185.796 200.971V205.932L183.896 210.629V206.288Z" fill="white"/>
<path opacity="0.9" d="M185.796 200.971L176.785 199.884L174.689 205.195L183.896 206.288L185.796 200.971Z" fill="white"/>
<path d="M216.4 199.055V195.642L223.646 196.501V199.915L216.4 199.055Z" fill="#1F8562"/>
<path d="M223.646 196.501L225.135 192.32V196.219L223.646 199.915V196.501Z" fill="#1F8562"/>
<path d="M225.135 192.32L218.049 191.46L216.4 195.642L223.646 196.501L225.135 192.32Z" fill="#1F8562"/>
<path opacity="0.8" d="M216.4 199.055V195.642L223.646 196.501V199.915L216.4 199.055Z" fill="white"/>
<path opacity="0.75" d="M223.646 196.501L225.135 192.32V196.219L223.646 199.915V196.501Z" fill="white"/>
<path opacity="0.9" d="M225.135 192.32L218.049 191.46L216.4 195.642L223.646 196.501L225.135 192.32Z" fill="white"/>
<path d="M212.784 209.125V205.705L220.023 206.564V209.978L212.784 209.125Z" fill="#1F8562"/>
<path d="M220.023 206.564L221.519 202.383V206.282L220.023 209.978V206.564Z" fill="#1F8562"/>
<path d="M221.519 202.383L214.433 201.524L212.784 205.705L220.023 206.564L221.519 202.383Z" fill="#1F8562"/>
<path opacity="0.8" d="M212.784 209.125V205.705L220.023 206.564V209.978L212.784 209.125Z" fill="white"/>
<path opacity="0.75" d="M220.023 206.564L221.519 202.383V206.282L220.023 209.978V206.564Z" fill="white"/>
<path opacity="0.9" d="M221.519 202.383L214.433 201.524L212.784 205.705L220.023 206.564L221.519 202.383Z" fill="white"/>
<path d="M135.031 188.771V172.488L146.444 173.839V190.116L135.031 188.771Z" fill="#1F8562"/>
<path opacity="0.8" d="M135.031 188.771V172.488L146.444 173.839V190.116L135.031 188.771Z" fill="white"/>
<path d="M146.444 173.839L147.921 169.866V186.96L146.444 190.116V173.839Z" fill="#1F8562"/>
<path opacity="0.75" d="M146.444 173.839L147.921 169.866V186.96L146.444 190.116V173.839Z" fill="white"/>
<path d="M147.921 169.866L136.772 168.528L135.031 172.488L146.444 173.839L147.921 169.866Z" fill="#1F8562"/>
<path opacity="0.9" d="M147.921 169.866L136.772 168.528L135.031 172.488L146.444 173.839L147.921 169.866Z" fill="white"/>
<path d="M77.3394 134.046V114.792L83.9164 115.528V134.777L77.3394 134.046Z" fill="#1F8562"/>
<path opacity="0.8" d="M77.3394 134.046V114.792L83.9164 115.528V134.777L77.3394 134.046Z" fill="white"/>
<path d="M83.9165 115.528L85.3937 111.556V131.621L83.9165 134.777V115.528Z" fill="#1F8562"/>
<path opacity="0.75" d="M83.9165 115.528L85.3937 111.556V131.621L83.9165 134.777V115.528Z" fill="white"/>
<path d="M85.3936 111.556L79.0802 110.831L77.3394 114.792L83.9164 115.528L85.3936 111.556Z" fill="#1F8562"/>
<path opacity="0.9" d="M85.3936 111.556L79.0802 110.831L77.3394 114.792L83.9164 115.528L85.3936 111.556Z" fill="white"/>
<path d="M84.6519 133.371V116.394L88.1334 116.769V133.752L84.6519 133.371Z" fill="#1F8562"/>
<path opacity="0.8" d="M84.6519 133.371V116.394L88.1334 116.769V133.752L84.6519 133.371Z" fill="white"/>
<path d="M88.1335 116.769L88.6791 115.031V132.702L88.1335 133.752V116.769Z" fill="#1F8562"/>
<path opacity="0.75" d="M88.1335 116.769L88.6791 115.031V132.702L88.1335 133.752V116.769Z" fill="white"/>
<path d="M88.679 115.031L85.418 114.656L84.6519 116.394L88.1334 116.769L88.679 115.031Z" fill="#1F8562"/>
<path opacity="0.9" d="M88.679 115.031L85.418 114.656L84.6519 116.394L88.1334 116.769L88.679 115.031Z" fill="white"/>
<path d="M121.386 187.144V170.861L132.799 172.205V188.488L121.386 187.144Z" fill="#1F8562"/>
<path opacity="0.8" d="M121.386 187.144V170.861L132.799 172.205V188.488L121.386 187.144Z" fill="white"/>
<path d="M132.8 172.206L134.283 168.24V185.333L132.8 188.489V172.206Z" fill="#1F8562"/>
<path opacity="0.75" d="M132.8 172.206L134.283 168.24V185.333L132.8 188.489V172.206Z" fill="white"/>
<path d="M134.283 168.239L123.133 166.901L121.386 170.861L132.799 172.206L134.283 168.239Z" fill="#1F8562"/>
<path opacity="0.9" d="M134.283 168.239L123.133 166.901L121.386 170.861L132.799 172.206L134.283 168.239Z" fill="white"/>
<path d="M91.4067 135.882V131.007L101.723 132.229V137.104L91.4067 135.882Z" fill="#1F8562"/>
<path d="M101.723 132.229L103.856 126.273V131.836L101.723 137.104V132.229Z" fill="#1F8562"/>
<path d="M103.856 126.273L93.7543 125.051L91.4067 131.007L101.723 132.229L103.856 126.273Z" fill="#1F8562"/>
<path opacity="0.8" d="M91.4067 135.882V131.007L101.723 132.229V137.104L91.4067 135.882Z" fill="white"/>
<path opacity="0.75" d="M101.723 132.229L103.856 126.273V131.836L101.723 137.104V132.229Z" fill="white"/>
<path opacity="0.9" d="M103.856 126.273L93.7543 125.051L91.4067 131.007L101.723 132.229L103.856 126.273Z" fill="white"/>
<path d="M82.4022 170.812L75.01 175.085L69.0889 171.684L76.8611 167.189L82.4022 170.812Z" fill="#1F8562"/>
<path opacity="0.9" d="M82.4022 170.812L75.01 175.085L69.0889 171.684L76.8611 167.189L82.4022 170.812Z" fill="white"/>
<path d="M69.0889 175.208V171.684L75.01 175.085V178.628L69.0889 175.208Z" fill="#1F8562"/>
<path opacity="0.8" d="M69.0889 175.208V171.684L75.01 175.085V178.628L69.0889 175.208Z" fill="white"/>
<path d="M82.4025 170.812V174.355L75.0103 178.628V175.085L82.4025 170.812Z" fill="#1F8562"/>
<path opacity="0.75" d="M82.4025 170.812V174.355L75.0103 178.628V175.085L82.4025 170.812Z" fill="white"/>
<path d="M90.6652 175.693L83.2729 179.967L77.3579 176.565L85.1302 172.077L90.6652 175.693Z" fill="#1F8562"/>
<path opacity="0.9" d="M90.6652 175.693L83.2729 179.967L77.3579 176.565L85.1302 172.077L90.6652 175.693Z" fill="white"/>
<path d="M77.3579 180.089V176.565L83.2729 179.967V183.509L77.3579 180.089Z" fill="#1F8562"/>
<path opacity="0.8" d="M77.3579 180.089V176.565L83.2729 179.967V183.509L77.3579 180.089Z" fill="white"/>
<path d="M90.6652 175.693V179.236L83.2729 183.509V179.967L90.6652 175.693Z" fill="#1F8562"/>
<path opacity="0.75" d="M90.6652 175.693V179.236L83.2729 183.509V179.967L90.6652 175.693Z" fill="white"/>
<path d="M99.0993 180.531L91.707 184.798L85.7859 181.403L93.5582 176.909L99.0993 180.531Z" fill="#1F8562"/>
<path opacity="0.9" d="M99.0993 180.531L91.707 184.798L85.7859 181.403L93.5582 176.909L99.0993 180.531Z" fill="white"/>
<path d="M85.7859 184.921V181.403L91.707 184.799V188.347L85.7859 184.921Z" fill="#1F8562"/>
<path opacity="0.8" d="M85.7859 184.921V181.403L91.707 184.799V188.347L85.7859 184.921Z" fill="white"/>
<path d="M99.0993 180.531V184.074L91.707 188.348V184.799L99.0993 180.531Z" fill="#1F8562"/>
<path opacity="0.75" d="M99.0993 180.531V184.074L91.707 188.348V184.799L99.0993 180.531Z" fill="white"/>
<path d="M111.064 182.711L103.672 186.984L97.7507 183.583L105.523 179.095L111.064 182.711Z" fill="#1F8562"/>
<path opacity="0.9" d="M111.064 182.711L103.672 186.984L97.7507 183.583L105.523 179.095L111.064 182.711Z" fill="white"/>
<path d="M97.7507 192.062V183.583L103.672 186.984V195.488L97.7507 192.062Z" fill="#1F8562"/>
<path opacity="0.8" d="M97.7507 192.062V183.583L103.672 186.984V195.488L97.7507 192.062Z" fill="white"/>
<path d="M111.064 182.711V191.208L103.672 195.488V186.984L111.064 182.711Z" fill="#1F8562"/>
<path opacity="0.75" d="M111.064 182.711V191.208L103.672 195.488V186.984L111.064 182.711Z" fill="white"/>
<path d="M66.8641 162.775L58.8528 165.777L52.9316 162.382L61.3291 159.158L66.8641 162.775Z" fill="#1F8562"/>
<path opacity="0.9" d="M66.8641 162.775L58.8528 165.777L52.9316 162.382L61.3291 159.158L66.8641 162.775Z" fill="white"/>
<path d="M52.9316 165.9V162.382L58.8528 165.777V169.326L52.9316 165.9Z" fill="#1F8562"/>
<path opacity="0.8" d="M52.9316 165.9V162.382L58.8528 165.777V169.326L52.9316 165.9Z" fill="white"/>
<path d="M66.8639 162.775V166.318L58.8525 169.326V165.777L66.8639 162.775Z" fill="#1F8562"/>
<path opacity="0.75" d="M66.8639 162.775V166.318L58.8525 169.326V165.777L66.8639 162.775Z" fill="white"/>
<path d="M79.7115 157.863L71.6941 160.871L65.7729 157.47L74.1704 154.246L79.7115 157.863Z" fill="#1F8562"/>
<path opacity="0.9" d="M79.7115 157.863L71.6941 160.871L65.7729 157.47L74.1704 154.246L79.7115 157.863Z" fill="white"/>
<path d="M65.7729 160.994V157.47L71.6941 160.871V164.414L65.7729 160.994Z" fill="#1F8562"/>
<path opacity="0.8" d="M65.7729 160.994V157.47L71.6941 160.871V164.414L65.7729 160.994Z" fill="white"/>
<path d="M79.7115 157.863V161.412L71.6941 164.414V160.871L79.7115 157.863Z" fill="#1F8562"/>
<path opacity="0.75" d="M79.7115 157.863V161.412L71.6941 164.414V160.871L79.7115 157.863Z" fill="white"/>
<path d="M128.35 140.242V135.109L143.33 136.877V142.01L128.35 140.242Z" fill="#1F8562"/>
<path opacity="0.75" d="M128.35 140.242V135.109L143.33 136.877V142.01L128.35 140.242Z" fill="white"/>
<path d="M143.33 136.877L146.493 128.005V134.169L143.33 142.01V136.877Z" fill="#1F8562"/>
<path opacity="0.65" d="M143.33 136.877L146.493 128.005V134.169L143.33 142.01V136.877Z" fill="white"/>
<path d="M146.493 128.005L131.843 126.236L128.35 135.109L143.33 136.877L146.493 128.005Z" fill="#1F8562"/>
<path opacity="0.9" d="M146.493 128.005L131.843 126.236L128.35 135.109L143.33 136.877L146.493 128.005Z" fill="white"/>
<path d="M130.274 133.831V108.793L142.006 110.175V135.213L130.274 133.831Z" fill="#1F8562"/>
<path opacity="0.75" d="M130.274 133.831V108.793L142.006 110.175V135.213L130.274 133.831Z" fill="white"/>
<path d="M142.006 110.174L144.569 102.991V128.858L142.006 135.213V110.174Z" fill="#1F8562"/>
<path opacity="0.65" d="M142.006 110.174L144.569 102.991V128.858L142.006 135.213V110.174Z" fill="white"/>
<path d="M144.568 102.991L133.106 101.61L130.274 108.793L142.006 110.175L144.568 102.991Z" fill="#1F8562"/>
<path opacity="0.9" d="M144.568 102.991L133.106 101.61L130.274 108.793L142.006 110.175L144.568 102.991Z" fill="white"/>
<path d="M133.934 107.178V93.5293L140.333 94.2845V107.933L133.934 107.178Z" fill="#1F8562"/>
<path opacity="0.75" d="M133.934 107.178V93.5293L140.333 94.2845V107.933L133.934 107.178Z" fill="white"/>
<path d="M140.333 94.2845L141.73 90.3672V104.471L140.333 107.933V94.2845Z" fill="#1F8562"/>
<path opacity="0.65" d="M140.333 94.2845L141.73 90.3672V104.471L140.333 107.933V94.2845Z" fill="white"/>
<path d="M141.73 90.3673L135.472 89.6121L133.934 93.5293L140.333 94.2845L141.73 90.3673Z" fill="#1F8562"/>
<path opacity="0.9" d="M141.73 90.3673L135.472 89.6121L133.934 93.5293L140.333 94.2845L141.73 90.3673Z" fill="white"/>
<path d="M201.781 176.258V136.803L213.52 138.185V177.639L201.781 176.258Z" fill="#1F8562"/>
<path opacity="0.75" d="M201.781 176.258V136.803L213.52 138.185V177.639L201.781 176.258Z" fill="white"/>
<path d="M213.52 138.185L215.236 133.156V173.44L213.52 177.639V138.185Z" fill="#1F8562"/>
<path opacity="0.65" d="M213.52 138.185L215.236 133.156V173.44L213.52 177.639V138.185Z" fill="white"/>
<path d="M215.236 133.156L203.767 131.775L201.781 136.803L213.52 138.185L215.236 133.156Z" fill="#1F8562"/>
<path opacity="0.9" d="M215.236 133.156L203.767 131.775L201.781 136.803L213.52 138.185L215.236 133.156Z" fill="white"/>
<path d="M220.771 188.845V152.313L231.001 153.448V189.987L220.771 188.845Z" fill="#1F8562"/>
<path opacity="0.75" d="M220.771 188.845V152.313L231.001 153.448V189.987L220.771 188.845Z" fill="white"/>
<path d="M231.001 153.448L233.306 147.278V185.075L231.001 189.987V153.448Z" fill="#1F8562"/>
<path opacity="0.65" d="M231.001 153.448L233.306 147.278V185.075L231.001 189.987V153.448Z" fill="white"/>
<path d="M233.306 147.278L223.48 146.142L220.771 152.312L231.001 153.448L233.306 147.278Z" fill="#1F8562"/>
<path opacity="0.9" d="M233.306 147.278L223.48 146.142L220.771 152.312L231.001 153.448L233.306 147.278Z" fill="white"/>
<path d="M232.153 187.801V154.805L237.572 155.388V188.384L232.153 187.801Z" fill="#1F8562"/>
<path opacity="0.75" d="M232.153 187.801V154.805L237.572 155.388V188.384L232.153 187.801Z" fill="white"/>
<path d="M237.572 155.389L238.412 152.681V186.763L237.572 188.384V155.389Z" fill="#1F8562"/>
<path opacity="0.65" d="M237.572 155.389L238.412 152.681V186.763L237.572 188.384V155.389Z" fill="white"/>
<path d="M238.412 152.681L233.342 152.104L232.153 154.805L237.572 155.389L238.412 152.681Z" fill="#1F8562"/>
<path opacity="0.9" d="M238.412 152.681L233.342 152.104L232.153 154.805L237.572 155.389L238.412 152.681Z" fill="white"/>
<path d="M30.3074 148.598L45.2512 157.237V161.934L30.3074 153.295V148.598Z" fill="#1F8562"/>
<path opacity="0.35" d="M30.3074 148.598L45.2512 157.237V161.934L30.3074 153.295V148.598Z" fill="black"/>
<path d="M60.1889 153.295V148.598L45.2512 157.237V161.934" fill="#1F8562"/>
<path opacity="0.15" d="M60.1889 148.598L45.2512 157.237V161.934L60.1889 153.295V148.598Z" fill="black"/>
<path d="M60.1889 148.598L45.2512 139.959L30.3074 148.598L45.2512 157.237L60.1889 148.598Z" fill="#1F8562"/>
<path opacity="0.5" d="M60.1889 148.598L45.2512 139.959L30.3074 148.598L45.2512 157.237L60.1889 148.598Z" fill="black"/>
<path d="M30.3074 147.873L45.2512 156.512V155.076L30.3074 146.437V147.873Z" fill="#1F8562"/>
<path opacity="0.35" d="M30.3074 147.873L45.2512 156.512V155.076L30.3074 146.437V147.873Z" fill="black"/>
<path d="M45.2512 156.512L60.1889 147.873V146.437L45.2512 155.076V156.512Z" fill="#1F8562"/>
<path opacity="0.15" d="M45.2512 156.512L60.1889 147.873V146.437L45.2512 155.076V156.512Z" fill="black"/>
<path d="M60.1889 146.436L45.2512 137.798L30.3074 146.436L45.2512 155.075L60.1889 146.436Z" fill="#1F8562"/>
<path opacity="0.5" d="M60.1889 146.436L45.2512 137.798L30.3074 146.436L45.2512 155.075L60.1889 146.436Z" fill="black"/>
<path d="M30.3074 145.552L45.2512 154.191V152.754L30.3074 144.116V145.552Z" fill="#1F8562"/>
<path opacity="0.35" d="M30.3074 145.552L45.2512 154.191V152.754L30.3074 144.116V145.552Z" fill="black"/>
<path d="M45.2512 154.191L60.1889 145.552V144.116L45.2512 152.754V154.191Z" fill="#1F8562"/>
<path opacity="0.15" d="M45.2512 154.191L60.1889 145.552V144.116L45.2512 152.754V154.191Z" fill="black"/>
<path d="M60.1889 144.116L45.2512 135.477L30.3074 144.116L45.2512 152.755L60.1889 144.116Z" fill="#1F8562"/>
<path opacity="0.5" d="M60.1889 144.116L45.2512 135.477L30.3074 144.116L45.2512 152.755L60.1889 144.116Z" fill="black"/>
<path d="M45.2514 151.134V114.859L32.8022 107.663V143.931L45.2514 151.134Z" fill="#1F8562"/>
<path d="M45.2512 114.859L57.7003 107.663V143.931L45.2512 151.134V114.859Z" fill="#1F8562"/>
<path d="M57.7005 107.663L45.2514 100.461L32.8022 107.663L45.2514 114.859L57.7005 107.663Z" fill="#1F8562"/>
<path opacity="0.4" d="M57.7005 107.663L45.2514 100.461L32.8022 107.663L45.2514 114.859L57.7005 107.663Z" fill="black"/>
<path opacity="0.2" d="M45.2514 151.134V114.859L32.8022 107.663V143.931L45.2514 151.134Z" fill="black"/>
<path d="M45.251 113.423V82.8706L35.2905 76.9763V107.663L45.251 113.423Z" fill="#1F8562"/>
<path d="M45.2512 113.423V82.8706L55.2056 76.9763V107.663L45.2512 113.423Z" fill="#1F8562"/>
<path d="M55.2054 76.976L45.251 71.2844L35.2905 76.976L45.251 82.8703L55.2054 76.976Z" fill="#1F8562"/>
<path opacity="0.4" d="M55.2054 76.976L45.251 71.2844L35.2905 76.976L45.251 82.8703L55.2054 76.976Z" fill="black"/>
<path opacity="0.2" d="M45.251 113.423V82.8706L35.2905 76.9763V107.663L45.251 113.423Z" fill="black"/>
<path d="M45.2512 80.6418V76.3254L51.4727 72.7213V77.0438L45.2512 80.6418Z" fill="#1F8562"/>
<path d="M39.0234 77.0438V72.7213L45.2511 76.3254V80.6418L39.0234 77.0438Z" fill="#1F8562"/>
<path opacity="0.2" d="M39.0234 77.0438V72.7213L45.2511 76.3254V80.6418L39.0234 77.0438Z" fill="black"/>
<path d="M51.4725 72.7212L45.2511 69.1232L39.0234 72.7212L45.2511 76.3253L51.4725 72.7212Z" fill="#1F8562"/>
<path opacity="0.4" d="M51.4725 72.7212L45.2511 69.1232L39.0234 72.7212L45.2511 76.3253L51.4725 72.7212Z" fill="black"/>
<path d="M45.2512 74.8824V54.7252L48.9841 72.7211L45.2512 74.8824Z" fill="#1F8562"/>
<path opacity="0.1" d="M45.2512 74.8824V54.7252L48.9841 72.7211L45.2512 74.8824Z" fill="black"/>
<path d="M41.4692 72.7211L45.2512 54.7252V74.8824L41.4692 72.7211Z" fill="#1F8562"/>
<path opacity="0.25" d="M41.4692 72.7211L45.2512 54.7252V74.8824L41.4692 72.7211Z" fill="black"/>
<path d="M205.968 219.495C205.919 219.493 205.872 219.483 205.827 219.464C205.747 219.421 197.503 215.277 184.827 214.694C172.151 214.11 166.107 216.536 166.046 216.536C165.99 216.558 165.928 216.563 165.869 216.55C165.809 216.538 165.755 216.508 165.712 216.465C165.669 216.422 165.64 216.368 165.627 216.308C165.615 216.249 165.62 216.187 165.642 216.13L184.282 169.983L140.7 164.893C140.653 164.887 140.607 164.87 140.567 164.844C140.526 164.817 140.493 164.782 140.469 164.74C140.444 164.699 140.43 164.652 140.426 164.604C140.423 164.556 140.431 164.508 140.449 164.463L147.357 147.345L59.1775 136.858C59.1368 136.855 59.0973 136.843 59.0614 136.823C59.0255 136.803 58.994 136.777 58.9687 136.745C58.9435 136.712 58.925 136.675 58.9146 136.636C58.9041 136.596 58.9018 136.555 58.9078 136.514C58.9171 136.432 58.9583 136.357 59.0226 136.306C59.0869 136.254 59.169 136.23 59.2511 136.238L147.841 146.793C147.888 146.799 147.933 146.817 147.972 146.843C148.012 146.87 148.044 146.905 148.068 146.946C148.089 146.989 148.1 147.036 148.1 147.084C148.1 147.132 148.089 147.179 148.068 147.222L141.154 164.347L184.735 169.436C184.782 169.442 184.828 169.458 184.868 169.484C184.909 169.509 184.943 169.543 184.968 169.584C184.989 169.628 185 169.676 185 169.725C185 169.774 184.989 169.822 184.968 169.866L166.432 215.737C168.326 215.123 174.241 213.588 184.821 214.073C197.638 214.657 205.992 218.863 206.078 218.906C206.115 218.924 206.147 218.949 206.174 218.98C206.201 219.011 206.221 219.047 206.233 219.086C206.246 219.125 206.251 219.166 206.247 219.206C206.244 219.247 206.232 219.287 206.213 219.323C206.19 219.37 206.155 219.41 206.112 219.44C206.07 219.47 206.02 219.489 205.968 219.495Z" fill="#455A64"/>
<path d="M34.5186 27.1141V25.2721C34.5484 22.9112 34.9412 20.569 35.6832 18.3279C37.5772 12.4644 41.5676 6.8525 46.1831 4.20621C49.1192 2.50547 51.7978 2.29671 53.8512 3.31593L49.8118 0.988918C48.8158 0.330927 47.6459 -0.0133556 46.4528 0.000396476C46.2644 -0.00145745 46.076 0.00879744 45.8889 0.0310966C45.6927 0.0310966 45.4966 0.0679351 45.2759 0.0986345C45.0695 0.122508 44.8648 0.159421 44.663 0.209152C44.4559 0.253703 44.2513 0.309037 44.05 0.37493C43.6174 0.502522 43.1935 0.6584 42.7812 0.841561C42.5667 0.933659 42.3521 1.04418 42.1315 1.14855C41.9108 1.25293 41.6902 1.38187 41.4756 1.50467C35.0702 5.21315 29.854 14.644 29.854 22.6259V24.4678C29.854 32.4067 40.5133 41.0455 40.5133 41.0455L44.804 43.5014C44.7285 43.4515 44.6568 43.3961 44.5894 43.3357C41.4327 40.321 34.5186 33.2233 34.5186 27.1141ZM47.2435 10.4198C47.2811 10.6227 47.3057 10.8277 47.3171 11.0338C47.3171 11.1074 47.3171 11.175 47.3171 11.2487C47.3233 11.3693 47.3233 11.4902 47.3171 11.6109C47.3171 15.3317 44.712 19.8629 41.4879 21.7233L41.1385 21.9136C41.022 21.975 40.9056 22.0241 40.7952 22.0733L40.4581 22.2145H40.4213C40.924 25.0634 43.29 26.0581 46.1586 24.4126C49.3766 22.5706 51.9817 18.0148 51.9817 14.294C52.0062 10.9969 49.9528 9.43125 47.2435 10.4198Z" fill="#1F8562"/>
<path opacity="0.3" d="M34.5186 27.1141V25.2721C34.5484 22.9112 34.9412 20.569 35.6832 18.3279C37.5772 12.4644 41.5676 6.8525 46.1831 4.20621C49.1192 2.50547 51.7978 2.29671 53.8512 3.31593L49.8118 0.988918C48.8158 0.330927 47.6459 -0.0133556 46.4528 0.000396476C46.2644 -0.00145745 46.076 0.00879744 45.8889 0.0310966C45.6927 0.0310966 45.4966 0.0679351 45.2759 0.0986345C45.0695 0.122508 44.8648 0.159421 44.663 0.209152C44.4559 0.253703 44.2513 0.309037 44.05 0.37493C43.6174 0.502522 43.1935 0.6584 42.7812 0.841561C42.5667 0.933659 42.3521 1.04418 42.1315 1.14855C41.9108 1.25293 41.6902 1.38187 41.4756 1.50467C35.0702 5.21315 29.854 14.644 29.854 22.6259V24.4678C29.854 32.4067 40.5133 41.0455 40.5133 41.0455L44.804 43.5014C44.7285 43.4515 44.6568 43.3961 44.5894 43.3357C41.4327 40.321 34.5186 33.2233 34.5186 27.1141Z" fill="black"/>
<path opacity="0.5" d="M47.2436 10.4198C47.2811 10.6227 47.3057 10.8278 47.3171 11.0338C47.3171 11.1075 47.3171 11.175 47.3171 11.2487C47.3233 11.3694 47.3233 11.4903 47.3171 11.611C47.3171 15.3317 44.7121 19.863 41.4879 21.7234L41.1385 21.9137C41.0221 21.9751 40.9056 22.0242 40.7953 22.0733L40.4582 22.2145H40.4214C40.924 25.0635 43.29 26.0581 46.1586 24.4126C49.3767 22.5707 51.9817 18.0149 51.9817 14.2941C52.0062 10.997 49.9528 9.43132 47.2436 10.4198Z" fill="black"/>
<path d="M57.8355 11.8198C57.8355 3.88098 52.6192 0.461065 46.1893 4.18797C39.7595 7.91488 34.5432 17.3642 34.5432 25.303V27.145C34.5432 33.2849 41.4573 40.3519 44.6386 43.2929C44.8183 43.4545 45.0328 43.5724 45.2654 43.6373C45.4981 43.7023 45.7425 43.7126 45.9798 43.6675C46.2171 43.6223 46.4407 43.5229 46.6333 43.377C46.826 43.2311 46.9824 43.0426 47.0904 42.8262C49.8364 37.196 57.8355 20.2315 57.8355 13.6557V11.8198ZM46.1893 24.4127C42.9713 26.2547 40.3602 24.7688 40.3602 21.0419C40.3602 17.315 42.9591 12.8022 46.1771 10.9603C49.3951 9.11829 52.0063 10.6041 52.0063 14.3311C52.0063 18.058 49.3951 22.5524 46.1771 24.4127H46.1893Z" fill="#1F8562"/>
<path d="M57.8355 11.8198C57.8355 3.88098 52.6192 0.461065 46.1893 4.18797C39.7595 7.91488 34.5432 17.3642 34.5432 25.303V27.145C34.5432 33.2849 41.4573 40.3519 44.6386 43.2929C44.8183 43.4545 45.0328 43.5724 45.2654 43.6373C45.4981 43.7023 45.7425 43.7126 45.9798 43.6675C46.2171 43.6223 46.4407 43.5229 46.6333 43.377C46.826 43.2311 46.9824 43.0426 47.0904 42.8262C49.8364 37.196 57.8355 20.2315 57.8355 13.6557V11.8198ZM46.1893 24.4127C42.9713 26.2547 40.3602 24.7688 40.3602 21.0419C40.3602 17.315 42.9591 12.8022 46.1771 10.9603C49.3951 9.11829 52.0063 10.6041 52.0063 14.3311C52.0063 18.058 49.3951 22.5524 46.1771 24.4127H46.1893Z" fill="#1F8562"/>
<path d="M134.761 77.0559V76.4419C134.772 75.6652 134.902 74.8947 135.147 74.1579C135.721 72.2528 136.942 70.6086 138.598 69.51C138.96 69.2526 139.38 69.0907 139.82 69.0392C140.261 68.9876 140.707 69.0482 141.118 69.2153L139.787 68.4478C139.462 68.2343 139.08 68.1232 138.69 68.1285H138.476H138.286C138.217 68.1349 138.15 68.1472 138.083 68.1654L137.887 68.2145C137.744 68.2569 137.605 68.3103 137.471 68.3741L137.256 68.4724L137.035 68.589C134.921 69.817 133.204 72.887 133.204 75.5271V76.1411C133.204 78.7505 136.71 81.5872 136.71 81.5872L138.126 82.3915L138.059 82.3362C137.035 81.3907 134.761 79.0637 134.761 77.0559ZM138.948 71.5669C138.951 71.6344 138.951 71.702 138.948 71.7695V71.837C138.951 71.8779 138.951 71.919 138.948 71.9598C138.911 72.6256 138.718 73.2732 138.385 73.8504C138.051 74.4275 137.587 74.9178 137.029 75.2815L136.919 75.3429L136.802 75.3982L136.692 75.4411C136.851 76.3744 137.63 76.6998 138.574 76.1595C139.13 75.7947 139.593 75.3041 139.925 74.7271C140.258 74.1501 140.45 73.5029 140.486 72.8378C140.511 71.7449 139.837 71.2415 138.948 71.5669Z" fill="#1F8562"/>
<path opacity="0.6" d="M134.761 77.0559V76.4419C134.772 75.6652 134.902 74.8947 135.147 74.1579C135.721 72.2528 136.942 70.6086 138.598 69.51C138.96 69.2526 139.38 69.0907 139.82 69.0392C140.261 68.9876 140.707 69.0482 141.118 69.2153L139.787 68.4478C139.462 68.2343 139.08 68.1232 138.69 68.1285H138.476H138.286C138.217 68.1349 138.15 68.1472 138.083 68.1654L137.887 68.2145C137.744 68.2569 137.605 68.3103 137.471 68.3741L137.256 68.4724L137.035 68.589C134.921 69.817 133.204 72.887 133.204 75.5271V76.1411C133.204 78.7505 136.71 81.5872 136.71 81.5872L138.126 82.3915L138.059 82.3362C137.035 81.3907 134.761 79.0637 134.761 77.0559Z" fill="white"/>
<path opacity="0.6" d="M138.93 71.5668C138.933 71.6343 138.933 71.7019 138.93 71.7694C138.93 71.7694 138.93 71.8124 138.93 71.837V71.9598C138.894 72.6251 138.702 73.2726 138.37 73.8497C138.038 74.4269 137.574 74.9174 137.017 75.2814L136.901 75.3428L136.79 75.3981L136.674 75.4411C136.839 76.3743 137.618 76.6998 138.556 76.1595C139.113 75.7954 139.576 75.3049 139.908 74.7277C140.241 74.1506 140.432 73.5031 140.468 72.8378C140.493 71.7449 139.824 71.2414 138.93 71.5668Z" fill="white"/>
<path d="M142.429 72.0273C142.429 69.4179 140.713 68.2943 138.598 69.5161C136.483 70.7379 134.798 73.8509 134.798 76.4603V77.0743C134.798 79.082 137.066 81.4091 138.114 82.3792C138.173 82.4343 138.244 82.4748 138.322 82.4974C138.399 82.5199 138.481 82.5239 138.56 82.5089C138.64 82.494 138.714 82.4606 138.778 82.4114C138.843 82.3622 138.894 82.2985 138.929 82.2257C139.83 80.3837 142.46 74.8026 142.46 72.6413L142.429 72.0273ZM138.598 76.1656C137.538 76.7796 136.68 76.2823 136.68 75.0604C136.717 74.3958 136.911 73.7493 137.244 73.1733C137.577 72.5973 138.041 72.108 138.598 71.7449C139.652 71.1309 140.511 71.6282 140.511 72.8562C140.473 73.5193 140.28 74.1642 139.948 74.739C139.616 75.3138 139.153 75.8024 138.598 76.1656Z" fill="#1F8562"/>
<path d="M142.429 72.0273C142.429 69.4179 140.713 68.2943 138.598 69.5161C136.483 70.7379 134.798 73.8509 134.798 76.4603V77.0743C134.798 79.082 137.066 81.4091 138.114 82.3792C138.173 82.4343 138.244 82.4748 138.322 82.4974C138.399 82.5199 138.481 82.5239 138.56 82.5089C138.64 82.494 138.714 82.4606 138.778 82.4114C138.843 82.3622 138.894 82.2985 138.929 82.2257C139.83 80.3837 142.46 74.8026 142.46 72.6413L142.429 72.0273ZM138.598 76.1656C137.538 76.7796 136.68 76.2823 136.68 75.0604C136.717 74.3958 136.911 73.7493 137.244 73.1733C137.577 72.5973 138.041 72.108 138.598 71.7449C139.652 71.1309 140.511 71.6282 140.511 72.8562C140.473 73.5193 140.28 74.1642 139.948 74.739C139.616 75.3138 139.153 75.8024 138.598 76.1656Z" fill="#1F8562"/>
<g opacity="0.8">
<path opacity="0.8" d="M142.429 72.0273C142.429 69.4179 140.713 68.2943 138.598 69.5161C136.483 70.7379 134.798 73.8509 134.798 76.4603V77.0743C134.798 79.082 137.066 81.4091 138.114 82.3792C138.173 82.4343 138.244 82.4748 138.322 82.4974C138.399 82.5199 138.481 82.5239 138.56 82.5089C138.64 82.494 138.714 82.4606 138.778 82.4114C138.843 82.3622 138.894 82.2985 138.929 82.2257C139.83 80.3837 142.46 74.8026 142.46 72.6413L142.429 72.0273ZM138.598 76.1656C137.538 76.7796 136.68 76.2823 136.68 75.0604C136.717 74.3958 136.911 73.7493 137.244 73.1733C137.577 72.5973 138.041 72.108 138.598 71.7449C139.652 71.1309 140.511 71.6282 140.511 72.8562C140.473 73.5193 140.28 74.1642 139.948 74.739C139.616 75.3138 139.153 75.8024 138.598 76.1656Z" fill="white"/>
</g>
<path d="M206.152 117.18V116.566C206.162 115.789 206.293 115.019 206.538 114.282C207.112 112.377 208.333 110.733 209.989 109.634C210.35 109.377 210.771 109.215 211.211 109.163C211.651 109.112 212.098 109.172 212.508 109.339L211.178 108.584C210.85 108.371 210.466 108.259 210.075 108.265H209.891H209.695L209.499 108.302L209.296 108.351C209.154 108.395 209.015 108.449 208.88 108.511L208.671 108.609L208.451 108.725C206.336 109.953 204.62 113.054 204.62 115.663V116.277C204.62 118.887 208.126 121.724 208.126 121.724L209.542 122.528L209.474 122.473C208.426 121.478 206.152 119.157 206.152 117.18ZM210.338 111.691C210.342 111.758 210.342 111.826 210.338 111.894V111.961C210.342 112.002 210.342 112.043 210.338 112.084C210.302 112.75 210.109 113.397 209.776 113.974C209.442 114.552 208.978 115.042 208.42 115.406L208.31 115.467L208.193 115.522L208.083 115.565C208.248 116.498 209.027 116.793 209.971 116.284C210.527 115.919 210.99 115.428 211.322 114.851C211.654 114.274 211.847 113.627 211.883 112.962C211.902 111.851 211.227 111.335 210.338 111.654V111.691Z" fill="#1F8562"/>
<path opacity="0.6" d="M206.152 117.18V116.566C206.162 115.789 206.293 115.019 206.538 114.282C207.112 112.377 208.333 110.733 209.989 109.634C210.35 109.377 210.771 109.215 211.211 109.163C211.651 109.112 212.098 109.172 212.508 109.339L211.178 108.584C210.85 108.371 210.466 108.259 210.075 108.265H209.891H209.695L209.499 108.302L209.296 108.351C209.154 108.395 209.015 108.449 208.88 108.511L208.671 108.609L208.451 108.725C206.336 109.953 204.62 113.054 204.62 115.663V116.277C204.62 118.887 208.126 121.724 208.126 121.724L209.542 122.528L209.474 122.473C208.426 121.478 206.152 119.157 206.152 117.18Z" fill="white"/>
<path opacity="0.6" d="M210.32 111.654C210.323 111.722 210.323 111.789 210.32 111.857C210.32 111.857 210.32 111.9 210.32 111.924V112.047C210.285 112.712 210.093 113.36 209.761 113.937C209.428 114.514 208.965 115.005 208.408 115.369L208.291 115.43L208.181 115.485L208.064 115.528C208.23 116.462 209.008 116.756 209.946 116.247C210.503 115.883 210.967 115.392 211.299 114.815C211.631 114.238 211.823 113.59 211.859 112.925C211.883 111.851 211.209 111.335 210.32 111.654Z" fill="white"/>
<path d="M213.82 112.121C213.82 109.511 212.104 108.388 209.989 109.609C207.875 110.831 206.152 113.944 206.152 116.554V117.168C206.152 119.175 208.426 121.502 209.474 122.472C209.533 122.528 209.605 122.568 209.682 122.591C209.76 122.613 209.841 122.617 209.921 122.602C210 122.587 210.075 122.554 210.139 122.505C210.203 122.455 210.255 122.392 210.29 122.319C211.191 120.477 213.82 114.896 213.82 112.735V112.121ZM209.989 116.259C208.929 116.873 208.071 116.376 208.071 115.154C208.106 114.487 208.299 113.838 208.632 113.26C208.966 112.681 209.431 112.19 209.989 111.826C211.043 111.212 211.902 111.709 211.902 112.937C211.866 113.602 211.674 114.25 211.341 114.827C211.009 115.404 210.546 115.894 209.989 116.259Z" fill="#1F8562"/>
<path d="M213.82 112.121C213.82 109.511 212.104 108.388 209.989 109.609C207.875 110.831 206.152 113.944 206.152 116.554V117.168C206.152 119.175 208.426 121.502 209.474 122.472C209.533 122.528 209.605 122.568 209.682 122.591C209.76 122.613 209.841 122.617 209.921 122.602C210 122.587 210.075 122.554 210.139 122.505C210.203 122.455 210.255 122.392 210.29 122.319C211.191 120.477 213.82 114.896 213.82 112.735V112.121ZM209.989 116.259C208.929 116.873 208.071 116.376 208.071 115.154C208.106 114.487 208.299 113.838 208.632 113.26C208.966 112.681 209.431 112.19 209.989 111.826C211.043 111.212 211.902 111.709 211.902 112.937C211.866 113.602 211.674 114.25 211.341 114.827C211.009 115.404 210.546 115.894 209.989 116.259Z" fill="#1F8562"/>
<g opacity="0.8">
<path opacity="0.8" d="M213.82 112.121C213.82 109.511 212.104 108.388 209.989 109.609C207.875 110.831 206.152 113.944 206.152 116.554V117.168C206.152 119.175 208.426 121.502 209.474 122.472C209.533 122.528 209.605 122.568 209.682 122.591C209.76 122.613 209.841 122.617 209.921 122.602C210 122.587 210.075 122.554 210.139 122.505C210.203 122.455 210.255 122.392 210.29 122.319C211.191 120.477 213.82 114.896 213.82 112.735V112.121ZM209.989 116.259C208.929 116.873 208.071 116.376 208.071 115.154C208.106 114.487 208.299 113.838 208.632 113.26C208.966 112.681 209.431 112.19 209.989 111.826C211.043 111.212 211.902 111.709 211.902 112.937C211.866 113.602 211.674 114.25 211.341 114.827C211.009 115.404 210.546 115.894 209.989 116.259Z" fill="white"/>
</g>
<path d="M278.162 252.515V247.131L237.995 237.878V243.256C238.008 243.42 238.072 243.575 238.179 243.699L253.815 265.667C254.201 266.207 254.618 266.115 254.741 265.464L256.721 255.156C256.802 254.829 256.982 254.535 257.237 254.315C257.491 254.095 257.808 253.96 258.143 253.928L277.647 252.7C277.99 252.632 278.156 252.583 278.162 252.515Z" fill="#1F8562"/>
<path opacity="0.3" d="M278.162 252.515V247.131L237.995 237.878V243.256C238.008 243.42 238.072 243.575 238.179 243.699L253.815 265.667C254.201 266.207 254.618 266.115 254.741 265.464L256.721 255.156C256.802 254.829 256.982 254.535 257.237 254.315C257.491 254.095 257.808 253.96 258.143 253.928L277.647 252.7C277.99 252.632 278.156 252.583 278.162 252.515Z" fill="black"/>
<path opacity="0.2" d="M254.165 265.98C254.428 266.103 254.661 265.931 254.747 265.471L256.727 255.162C256.78 254.918 256.892 254.69 257.052 254.499V246.928L254.165 251.165V265.98Z" fill="black"/>
<path d="M254.747 260.08L256.727 249.801C256.808 249.474 256.988 249.181 257.243 248.961C257.498 248.741 257.814 248.606 258.149 248.573L277.659 247.346C278.315 247.303 278.327 247.143 277.659 246.989L238.626 237.694C237.983 237.54 237.774 237.853 238.161 238.394L253.797 260.362C254.208 260.853 254.624 260.73 254.747 260.08Z" fill="#1F8562"/>
</svg>
