<svg width="78" height="60" viewBox="0 0 78 60" fill="none" xmlns="http://www.w3.org/2000/svg">
<path d="M76.6113 40.26C75.9269 38.3516 74.9717 36.5515 73.775 34.915C70.9763 31.1063 65.505 26.53 55.3388 26.365H55.2525L55.1675 26.3725C48.8138 26.8475 44.4375 20.3813 40.205 14.1225C38.2288 11.2025 36.3625 8.4425 34.2638 6.2825C31.6938 3.63625 29.1263 2.3275 26.415 2.2825C18.9775 2.1575 2.52751 0.38125 2.36251 0.36375L0.13501 0.125L0.29001 2.36C0.32251 2.83625 1.18751 14.1188 9.01751 20.8763C14.55 25.6513 25.76 31.6675 30.1425 33.0663C34.9075 34.585 45.1975 35.8488 54.9538 35.8375C52.5253 38.0093 50.947 40.9729 50.5 44.2H29.1125C28.6374 40.7451 26.8684 37.5995 24.1631 35.3988C21.4578 33.1981 18.0179 32.1065 14.5386 32.3446C11.0594 32.5827 7.8003 34.1328 5.42003 36.6816C3.03976 39.2303 1.71583 42.5876 1.71583 46.075C1.71583 49.5624 3.03976 52.9197 5.42003 55.4685C7.8003 58.0172 11.0594 59.5673 14.5386 59.8054C18.0179 60.0435 21.4578 58.9519 24.1631 56.7512C26.8684 54.5505 28.6374 51.4049 29.1125 47.95H50.5C50.7692 49.913 51.4592 51.7947 52.5226 53.4665C53.5861 55.1383 54.9979 56.5607 56.6617 57.6366C58.3256 58.7125 60.202 59.4164 62.163 59.7003C64.1239 59.9842 66.123 59.8413 68.0236 59.2815C69.9242 58.7216 71.6815 57.758 73.1754 56.4564C74.6693 55.1549 75.8646 53.5461 76.6795 51.7401C77.4944 49.934 77.9097 47.9734 77.8971 45.992C77.8844 44.0107 77.4441 42.0555 76.6062 40.26H76.6113ZM15.4788 55.7125C13.5723 55.7128 11.7086 55.1476 10.1233 54.0886C8.53801 53.0296 7.30239 51.5242 6.5727 49.7629C5.84301 48.0016 5.65203 46.0635 6.0239 44.1936C6.39578 42.3238 7.3138 40.6062 8.66188 39.2581C10.01 37.9101 11.7275 36.992 13.5974 36.6202C15.4672 36.2483 17.4054 36.4393 19.1667 37.1689C20.928 37.8986 22.4333 39.1343 23.4924 40.7195C24.5514 42.3048 25.1165 44.1685 25.1163 46.075C25.1133 48.6301 24.0969 51.0797 22.2902 52.8865C20.4835 54.6932 18.0339 55.7095 15.4788 55.7125ZM37.1038 16.2225C40.0313 20.55 43.2075 25.2438 47.32 27.9263C45.2575 27.135 42.9588 25.8188 39.2713 23.7075C38.0663 23.0175 36.7525 22.265 35.2713 21.43L30.625 7.9925C32.8313 9.915 34.9275 13.0138 37.0988 16.2225H37.1038ZM30.375 18.7563C29.0175 18.05 27.6675 17.3813 26.3463 16.72C23.1725 15.14 20.1738 13.6475 17.5675 11.9488C14.9613 10.25 10.7663 7.19875 7.62501 4.6675C13.045 5.19625 21.0838 5.90875 25.9813 6.02125L30.375 18.7563ZM5.11626 7.46625C8.68626 10.3513 13.2863 13.6338 15.5225 15.0913C18.31 16.9075 21.3975 18.4475 24.6763 20.0775C25.4013 20.4383 26.1333 20.8046 26.8725 21.1763L16.5088 21.735C14.5875 20.4788 12.83 19.2075 11.4675 18.0313C7.98501 15.0263 6.11251 10.8088 5.11626 7.46625ZM22.23 25.1825L33.23 24.5888C34.7813 25.4638 36.1488 26.245 37.4 26.9638C41.7225 29.4388 44.3887 30.9638 47.0825 31.8238C40.5187 31.4038 34.49 30.5125 31.2813 29.49C29.3588 28.875 25.8863 27.2225 22.23 25.1825ZM64.14 55.7125C62.5212 55.7139 60.9281 55.3075 59.5078 54.531C58.0874 53.7544 56.8855 52.6326 56.013 51.269C55.1405 49.9055 54.6254 48.3442 54.5153 46.7292C54.4053 45.1141 54.7037 43.4973 55.3832 42.0281C56.0627 40.5588 57.1012 39.2843 58.4031 38.3221C59.7049 37.36 61.2282 36.7413 62.8322 36.523C64.4362 36.3048 66.0693 36.494 67.5809 37.0733C69.0925 37.6525 70.4339 38.6032 71.4812 39.8375C72.2376 40.8937 72.8669 42.0353 73.3562 43.2388C73.7992 44.6802 73.8978 46.2054 73.644 47.6919C73.3903 49.1783 72.7913 50.5845 71.8953 51.7974C70.9992 53.0103 69.8311 53.996 68.4849 54.6753C67.1386 55.3546 65.6517 55.7086 64.1438 55.7088L64.14 55.7125Z" fill="#F7FDFB"/>
</svg>
