<svg width="16" height="16" viewBox="0 0 16 16" fill="none" xmlns="http://www.w3.org/2000/svg">
<path d="M15 8.00016C15 11.6821 12.0152 14.6668 8.33332 14.6668C4.65142 14.6668 1.66666 11.6821 1.66666 8.00016C1.66666 4.31826 4.65142 1.3335 8.33332 1.3335C12.0152 1.3335 15 4.31826 15 8.00016Z" fill="#1F8562"/>
<path d="M12.9999 8.00016C12.9999 10.5775 10.9106 12.6668 8.33324 12.6668C5.75591 12.6668 3.66658 10.5775 3.66658 8.00016C3.66658 5.42283 5.75591 3.33349 8.33324 3.33349C10.9106 3.33349 12.9999 5.42283 12.9999 8.00016Z" fill="#FAFAFA"/>
<path d="M10.9999 8.00016C10.9999 9.47292 9.806 10.6668 8.33324 10.6668C6.86048 10.6668 5.66658 9.47292 5.66658 8.00016C5.66658 6.5274 6.86048 5.33349 8.33324 5.33349C9.806 5.33349 10.9999 6.5274 10.9999 8.00016Z" fill="#1F8562"/>
</svg>
