<svg width="12" height="12" viewBox="0 0 12 12" fill="none" xmlns="http://www.w3.org/2000/svg">
<g clip-path="url(#clip0_843_15465)">
<path d="M6.31199 0.167447C6.27774 0.116088 6.23135 0.0739775 6.17692 0.0448523C6.12249 0.0157271 6.06172 0.000488281 5.99999 0.000488281C5.93826 0.000488281 5.87748 0.0157271 5.82306 0.0448523C5.76863 0.0739775 5.72223 0.116088 5.68799 0.167447L3.43799 3.54245C3.40041 3.59892 3.37885 3.66452 3.37561 3.73228C3.37237 3.80003 3.38757 3.8674 3.41958 3.9272C3.4516 3.987 3.49924 4.03699 3.55742 4.07186C3.6156 4.10673 3.68216 4.12516 3.74999 4.1252H3.82349L2.30699 6.55145C2.27151 6.60821 2.25187 6.67344 2.25012 6.74035C2.24836 6.80727 2.26455 6.87344 2.297 6.93199C2.32945 6.99053 2.37698 7.03933 2.43465 7.0733C2.49233 7.10728 2.55805 7.1252 2.62499 7.1252H2.76824L1.53974 9.5822C1.51109 9.63937 1.49754 9.70292 1.50037 9.7668C1.5032 9.83069 1.52232 9.89279 1.55592 9.9472C1.58951 10.0016 1.63646 10.0465 1.69231 10.0777C1.74815 10.1088 1.81104 10.1252 1.87499 10.1252H5.24999V12.0002H6.74999V10.1252H10.125C10.1889 10.1252 10.2518 10.1088 10.3077 10.0777C10.3635 10.0465 10.4105 10.0016 10.4441 9.9472C10.4777 9.89279 10.4968 9.83069 10.4996 9.7668C10.5024 9.70292 10.4889 9.63937 10.4602 9.5822L9.23249 7.1252H9.37574C9.44268 7.1252 9.5084 7.10728 9.56607 7.0733C9.62375 7.03933 9.67128 6.99053 9.70373 6.93199C9.73618 6.87344 9.75237 6.80727 9.75061 6.74035C9.74885 6.67344 9.72922 6.60821 9.69374 6.55145L8.17649 4.1252H8.24999C8.31782 4.12516 8.38437 4.10673 8.44256 4.07186C8.50074 4.03699 8.54838 3.987 8.58039 3.9272C8.61241 3.8674 8.62761 3.80003 8.62437 3.73228C8.62112 3.66452 8.59957 3.59892 8.56199 3.54245L6.31199 0.167447ZM4.82774 3.5687C4.79534 3.51013 4.74787 3.4613 4.69024 3.42728C4.6326 3.39325 4.56691 3.37527 4.49999 3.3752H4.45049L5.99999 1.05095L7.54949 3.3752H7.49999C7.43305 3.3752 7.36733 3.39312 7.30965 3.42709C7.25198 3.46107 7.20445 3.50986 7.172 3.56841C7.13955 3.62696 7.12336 3.69312 7.12512 3.76004C7.12687 3.82696 7.14651 3.89218 7.18199 3.94895L8.69849 6.3752H8.62499C8.56104 6.3752 8.49815 6.39155 8.44231 6.42271C8.38646 6.45386 8.33951 6.49878 8.30592 6.55319C8.27232 6.60761 8.2532 6.66971 8.25037 6.73359C8.24754 6.79748 8.26109 6.86103 8.28974 6.9182L9.51749 9.3752H2.48174L3.71024 6.9182C3.73889 6.86103 3.75244 6.79748 3.74961 6.73359C3.74678 6.66971 3.72765 6.60761 3.69406 6.55319C3.66046 6.49878 3.61351 6.45386 3.55767 6.42271C3.50182 6.39155 3.43894 6.3752 3.37499 6.3752H3.30149L4.81799 3.94895C4.85337 3.89219 4.87294 3.82701 4.87465 3.76015C4.87637 3.69329 4.86017 3.62719 4.82774 3.5687Z" fill="#9E9E9E"/>
</g>
<defs>
<clipPath id="clip0_843_15465">
<rect width="12" height="12" fill="white"/>
</clipPath>
</defs>
</svg>
