<svg width="2456" height="1024" viewBox="0 0 2456 1024" fill="none" xmlns="http://www.w3.org/2000/svg">
<path d="M812.89 594.08C807.415 578.813 799.774 564.412 790.2 551.32C767.81 520.85 724.04 484.24 642.71 482.92H642.02L641.34 482.98C590.51 486.78 555.5 435.05 521.64 384.98C505.83 361.62 490.9 339.54 474.11 322.26C453.55 301.09 433.01 290.62 411.32 290.26C351.82 289.26 220.22 275.05 218.9 274.91L201.08 273L202.32 290.88C202.58 294.69 209.5 384.95 272.14 439.01C316.4 477.21 406.08 525.34 441.14 536.53C479.26 548.68 561.58 558.79 639.63 558.7C620.203 576.075 607.576 599.783 604 625.6H432.9C429.099 597.961 414.947 572.796 393.305 555.19C371.662 537.585 344.143 528.852 316.309 530.757C288.475 532.662 262.402 545.062 243.36 565.452C224.318 585.842 213.727 612.701 213.727 640.6C213.727 668.499 224.318 695.358 243.36 715.748C262.402 736.138 288.475 748.538 316.309 750.443C344.143 752.348 371.662 743.615 393.305 726.01C414.947 708.404 429.099 683.239 432.9 655.6H604C606.154 671.304 611.673 686.357 620.181 699.732C628.689 713.106 639.984 724.486 653.294 733.093C666.604 741.7 681.616 747.332 697.304 749.603C712.991 751.874 728.984 750.731 744.189 746.252C759.394 741.773 773.452 734.064 785.404 723.651C797.355 713.239 806.917 700.369 813.436 685.921C819.955 671.472 823.278 655.787 823.177 639.936C823.075 624.086 819.553 608.444 812.85 594.08H812.89ZM323.83 717.7C308.578 717.702 293.668 713.181 280.986 704.709C268.304 696.237 258.419 684.194 252.582 670.103C246.744 656.013 245.216 640.508 248.191 625.549C251.166 610.59 258.51 596.85 269.295 586.065C280.08 575.28 293.82 567.936 308.779 564.961C323.738 561.986 339.243 563.514 353.333 569.352C367.424 575.189 379.467 585.074 387.939 597.756C396.411 610.438 400.932 625.348 400.93 640.6C400.906 661.041 392.776 680.638 378.322 695.092C363.868 709.546 344.271 717.676 323.83 717.7ZM496.83 401.78C520.25 436.4 545.66 473.95 578.56 495.41C562.06 489.08 543.67 478.55 514.17 461.66C504.53 456.14 494.02 450.12 482.17 443.44L445 335.94C462.65 351.32 479.42 376.11 496.79 401.78H496.83ZM443 422.05C432.14 416.4 421.34 411.05 410.77 405.76C385.38 393.12 361.39 381.18 340.54 367.59C319.69 354 286.13 329.59 261 309.34C304.36 313.57 368.67 319.27 407.85 320.17L443 422.05ZM240.93 331.73C269.49 354.81 306.29 381.07 324.18 392.73C346.48 407.26 371.18 419.58 397.41 432.62C403.21 435.507 409.067 438.437 414.98 441.41L332.07 445.88C316.7 435.83 302.64 425.66 291.74 416.25C263.88 392.21 248.9 358.47 240.93 331.73ZM377.84 473.46L465.84 468.71C478.25 475.71 489.19 481.96 499.2 487.71C533.78 507.51 555.11 519.71 576.66 526.59C524.15 523.23 475.92 516.1 450.25 507.92C434.87 503 407.09 489.78 377.84 473.46ZM713.12 717.7C700.17 717.711 687.425 714.46 676.062 708.248C664.699 702.035 655.084 693.06 648.104 682.152C641.124 671.244 637.003 658.754 636.123 645.833C635.242 632.913 637.63 619.979 643.066 608.224C648.501 596.47 656.81 586.274 667.225 578.577C677.64 570.88 689.825 565.93 702.657 564.184C715.49 562.438 728.555 563.952 740.648 568.586C752.74 573.22 763.471 580.826 771.85 590.7C777.901 599.15 782.935 608.283 786.85 617.91C790.394 629.441 791.182 641.644 789.152 653.535C787.122 665.427 782.331 676.676 775.162 686.379C767.994 696.082 758.649 703.968 747.879 709.402C737.109 714.837 725.214 717.669 713.15 717.67L713.12 717.7Z" fill="white"/>
<rect width="1024" height="1024" rx="100" stroke="white"/>
<path d="M1149 680.5C1140.67 680.5 1134.17 678.167 1129.5 673.5C1125.17 668.833 1123 662.333 1123 654V368H1017C1010 368 1004.5 366.167 1000.5 362.5C996.5 358.5 994.5 353 994.5 346C994.5 339 996.5 333.667 1000.5 330C1004.5 326.333 1010 324.5 1017 324.5H1280.5C1287.83 324.5 1293.5 326.333 1297.5 330C1301.5 333.667 1303.5 339 1303.5 346C1303.5 353 1301.5 358.5 1297.5 362.5C1293.5 366.167 1287.83 368 1280.5 368H1174.5V654C1174.5 662.333 1172.33 668.833 1168 673.5C1164 678.167 1157.67 680.5 1149 680.5ZM1324.09 680.5C1315.76 680.5 1309.42 678.333 1305.09 674C1300.76 669.333 1298.59 663 1298.59 655V455C1298.59 446.667 1300.76 440.333 1305.09 436C1309.42 431.667 1315.42 429.5 1323.09 429.5C1331.09 429.5 1337.09 431.667 1341.09 436C1345.42 440.333 1347.59 446.667 1347.59 455V491.5H1342.59C1347.92 471.5 1357.76 456.333 1372.09 446C1386.42 435.667 1404.76 429.667 1427.09 428C1433.09 427.667 1437.76 429.167 1441.09 432.5C1444.76 435.833 1446.76 441 1447.09 448C1447.76 455 1446.26 460.667 1442.59 465C1438.92 469 1433.26 471.333 1425.59 472L1416.09 473C1394.42 475 1377.92 481.833 1366.59 493.5C1355.26 505.167 1349.59 521.167 1349.59 541.5V655C1349.59 663 1347.42 669.333 1343.09 674C1339.09 678.333 1332.76 680.5 1324.09 680.5ZM1560.67 681.5C1543.67 681.5 1528.34 678.167 1514.67 671.5C1501.34 664.833 1490.84 655.833 1483.17 644.5C1475.51 633.167 1471.67 620.333 1471.67 606C1471.67 588 1476.17 573.833 1485.17 563.5C1494.51 552.833 1509.67 545.333 1530.67 541C1552.01 536.333 1580.67 534 1616.67 534H1640.17V565H1617.17C1593.17 565 1574.17 566.167 1560.17 568.5C1546.17 570.833 1536.17 574.833 1530.17 580.5C1524.51 585.833 1521.67 593.333 1521.67 603C1521.67 615.667 1526.01 626 1534.67 634C1543.34 641.667 1555.34 645.5 1570.67 645.5C1583.01 645.5 1593.84 642.667 1603.17 637C1612.51 631 1619.84 623 1625.17 613C1630.84 603 1633.67 591.5 1633.67 578.5V521C1633.67 502 1629.67 488.333 1621.67 480C1613.67 471.667 1600.51 467.5 1582.17 467.5C1571.51 467.5 1560.34 468.833 1548.67 471.5C1537.34 474.167 1525.51 478.667 1513.17 485C1507.51 487.667 1502.67 488.5 1498.67 487.5C1494.67 486.5 1491.51 484.333 1489.17 481C1486.84 477.333 1485.51 473.5 1485.17 469.5C1485.17 465.167 1486.17 461 1488.17 457C1490.51 453 1494.34 450 1499.67 448C1514.34 441 1528.84 436 1543.17 433C1557.51 430 1571.01 428.5 1583.67 428.5C1606.01 428.5 1624.34 432 1638.67 439C1653.34 446 1664.17 456.667 1671.17 471C1678.17 485.333 1681.67 503.833 1681.67 526.5V655C1681.67 663 1679.67 669.333 1675.67 674C1671.67 678.333 1665.84 680.5 1658.17 680.5C1650.84 680.5 1645.01 678.333 1640.67 674C1636.34 669.333 1634.17 663 1634.17 655V622.5H1638.67C1636.01 634.833 1631.01 645.5 1623.67 654.5C1616.67 663.167 1607.84 669.833 1597.17 674.5C1586.51 679.167 1574.34 681.5 1560.67 681.5ZM1858.73 681.5C1833.73 681.5 1812.06 676.333 1793.73 666C1775.73 655.333 1761.73 640.5 1751.73 621.5C1741.73 602.167 1736.73 579.5 1736.73 553.5C1736.73 534.167 1739.56 516.833 1745.23 501.5C1750.89 485.833 1758.89 472.667 1769.23 462C1779.89 451.333 1792.73 443.167 1807.73 437.5C1823.06 431.5 1840.06 428.5 1858.73 428.5C1870.39 428.5 1882.56 430.333 1895.23 434C1908.23 437.333 1920.23 443 1931.23 451C1935.56 453.667 1938.23 457 1939.23 461C1940.56 464.667 1940.73 468.5 1939.73 472.5C1939.06 476.5 1937.23 480 1934.23 483C1931.56 485.667 1928.23 487.333 1924.23 488C1920.23 488.333 1915.89 487.167 1911.23 484.5C1903.23 478.833 1895.06 474.833 1886.73 472.5C1878.39 469.833 1870.39 468.5 1862.73 468.5C1850.73 468.5 1840.06 470.5 1830.73 474.5C1821.73 478.167 1814.06 483.667 1807.73 491C1801.39 498 1796.56 506.833 1793.23 517.5C1790.23 528.167 1788.73 540.333 1788.73 554C1788.73 581.333 1795.06 602.833 1807.73 618.5C1820.73 633.833 1839.06 641.5 1862.73 641.5C1870.39 641.5 1878.39 640.333 1886.73 638C1895.06 635.667 1903.23 631.667 1911.23 626C1915.89 623.333 1920.23 622.333 1924.23 623C1928.23 623.667 1931.39 625.5 1933.73 628.5C1936.39 631.167 1938.06 634.5 1938.73 638.5C1939.73 642.167 1939.56 646 1938.23 650C1936.89 654 1934.06 657.333 1929.73 660C1919.06 667.667 1907.39 673.167 1894.73 676.5C1882.39 679.833 1870.39 681.5 1858.73 681.5ZM2087.24 681.5C2062.24 681.5 2040.58 676.333 2022.24 666C2004.24 655.333 1990.24 640.5 1980.24 621.5C1970.24 602.167 1965.24 579.5 1965.24 553.5C1965.24 534.167 1968.08 516.833 1973.74 501.5C1979.41 485.833 1987.41 472.667 1997.74 462C2008.41 451.333 2021.24 443.167 2036.24 437.5C2051.58 431.5 2068.58 428.5 2087.24 428.5C2098.91 428.5 2111.08 430.333 2123.74 434C2136.74 437.333 2148.74 443 2159.74 451C2164.08 453.667 2166.74 457 2167.74 461C2169.08 464.667 2169.24 468.5 2168.24 472.5C2167.58 476.5 2165.74 480 2162.74 483C2160.08 485.667 2156.74 487.333 2152.74 488C2148.74 488.333 2144.41 487.167 2139.74 484.5C2131.74 478.833 2123.58 474.833 2115.24 472.5C2106.91 469.833 2098.91 468.5 2091.24 468.5C2079.24 468.5 2068.58 470.5 2059.24 474.5C2050.24 478.167 2042.58 483.667 2036.24 491C2029.91 498 2025.08 506.833 2021.74 517.5C2018.74 528.167 2017.24 540.333 2017.24 554C2017.24 581.333 2023.58 602.833 2036.24 618.5C2049.24 633.833 2067.58 641.5 2091.24 641.5C2098.91 641.5 2106.91 640.333 2115.24 638C2123.58 635.667 2131.74 631.667 2139.74 626C2144.41 623.333 2148.74 622.333 2152.74 623C2156.74 623.667 2159.91 625.5 2162.24 628.5C2164.91 631.167 2166.58 634.5 2167.24 638.5C2168.24 642.167 2168.08 646 2166.74 650C2165.41 654 2162.58 657.333 2158.24 660C2147.58 667.667 2135.91 673.167 2123.24 676.5C2110.91 679.833 2098.91 681.5 2087.24 681.5ZM2314.26 681.5C2289.59 681.5 2268.26 676.333 2250.26 666C2232.59 655.667 2218.76 641 2208.76 622C2198.76 603 2193.76 580.667 2193.76 555C2193.76 535.333 2196.59 517.833 2202.26 502.5C2207.92 487.167 2215.92 474 2226.26 463C2236.92 451.667 2249.59 443.167 2264.26 437.5C2279.26 431.5 2295.92 428.5 2314.26 428.5C2338.59 428.5 2359.59 433.667 2377.26 444C2395.26 454.333 2409.26 469 2419.26 488C2429.26 506.667 2434.26 529 2434.26 555C2434.26 574.333 2431.42 591.833 2425.76 607.5C2420.09 623.167 2411.92 636.5 2401.26 647.5C2390.92 658.5 2378.26 667 2363.26 673C2348.59 678.667 2332.26 681.5 2314.26 681.5ZM2314.26 642.5C2327.92 642.5 2339.92 639.167 2350.26 632.5C2360.59 625.833 2368.59 616 2374.26 603C2380.26 590 2383.26 574 2383.26 555C2383.26 526.333 2376.92 504.667 2364.26 490C2351.59 475.333 2334.92 468 2314.26 468C2300.26 468 2288.09 471.333 2277.76 478C2267.42 484.333 2259.26 494 2253.26 507C2247.59 520 2244.76 536 2244.76 555C2244.76 583.333 2251.09 605 2263.76 620C2276.42 635 2293.26 642.5 2314.26 642.5Z" fill="white"/>
</svg>
