<svg width="30" height="40" viewBox="0 0 30 40" fill="none" xmlns="http://www.w3.org/2000/svg">
<path d="M16.04 0.557385C15.9258 0.386188 15.7712 0.245819 15.5897 0.148735C15.4083 0.0516505 15.2057 0.000854492 15 0.000854492C14.7942 0.000854492 14.5916 0.0516505 14.4102 0.148735C14.2288 0.245819 14.0741 0.386188 13.96 0.557385L6.45996 11.8074C6.3347 11.9956 6.26284 12.2143 6.25203 12.4402C6.24123 12.666 6.29188 12.8906 6.39861 13.0899C6.50533 13.2892 6.66412 13.4559 6.85807 13.5721C7.05201 13.6883 7.27385 13.7498 7.49996 13.7499H7.74496L2.68996 21.8374C2.5717 22.0266 2.50624 22.244 2.50039 22.4671C2.49453 22.6901 2.54849 22.9107 2.65665 23.1058C2.76482 23.301 2.92326 23.4637 3.11551 23.5769C3.30776 23.6902 3.52683 23.7499 3.74996 23.7499H4.22746L0.132458 31.9399C0.0369626 32.1305 -0.00821266 32.3423 0.00122628 32.5552C0.0106652 32.7682 0.0744047 32.9752 0.186387 33.1566C0.298369 33.3379 0.454874 33.4877 0.641027 33.5915C0.827181 33.6954 1.0368 33.7499 1.24996 33.7499H12.5V39.9999H17.5V33.7499H28.75C28.9631 33.7499 29.1727 33.6954 29.3589 33.5915C29.545 33.4877 29.7016 33.3379 29.8135 33.1566C29.9255 32.9752 29.9893 32.7682 29.9987 32.5552C30.0081 32.3423 29.963 32.1305 29.8675 31.9399L25.775 23.7499H26.2525C26.4756 23.7499 26.6947 23.6902 26.8869 23.5769C27.0792 23.4637 27.2376 23.301 27.3458 23.1058C27.4539 22.9107 27.5079 22.6901 27.502 22.4671C27.4962 22.244 27.4307 22.0266 27.3125 21.8374L22.255 13.7499H22.5C22.7261 13.7498 22.9479 13.6883 23.1419 13.5721C23.3358 13.4559 23.4946 13.2892 23.6013 13.0899C23.708 12.8906 23.7587 12.666 23.7479 12.4402C23.7371 12.2143 23.6652 11.9956 23.54 11.8074L16.04 0.557385Z" fill="#F7FDFB"/>
</svg>
