<svg xmlns="http://www.w3.org/2000/svg" viewBox="0 0 500 500"><g id="freepik--Floor--inject-42"><path d="M416,241.75c-92.27-53.27-241.38-53.27-333,0S-8.25,381.4,84,434.67s241.38,53.27,333.05,0S508.25,295,416,241.75Z" style="fill:#f5f5f5"></path></g><g id="freepik--Shadows--inject-42"><polygon points="265.48 324.31 329.06 287.6 273.55 255.34 209.97 292.05 265.48 324.31" style="fill:#e0e0e0"></polygon><path d="M387.74,383.7c-21.53-12.43-56.32-12.43-77.71,0s-21.27,32.58.25,45,56.32,12.43,77.71,0S409.27,396.13,387.74,383.7Z" style="fill:#e0e0e0"></path><path d="M68.71,415.88,78.17,421a6.11,6.11,0,0,0,6-.09l133.29-77.3a3.07,3.07,0,0,0-.08-5.36l-12.48-6.75-136.27,79A3.08,3.08,0,0,0,68.71,415.88Z" style="fill:#e0e0e0"></path><path d="M441,343c-6.14-3.55-16.06-3.55-22.15,0s-6.07,9.29.07,12.83,16.05,3.54,22.15,0S447.1,346.55,441,343Z" style="fill:#e0e0e0"></path></g><g id="freepik--Plant--inject-42"><path d="M444.78,322.62l-14.86.43-14.86-.43c-.64,10,1.32,20.26,4,25.25h0a6.83,6.83,0,0,0,2.94,3c4.39,2.53,11.47,2.53,15.83,0a6.63,6.63,0,0,0,2.94-3.07C443.48,342.77,445.42,332.6,444.78,322.62Z" style="fill:#fff"></path><path d="M440.39,316.53c5.82,3.36,5.85,8.81.07,12.18s-15.19,3.36-21,0-5.86-8.82-.07-12.18S434.57,313.17,440.39,316.53Z" style="fill:#ebebeb"></path><path d="M438.09,317.87c4.54,2.62,4.57,6.88.05,9.5s-11.85,2.62-16.39,0-4.57-6.88-.05-9.5S433.55,315.25,438.09,317.87Z" style="fill:#e0e0e0"></path><g style="opacity:0.15"><path d="M438.09,317.87c4.54,2.62,4.57,6.88.05,9.5s-11.85,2.62-16.39,0-4.57-6.88-.05-9.5S433.55,315.25,438.09,317.87Z"></path></g><path d="M454.35,259.21c-33.49,11-33.79,33.37-26.24,49.32,1.9,3.23,7.67,5,12.68-14.87l-8.8,1.12,10.25-5.19,2.67-8-8.55.63,10.85-4.56A159.16,159.16,0,0,1,454.35,259.21Z" style="fill:#1F8562"></path><path d="M454.35,259.21c-33.49,11-33.79,33.37-26.24,49.32,1.9,3.23,7.67,5,12.68-14.87l-8.8,1.12,10.25-5.19,2.67-8-8.55.63,10.85-4.56A159.16,159.16,0,0,1,454.35,259.21Z" style="opacity:0.2"></path><path d="M454.35,259.21c-33.49,11-33.79,33.37-26.24,49.32,1.9,3.23,7.67,5,12.68-14.87l-8.8,1.12,10.25-5.19,2.67-8-8.55.63,10.85-4.56A159.16,159.16,0,0,1,454.35,259.21Z" style="fill:#fff;opacity:0.2"></path><path d="M444.88,264.82c-17.66,13.4-19.25,28.76-14.27,44.8C428.85,295.5,426.94,281.22,444.88,264.82Z" style="fill:#fff"></path><path d="M397.63,282c33,4.65,37,25.46,32.64,41.57-1.24,3.32-6.32,5.9-14.29-11.75l8.38-.41L414,308.25l-3.8-7,8.07-.83L407.36,298A151.17,151.17,0,0,0,397.63,282Z" style="fill:#1F8562"></path><path d="M397.63,282c33,4.65,37,25.46,32.64,41.57-1.24,3.32-6.32,5.9-14.29-11.75l8.38-.41L414,308.25l-3.8-7,8.07-.83L407.36,298A151.17,151.17,0,0,0,397.63,282Z" style="fill:#fff;opacity:0.2"></path><path d="M397.63,282c33,4.65,37,25.46,32.64,41.57-1.24,3.32-6.32,5.9-14.29-11.75l8.38-.41L414,308.25l-3.8-7,8.07-.83L407.36,298A151.17,151.17,0,0,0,397.63,282Z" style="opacity:0.1"></path><path d="M407.39,285.61c18.67,9.55,22.71,23.6,20.72,39.36C427.41,311.53,426.81,297.91,407.39,285.61Z" style="fill:#fff"></path><path d="M464,289.77c-30.27.49-36.21,18.8-34.06,33.81.74,3.14,5,6,14.18-9l-7.5-1.3,9.73-1.66,4.21-5.86-7.18-1.65,10.06-1A136.86,136.86,0,0,1,464,289.77Z" style="fill:#1F8562"></path><path d="M454.81,292c-17.89,6.52-23.11,18.72-23.09,33.16C433.86,313.08,435.93,300.87,454.81,292Z" style="fill:#fff"></path><path d="M464,289.77c-30.27.49-36.21,18.8-34.06,33.81.74,3.14,5,6,14.18-9l-7.5-1.3,9.73-1.66,4.21-5.86-7.18-1.65,10.06-1A136.86,136.86,0,0,1,464,289.77Z" style="fill:#fff;opacity:0.2"></path></g><g id="freepik--side-table--inject-42"><polygon points="314.05 285.89 318.96 288.74 318.94 283.07 314.05 285.89" style="fill:#fff"></polygon><polygon points="318.82 255.6 318.82 255.54 318.82 255.54 318.82 255.54 318.82 255.6" style="fill:#787878"></polygon><rect x="294.95" y="241.76" height="55.13" style="fill:#cfcfcf"></rect><polygon points="318.75 227.99 271 255.55 271 255.55 318.75 227.99" style="fill:#cfcfcf"></polygon><path d="M318.94,283.07l0,5.67,5.11-2.95-.19-66.7-58.05,33.52.19,66.7,5.11-2.95,0-5.68,42.94-24.79ZM271,255.55h0L318.74,228l.07,21.63-47.75,27.57Zm.08,27.56h0l47.74-27.57h0v.06l.06,21.57-47.74,27.56Z" style="fill:#fff"></path><polygon points="318.88 277.17 318.82 255.6 318.82 255.54 271.08 283.11 271.08 283.11 271.14 304.74 318.88 277.17" style="fill:#fff"></polygon><polygon points="318.81 249.62 318.75 227.99 271 255.55 271 255.55 271.06 277.19 318.81 249.62" style="fill:#fff"></polygon><polygon points="265.83 252.61 215.15 223.16 215.34 289.86 266.02 319.31 265.83 252.61" style="fill:#fff"></polygon><polygon points="265.83 252.61 323.88 219.09 273.2 189.64 215.15 223.16 265.83 252.61" style="fill:#fff"></polygon><polygon points="314.05 285.89 318.96 288.74 318.94 283.07 314.05 285.89" style="opacity:0.30000000000000004"></polygon><polygon points="318.82 255.6 318.82 255.54 318.82 255.54 318.82 255.54 318.82 255.6" style="fill:#787878"></polygon><rect x="294.95" y="241.76" height="55.13" style="fill:#cfcfcf"></rect><polygon points="318.75 227.99 271 255.55 271 255.55 318.75 227.99" style="fill:#cfcfcf"></polygon><path d="M318.94,283.07l0,5.67,5.11-2.95-.19-66.7-58.05,33.52.19,66.7,5.11-2.95,0-5.68,42.94-24.79ZM271,255.55h0L318.74,228l.07,21.63-47.75,27.57Zm.08,27.56h0l47.74-27.57h0v.06l.06,21.57-47.74,27.56Z" style="opacity:0.2"></path><polygon points="318.88 277.17 318.82 255.6 318.82 255.54 271.08 283.11 271.08 283.11 271.14 304.74 318.88 277.17" style="opacity:0.1"></polygon><polygon points="318.81 249.62 318.75 227.99 271 255.55 271 255.55 271.06 277.19 318.81 249.62" style="opacity:0.1"></polygon><polygon points="303.18 245.02 303.16 242.03 286.63 251.58 286.63 251.58 286.65 254.57 303.18 245.02" style="opacity:0.30000000000000004"></polygon><polygon points="303.18 272.19 303.16 269.2 286.63 278.75 286.63 278.75 286.65 281.73 303.18 272.19" style="opacity:0.30000000000000004"></polygon><polygon points="265.83 252.61 215.15 223.16 215.34 289.86 266.02 319.31 265.83 252.61" style="opacity:0.30000000000000004"></polygon><polygon points="265.83 252.61 323.88 219.09 273.2 189.64 215.15 223.16 265.83 252.61" style="opacity:0.1"></polygon><path d="M258.83,216.19c6-3.48,15.74-3.48,21.72,0s5.94,9.1-.07,12.58-15.74,3.47-21.72,0S252.82,219.66,258.83,216.19Z" style="opacity:0.05"></path><path d="M253.62,194.33l16.5.48,16.51-.48c.71,11.15-1.47,22.51-4.47,28h0a7.52,7.52,0,0,1-3.27,3.33c-4.87,2.81-12.74,2.81-17.58,0A7.32,7.32,0,0,1,258,222.3C255.06,216.72,252.91,205.42,253.62,194.33Z" style="fill:#fff"></path><path d="M258.49,187.57c-6.47,3.73-6.5,9.79-.08,13.52s16.88,3.73,23.34,0,6.5-9.79.08-13.52S265,183.84,258.49,187.57Z" style="fill:#fff"></path><g style="opacity:0.1"><path d="M258.49,187.57c-6.47,3.73-6.5,9.79-.08,13.52s16.88,3.73,23.34,0,6.5-9.79.08-13.52S265,183.84,258.49,187.57Z"></path></g><path d="M261.05,189.06C256,192,256,196.69,261,199.6s13.16,2.92,18.21,0,5.07-7.63.06-10.54S266.09,186.14,261.05,189.06Z" style="fill:#fff"></path><path d="M271.5,194.8a10.87,10.87,0,0,1-9.68,2.2,10.16,10.16,0,0,1-6.79-6.86,19.8,19.8,0,0,0,5.3-3.68,13.6,13.6,0,0,0-7.5.27,7.67,7.67,0,0,1-.57-7.16,13.15,13.15,0,0,1,8.95-.62,11.86,11.86,0,0,0-9-2.85,34.61,34.61,0,0,1,2.18-13.9c6.15.32,12.12,3,14.13,4.88a22.61,22.61,0,0,1-.68,6.54,5.3,5.3,0,0,0,2.86-4.23c3.85,1,5.49,2.89,6.1,4.35a16.18,16.18,0,0,1-3.65,7.39c3.62-1.09,5.08-5.12,5.08-5.12C281.74,184.44,281.06,194,271.5,194.8Z" style="fill:#fff"></path><path d="M271.5,194.8a10.87,10.87,0,0,1-9.68,2.2,10.16,10.16,0,0,1-6.79-6.86,19.8,19.8,0,0,0,5.3-3.68,13.6,13.6,0,0,0-7.5.27,7.67,7.67,0,0,1-.57-7.16,13.15,13.15,0,0,1,8.95-.62,11.86,11.86,0,0,0-9-2.85,34.61,34.61,0,0,1,2.18-13.9c6.15.32,12.12,3,14.13,4.88a22.61,22.61,0,0,1-.68,6.54,5.3,5.3,0,0,0,2.86-4.23c3.85,1,5.49,2.89,6.1,4.35a16.18,16.18,0,0,1-3.65,7.39c3.62-1.09,5.08-5.12,5.08-5.12C281.74,184.44,281.06,194,271.5,194.8Z" style="opacity:0.2"></path><path d="M271.5,194.8a10.87,10.87,0,0,1-9.68,2.2,10.16,10.16,0,0,1-6.79-6.86,19.8,19.8,0,0,0,5.3-3.68,13.6,13.6,0,0,0-7.5.27,7.67,7.67,0,0,1-.57-7.16,13.15,13.15,0,0,1,8.95-.62,11.86,11.86,0,0,0-9-2.85,34.61,34.61,0,0,1,2.18-13.9c6.15.32,12.12,3,14.13,4.88a22.61,22.61,0,0,1-.68,6.54,5.3,5.3,0,0,0,2.86-4.23c3.85,1,5.49,2.89,6.1,4.35a16.18,16.18,0,0,1-3.65,7.39c3.62-1.09,5.08-5.12,5.08-5.12C281.74,184.44,281.06,194,271.5,194.8Z" style="opacity:0.2"></path><g style="opacity:0.1"><path d="M271.71,195.71h0a.36.36,0,0,0,.33-.38c-.59-7.77-5-20.6-15.64-31.18a.35.35,0,0,0-.5.5c10.46,10.44,14.85,23.08,15.43,30.73A.35.35,0,0,0,271.71,195.71Z" style="fill:#f5f5f5"></path></g><path d="M268.81,199a10.11,10.11,0,0,0,15.8-4.16,17.26,17.26,0,0,1-4.79-3.25,13.44,13.44,0,0,1,7.09.21,6.63,6.63,0,0,0,1-6.39,13.1,13.1,0,0,0-8.45-.5,12.46,12.46,0,0,1,8.76-2.59A28.13,28.13,0,0,0,287,169.87c-5.87.35-11.67,2.78-13.69,4.5a18.68,18.68,0,0,0,.24,5.81,4.26,4.26,0,0,1-2.43-3.74c-3.67.89-5.33,2.61-6,3.91a12.8,12.8,0,0,0,3,6.52c-3.32-1-4.44-4.5-4.44-4.5C259.87,189.83,259.93,198.24,268.81,199Z" style="fill:#fff"></path><path d="M268.81,199a10.11,10.11,0,0,0,15.8-4.16,17.26,17.26,0,0,1-4.79-3.25,13.44,13.44,0,0,1,7.09.21,6.63,6.63,0,0,0,1-6.39,13.1,13.1,0,0,0-8.45-.5,12.46,12.46,0,0,1,8.76-2.59A28.13,28.13,0,0,0,287,169.87c-5.87.35-11.67,2.78-13.69,4.5a18.68,18.68,0,0,0,.24,5.81,4.26,4.26,0,0,1-2.43-3.74c-3.67.89-5.33,2.61-6,3.91a12.8,12.8,0,0,0,3,6.52c-3.32-1-4.44-4.5-4.44-4.5C259.87,189.83,259.93,198.24,268.81,199Z" style="opacity:0.30000000000000004"></path><g style="opacity:0.1"><path d="M268.57,199.8a.35.35,0,0,0,.35-.3c1-6.77,5.93-18,16.46-27.38a.35.35,0,1,0-.47-.53c-10.68,9.51-15.67,20.92-16.69,27.81a.35.35,0,0,0,.3.4Z" style="fill:#fff"></path></g></g><g id="freepik--Device--inject-42"><path d="M216.35,49h0c-.91-3.19-7.38-9.26-13.83-9.13a6,6,0,0,0-1.81.35L75.48,111.45a12.13,12.13,0,0,0-6.06,10.41v270.9c0,6.91,8,13.49,15.43,10.32,0,0,0,0,.05,0a3.26,3.26,0,0,0,.48-.2l125.25-71.37a12,12,0,0,0,6-10.41V50.28A2.81,2.81,0,0,0,216.35,49Z" style="fill:#1F8562"></path><path d="M216.35,49h0c-.91-3.19-7.38-9.26-13.83-9.13a6,6,0,0,0-1.81.35L75.48,111.45a12.13,12.13,0,0,0-6.06,10.41v270.9c0,6.91,8,13.49,15.43,10.32,0,0,0,0,.05,0a3.26,3.26,0,0,0,.48-.2l125.25-71.37a12,12,0,0,0,6-10.41V50.28A2.81,2.81,0,0,0,216.35,49Z" style="opacity:0.30000000000000004"></path><path d="M86.89,150.49a6,6,0,0,1,3-5.2L206.21,79.13a3,3,0,0,1,4.47,2.6V300.18a6,6,0,0,1-3,5.2L91.37,371.65a3,3,0,0,1-4.48-2.6Z" style="fill:#455a64"></path><path d="M69.42,121.86v270.9c0,6.91,8,13.49,15.43,10.32,0,0,0,0,.05,0a3,3,0,0,1-4-2.8V129.35a12,12,0,0,1,2-6.62l-12.26-6.12A11.89,11.89,0,0,0,69.42,121.86Z" style="opacity:0.30000000000000004"></path><path d="M202.53,39.84a6,6,0,0,0-1.81.35L75.48,111.45a11.93,11.93,0,0,0-4.82,5.16l12.26,6.12a12.07,12.07,0,0,1,4-3.8L212.2,47.68a3,3,0,0,1,4.15,1.3h0C215.45,45.78,209,39.71,202.53,39.84Z" style="fill:#fff;opacity:0.1"></path><path d="M164.22,92.42c.88-.51,1.61-.12,1.62.89a3.59,3.59,0,0,1-1.61,2.78l-24.57,14.18c-.88.51-1.59.08-1.59-.93a3.48,3.48,0,0,1,1.58-2.74Z" style="fill:#263238"></path><path d="M133.34,110.25c.88-.51,1.59-.11,1.59.9a3.48,3.48,0,0,1-1.58,2.76c-.88.51-1.61.1-1.61-.91A3.51,3.51,0,0,1,133.34,110.25Z" style="fill:#263238"></path><path d="M149.07,90.35c1.76-1,3.18-.2,3.18,1.81a7,7,0,0,1-3.16,5.52c-1.76,1-3.21.19-3.22-1.83A7,7,0,0,1,149.07,90.35Z" style="fill:#263238"></path><path d="M149.08,345.39c3.58-2.07,6.47-.42,6.48,3.69a14.32,14.32,0,0,1-6.44,11.24c-3.58,2.06-6.54.37-6.56-3.74A14.3,14.3,0,0,1,149.08,345.39Z" style="fill:#263238"></path></g><g id="freepik--Character--inject-42"><path d="M317.5,403.21a10.87,10.87,0,0,0,8.13,3,24.61,24.61,0,0,0,8.59-2.17c2.75-1.13,6.2-4.29,9.17-4.23a72.07,72.07,0,0,0,8.69-.6,45.35,45.35,0,0,0-1.24-11.76L337,387.07c-3.74,5.13-11,9.39-16.53,11a4.87,4.87,0,0,0-3.43,3.64.28.28,0,0,1,0,.09A6,6,0,0,0,317.5,403.21Z" style="fill:#455a64"></path><path d="M343.39,399.8c-3-.06-6.42,3.1-9.17,4.23a24.61,24.61,0,0,1-8.59,2.17,10.87,10.87,0,0,1-8.13-3,6,6,0,0,1-.48-1.41.28.28,0,0,0,0-.09,4.61,4.61,0,0,0,0,1.85,6,6,0,0,0,.48,1.41,10.87,10.87,0,0,0,8.13,3,24.61,24.61,0,0,0,8.59-2.17c2.75-1.13,6.2-4.29,9.17-4.23a64.32,64.32,0,0,0,8.55-.5c.07-.61.11-1.24.14-1.86A72.07,72.07,0,0,1,343.39,399.8Z" style="fill:#37474f"></path><path d="M382.54,404.51a20.44,20.44,0,0,1-.41,4.21,9.74,9.74,0,0,1-3.85,6.13,12.27,12.27,0,0,1-6.11,1.63,13.49,13.49,0,0,1-5.59-.58,6.3,6.3,0,0,1-3.27-2.67.17.17,0,0,0,0,.07,5.85,5.85,0,0,0,3.76,3.92,13.55,13.55,0,0,0,5.6.58,12.33,12.33,0,0,0,6.11-1.63,9.73,9.73,0,0,0,3.84-6.13,19.78,19.78,0,0,0,.42-4.21,7.12,7.12,0,0,1,2.25-5.14c.35-.33.68-.66,1-1a2.52,2.52,0,0,0,.6-1.84c0-.26-.05-.51-.08-.77-.51.6-1.71,2-2,2.3A7.13,7.13,0,0,0,382.54,404.51Z" style="fill:#37474f"></path><path d="M371.93,389.86a15.24,15.24,0,0,1-1.08,8.52,32.28,32.28,0,0,1-4.51,7.43,21.63,21.63,0,0,0-2.36,3.44,6.1,6.1,0,0,0-.67,4,6.3,6.3,0,0,0,3.27,2.67,13.49,13.49,0,0,0,5.59.58,12.27,12.27,0,0,0,6.11-1.63,9.74,9.74,0,0,0,3.85-6.13,20.44,20.44,0,0,0,.41-4.21,7.13,7.13,0,0,1,2.26-5.14c.3-.28,1.5-1.7,2-2.3a15.63,15.63,0,0,0-2.08-5.95Z" style="fill:#455a64"></path><path d="M331.71,247.9l.41,79.64,3.73,59.81c9.45,6,16.3,1.08,16.3,1.08,3.58-26.23,4.07-46.8,2.11-57.72l1.8-43.22,5.37,44.85,9.05,58.77c9.69,6.29,16.53,0,16.53,0,0-20.11,1.8-47-3.74-61.54,3.91-44.8-3.61-80.88-3.61-80.88Z" style="fill:#37474f"></path><path d="M354.08,271.19l2,16.3-.84,20-3.64-32.87c-8.44-3.3-9.54-7.94-9.54-7.94A26,26,0,0,0,354.08,271.19Z" style="fill:#263238"></path><path d="M338.13,154.06,336,152.93l-.05,0-.08,0h0a1.21,1.21,0,0,0-1.12.06l-19.33,11.16a2.5,2.5,0,0,0-1.25,2.16v9.36a1.2,1.2,0,0,0,.52,1h0l0,0a1.36,1.36,0,0,0,.24.13l2.09,1.11-.1-1.71,18.43-10.63a2.5,2.5,0,0,0,1.24-2.16v-8.15Z" style="fill:#455a64"></path><path d="M337.52,166.66l-19.33,11.16a1.25,1.25,0,0,1-1.87-1.08v-9.36a2.5,2.5,0,0,1,1.24-2.16l19.33-11.16a1.25,1.25,0,0,1,1.87,1.08v9.36A2.49,2.49,0,0,1,337.52,166.66Z" style="fill:#37474f"></path><path d="M317.56,167.38a1.25,1.25,0,0,1,.63-1.08l19.33-11.16v9.36a1.25,1.25,0,0,1-.63,1.08l-19.32,11.16Z" style="fill:#1F8562"></path><path d="M329.11,181.22a3.3,3.3,0,0,1,1.26-1.5,8.84,8.84,0,0,0,3.56-4.39,24.66,24.66,0,0,0,.88-6,9.3,9.3,0,0,1,2-5.56c-3.43-1.38-4.83,1.74-6.08,6.74l-11.5,6.63.17.38a2.87,2.87,0,0,1,0,2.35l-3.35,6.79a11.7,11.7,0,0,0,11.3,1.27A59.87,59.87,0,0,1,329.11,181.22Z" style="fill:#ffa8a7"></path><path d="M326.79,195c.6-2.44,1.33-5.63,1.8-8.52a14.84,14.84,0,0,1-12.91-1.53,63.22,63.22,0,0,0-3.65,7.15A16.74,16.74,0,0,0,326.79,195Z" style="fill:#455a64"></path><path d="M326.79,195c.6-2.44,1.33-5.63,1.8-8.52a14.84,14.84,0,0,1-12.91-1.53,63.22,63.22,0,0,0-3.65,7.15A16.74,16.74,0,0,0,326.79,195Z" style="fill:#fff;opacity:0.2"></path><path d="M325.73,199.06s.47-1.68,1.06-4.07a16.74,16.74,0,0,1-14.76-2.9,76.18,76.18,0,0,0-6,23.75,20.54,20.54,0,0,0,.36,7.17,8.43,8.43,0,0,0,4.31,5.5c3,1.4,6.69.2,9.46-1.7,5.2-3.57,8.46-9.25,11.55-14.75l8.38-29.88C335.13,182.71,331.08,185.48,325.73,199.06Z" style="fill:#455a64"></path><path d="M325.73,199.06s.47-1.68,1.06-4.07a16.74,16.74,0,0,1-14.76-2.9,76.18,76.18,0,0,0-6,23.75,20.54,20.54,0,0,0,.36,7.17,8.43,8.43,0,0,0,4.31,5.5c3,1.4,6.69.2,9.46-1.7,5.2-3.57,8.46-9.25,11.55-14.75l8.38-29.88C335.13,182.71,331.08,185.48,325.73,199.06Z" style="fill:#fff;opacity:0.30000000000000004"></path><path d="M325.73,199.07c-2,6.93-5,18-5,18C327.68,210,325.73,199.07,325.73,199.07Z" style="opacity:0.1"></path><path d="M338.88,186.61a21,21,0,0,0-6.26,6.67c-2.74,4.68-3.54,10.21-4.28,15.58q-.79,5.64-1.57,11.29a83.47,83.47,0,0,0,5-8.09Z" style="opacity:0.1"></path><path d="M349,181.24l-8.92.94c-7.31,6.45-11.09,20-9.52,34.91a264.09,264.09,0,0,1,1.11,30.81c19.8,14.46,44.8,3.93,48,.79l-1.47-18.32a12.61,12.61,0,0,1,1-6c1.87-4.34,5.21-12.89,5.66-19.52a34.78,34.78,0,0,0-3.62-17.06l-13-5.66Z" style="fill:#455a64"></path><g style="opacity:0.30000000000000004"><path d="M349,181.24l-8.92.94c-7.31,6.45-11.09,20-9.52,34.91a264.09,264.09,0,0,1,1.11,30.81c19.8,14.46,44.8,3.93,48,.79l-1.47-18.32a12.61,12.61,0,0,1,1-6c1.87-4.34,5.21-12.89,5.66-19.52a34.78,34.78,0,0,0-3.62-17.06l-13-5.66Z" style="fill:#fff"></path></g><path d="M371.81,199.07c-4.52,3.62-11.35,19.1-14.48,31.62-7.56,4.53-20.49,8.53-20.49,8.53l1.31,11.42c11.48,1.62,30.35-.47,38.53-7.95.75-1.48,1.47-2.95,2.15-4.35l-.64-8a12.61,12.61,0,0,1,1-6c1.87-4.34,5.21-12.89,5.66-19.52a31.71,31.71,0,0,0-1-9.76C380.49,196,374.58,196.84,371.81,199.07Z" style="opacity:0.1"></path><path d="M346.56,194.25c-7.47,17.18-7.35,34.86-7.35,34.86l3.68,7.9,5.76-7.54a297,297,0,0,1,.69-34.71Z" style="fill:#fff"></path><path d="M346.25,187.76a26.76,26.76,0,0,0,.31,6.49,5.18,5.18,0,0,0,2.78.51,22.76,22.76,0,0,0,4.45-5.38l-4.45-1.62Z" style="fill:#fff"></path><path d="M349.34,187.76c3.84,1.42,7.26,8.26,7.26,8.26,10.09-8.57,11.66-13.92,11.66-13.92-2.6-3.69-5.43-4.28-5.43-4.28Z" style="fill:#455a64"></path><path d="M349.34,187.76c-2.93.08-5.53,4.17-5.53,4.17-.47-7.15,5.53-12.66,5.53-12.66Z" style="fill:#455a64"></path><g style="opacity:0.2"><path d="M349.34,187.76c3.84,1.42,7.26,8.26,7.26,8.26,10.09-8.57,11.66-13.92,11.66-13.92-2.6-3.69-5.43-4.28-5.43-4.28Z" style="fill:#fff"></path><path d="M349.34,187.76c-2.93.08-5.53,4.17-5.53,4.17-.47-7.15,5.53-12.66,5.53-12.66Z" style="fill:#fff"></path></g><path d="M363.07,169.81l-13.73,4.9v5.09a22.28,22.28,0,0,0,8.7-3.16A13.3,13.3,0,0,0,363.07,169.81Z" style="fill:#ff9192"></path><path d="M363.07,169.81a13.3,13.3,0,0,1-5,6.83,22.28,22.28,0,0,1-8.7,3.16v8s14.52-6.52,14.52-9.59v-8.64Z" style="fill:#ffa8a7"></path><path d="M336.61,149.67a8.33,8.33,0,0,1-5.39-1.75,8.42,8.42,0,0,1-2.14-2.5,1.14,1.14,0,0,1,1.24-1.64,9.19,9.19,0,0,0,3.18,0,15.08,15.08,0,0,1-3-11.23,1.42,1.42,0,0,1,2-1.07,27.86,27.86,0,0,0,14.11,2.85c2.59-.18,5.15-.73,7.74-.93A14.31,14.31,0,0,1,362,134.6a7.24,7.24,0,0,1,4.16,6.13,3.56,3.56,0,0,1,2.57-1.49,3.88,3.88,0,0,1,3,.89c-1.5.82-3,1.65-4.46,2.47,1.54-.54,3.47.66,4.24,2.1a10.4,10.4,0,0,1,.82,4.77,37,37,0,0,1-.29,6.49,12.53,12.53,0,0,1-2.46,5.94,9.43,9.43,0,0,1-4.47,3,12.18,12.18,0,0,1-7.24-.23,29.31,29.31,0,0,1-6.58-3.28A103.55,103.55,0,0,1,336.61,149.67Z" style="fill:#263238"></path><path d="M336.29,145.35A49.81,49.81,0,0,0,339.15,172c.78,1.95,1.79,4,3.62,5s4.28.87,6.46.54a33,33,0,0,0,10.21-2.87,13.94,13.94,0,0,0,7.06-7.61,6.13,6.13,0,0,0,6.19-2.43,11.62,11.62,0,0,0,2-6.76c0-1.53-.28-3.33-1.65-4s-2.81.07-3.92,1a11.64,11.64,0,0,0-3.81,5.72c-1-3.72-2.58-7.32-3.59-11-.4-1.47-.89-3.06-2.17-3.88-1.56-1-3.6-.43-5.4,0A35.54,35.54,0,0,1,336.29,145.35Z" style="fill:#ffa8a7"></path><polygon points="347.14 156.66 342.79 163.99 347.98 164.96 347.14 156.66" style="fill:#f28f8f"></polygon><path d="M353,167.49,349,169.41a2.57,2.57,0,0,0,3,.85A2.34,2.34,0,0,0,353,167.49Z" style="fill:#f28f8f"></path><path d="M353,167.49,349,169.41a2.57,2.57,0,0,0,3,.85A2.34,2.34,0,0,0,353,167.49Z" style="opacity:0.30000000000000004"></path><path d="M350.66,170.39a2.42,2.42,0,0,0,1.37-.13,2.11,2.11,0,0,0,1.06-2.08,2.39,2.39,0,0,0-2.43,2.21Z" style="fill:#f28f8f"></path><path d="M354.66,157a1.49,1.49,0,0,1-3,.3,1.49,1.49,0,1,1,3-.3Z" style="fill:#263238"></path><path d="M342.16,157.72a1.51,1.51,0,0,1-1.34,1.64,1.49,1.49,0,1,1,1.34-1.64Z" style="fill:#263238"></path><path d="M340.12,152l-3.06,2.61a2.11,2.11,0,0,1,.4-2.39A2.52,2.52,0,0,1,340.12,152Z" style="fill:#263238"></path><path d="M352.81,150.5l3.52,1.95a2.14,2.14,0,0,0-.88-2.27A2.52,2.52,0,0,0,352.81,150.5Z" style="fill:#263238"></path><path d="M328,250.08v0h0v0a.07.07,0,0,0,0-.05.43.43,0,0,0,0,0l0-.05,0,0s0,0,0-.05l0-.05h0l-9.59-18.33L317,232.91l9.59,18.33a1.07,1.07,0,0,1,.12.34h0a.28.28,0,0,1-.05.21h0l1.36-1.52a.25.25,0,0,0,0-.07.15.15,0,0,0,0-.07Z" style="fill:#fff;opacity:0.15"></path><path d="M318.28,231.34l0-.06,0-.06,0-.05,0-.06,0-.06,0-.06-.05-.06,0-.05,0,0,0,0,0,0,0,0,0,0,0,0,0,0,0,0,0,0,0,0,0,0,0,0,0,0v0l0,0h0l0,0,0,0v0l0,0,0,0,0,0,0,0,0,0,0,0,0,0,0,0-.14-.13,0,0,0,0,0,0,0,0h0l0,0,0,0,0,0h0l0,0v0h0l0,0h0l0,0h0l0,0,0,0,0,0,0,0h0l0,0,0,0,0,0,0,0,0,0-.05,0-.05,0-.05,0-.06,0-.06,0-.06,0,0,0L305,222.85l0,0-.07,0-.06,0-.06,0-.06,0-.06,0-.06,0-.06,0-.06,0-.06,0h-.21a.29.29,0,0,0-.17.07l-1.36,1.52a.39.39,0,0,1,.34-.05h0a2.48,2.48,0,0,1,.61.27l11.19,6.46a4.7,4.7,0,0,1,.63.43h0a7.72,7.72,0,0,1,.61.53h0a5.47,5.47,0,0,1,.52.57h0a3.61,3.61,0,0,1,.36.54l1.36-1.52Z" style="fill:#fff;opacity:0.2"></path><path d="M318.08,249.68c-4-2.51-7-7.4-6.37-12.07,0,0,7.46,3.92,10.8,1.83l-1.72-3.28a20.41,20.41,0,0,1,13,4.56,96.08,96.08,0,0,0,20.71-6,41.53,41.53,0,0,1,6-2.15,10.88,10.88,0,0,1,6.27.18,6.27,6.27,0,0,1,4.06,4.53,6.7,6.7,0,0,1-2.32,5.89,16.42,16.42,0,0,1-5.77,3.12C354.11,249.37,322.07,252.18,318.08,249.68Z" style="fill:#ffa8a7"></path><path d="M365,218.91l-6.1,15.7,6.72,10.47c9.79-4.45,7.78-3.18,14.55-19.54Z" style="fill:#ffa8a7"></path><path d="M346.15,236.53a56.14,56.14,0,0,1-9.31,2.69c-2.78,5.65.53,10.84,1.31,11.42,3.67-.09,7.33-.34,10.86-.76A15.51,15.51,0,0,1,346.15,236.53Z" style="fill:#455a64"></path><path d="M346.15,236.53a56.14,56.14,0,0,1-9.31,2.69c-2.78,5.65.53,10.84,1.31,11.42,3.67-.09,7.33-.34,10.86-.76A15.51,15.51,0,0,1,346.15,236.53Z" style="fill:#fff;opacity:0.2"></path><path d="M378.13,186.46c-7.34,8.68-15.44,35.61-19.24,45.2,0,0-6.55,2.69-12.74,4.87A15.51,15.51,0,0,0,349,249.88c11.78-1.39,22.07-4.62,26-9.71C385.84,217.65,395.69,187.37,378.13,186.46Z" style="fill:#455a64"></path><path d="M378.13,186.46c-7.34,8.68-15.44,35.61-19.24,45.2,0,0-6.55,2.69-12.74,4.87A15.51,15.51,0,0,0,349,249.88c11.78-1.39,22.07-4.62,26-9.71C385.84,217.65,395.69,187.37,378.13,186.46Z" style="fill:#fff;opacity:0.30000000000000004"></path><path d="M328,250.08v0h0v0a.07.07,0,0,0,0-.05.43.43,0,0,0,0,0l0-.05,0,0s0,0,0-.05l0-.05h0l-9.59-18.33,0,0,0-.06,0-.06,0-.05,0-.06,0-.06,0-.06-.05-.06,0-.05,0,0,0,0,0,0,0,0,0,0,0,0,0,0,0,0,0,0,0,0,0,0,0,0,0,0v0l0,0h0l0,0,0,0v0l0,0,0,0,0,0,0,0,0,0,0,0,0,0,0,0-.14-.13,0,0,0,0,0,0,0,0h0l0,0,0,0,0,0h0l0,0v0h0l0,0h0l0,0h0l0,0,0,0,0,0,0,0h0l0,0,0,0,0,0,0,0,0,0-.05,0-.05,0-.05,0-.06,0-.06,0-.06,0,0,0L305,222.85l0,0-.07,0-.06,0-.06,0-.06,0-.06,0-.06,0-.06,0-.06,0-.06,0h-.21a.29.29,0,0,0-.17.07l-1.36,1.52s0,0,.05,0-.13.26,0,.56l9.59,18.34a6.32,6.32,0,0,0,2.13,2.07l11.19,6.46c.58.33.92.34,1,.1a.35.35,0,0,1,0,.11h0l1.36-1.52a.25.25,0,0,0,0-.07.15.15,0,0,0,0-.07Zm-25.09-26s0,0,.08,0h0l0,0Zm12.82,7.42.31.26h0Zm.7.69.13.15h0Zm10.2,19.39a.82.82,0,0,0-.11-.37,1.07,1.07,0,0,1,.12.34h0S326.65,251.6,326.65,251.61Z" style="fill:#455a64"></path></g><g id="freepik--sound-bars--inject-42"><path d="M260.88,97.69a2,2,0,0,1,.9,1.57l0,9c0,.58-.41.81-.91.52a2,2,0,0,1-.9-1.56l0-9C260,97.64,260.38,97.4,260.88,97.69Z" style="fill:#1F8562"></path><path d="M265.72,95.69a2,2,0,0,1,.91,1.57l-.05,18.61c0,.57-.41.8-.91.51a2,2,0,0,1-.91-1.56l.06-18.61C264.82,95.64,265.23,95.4,265.72,95.69Z" style="fill:#1F8562"></path><path d="M270.55,101.54a2,2,0,0,1,.91,1.56l0,12.28c0,.57-.41.81-.91.52a2,2,0,0,1-.9-1.56l0-12.28C269.65,101.48,270.06,101.25,270.55,101.54Z" style="fill:#1F8562"></path><path d="M275.4,100.08a2,2,0,0,1,.9,1.56l0,15c0,.57-.41.8-.91.51a2,2,0,0,1-.9-1.56l0-15C274.5,100,274.9,99.79,275.4,100.08Z" style="fill:#1F8562"></path><path d="M280.22,105.77a2,2,0,0,1,.91,1.57l0,9.2c0,.57-.4.81-.91.52a2,2,0,0,1-.9-1.57l0-9.19C279.32,105.72,279.73,105.48,280.22,105.77Z" style="fill:#1F8562"></path><path d="M285.07,106.86a2,2,0,0,1,.9,1.56L285.92,127c0,.57-.42.8-.91.52a2,2,0,0,1-.91-1.57l.06-18.6C284.16,106.8,284.56,106.57,285.07,106.86Z" style="fill:#1F8562"></path><path d="M289.9,106.23a2,2,0,0,1,.91,1.57l-.07,26.56c0,.58-.41.8-.92.51a2,2,0,0,1-.9-1.56l.08-26.56C289,106.18,289.41,106,289.9,106.23Z" style="fill:#1F8562"></path><path d="M294.73,112.44a2,2,0,0,1,.9,1.56l-.05,18.61c0,.57-.41.8-.91.52a2,2,0,0,1-.9-1.57l.05-18.6C293.82,112.39,294.23,112.15,294.73,112.44Z" style="fill:#1F8562"></path><path d="M299.56,120a2,2,0,0,1,.9,1.57l0,11.58c0,.57-.42.81-.91.52a2,2,0,0,1-.91-1.57l0-11.59C298.64,120,299.05,119.73,299.56,120Z" style="fill:#1F8562"></path><path d="M304.4,118a2,2,0,0,1,.9,1.56l-.05,18.61c0,.57-.4.81-.91.52a2,2,0,0,1-.9-1.57l.05-18.6C303.49,118,303.9,117.73,304.4,118Z" style="fill:#1F8562"></path><path d="M314.06,125.94a2,2,0,0,1,.9,1.56l0,14.52c0,.57-.4.81-.91.52a2,2,0,0,1-.9-1.57l0-14.52C313.15,125.87,313.56,125.65,314.06,125.94Z" style="fill:#1F8562"></path><path d="M309.24,119.09a2,2,0,0,1,.9,1.57l-.07,25.12c0,.57-.41.81-.91.52a2,2,0,0,1-.9-1.56l.07-25.12C308.33,119,308.73,118.8,309.24,119.09Z" style="fill:#1F8562"></path><path d="M318.89,131.18a2,2,0,0,1,.9,1.57l0,9.9c0,.57-.41.8-.91.51a2,2,0,0,1-.9-1.56l0-9.9C318,131.13,318.39,130.9,318.89,131.18Z" style="fill:#1F8562"></path><g style="opacity:0.2"><path d="M260.88,97.69a2,2,0,0,1,.9,1.57l0,9c0,.58-.41.81-.91.52a2,2,0,0,1-.9-1.56l0-9C260,97.64,260.38,97.4,260.88,97.69Z"></path><path d="M265.72,95.69a2,2,0,0,1,.91,1.57l-.05,18.61c0,.57-.41.8-.91.51a2,2,0,0,1-.91-1.56l.06-18.61C264.82,95.64,265.23,95.4,265.72,95.69Z"></path><path d="M270.55,101.54a2,2,0,0,1,.91,1.56l0,12.28c0,.57-.41.81-.91.52a2,2,0,0,1-.9-1.56l0-12.28C269.65,101.48,270.06,101.25,270.55,101.54Z"></path><path d="M275.4,100.08a2,2,0,0,1,.9,1.56l0,15c0,.57-.41.8-.91.51a2,2,0,0,1-.9-1.56l0-15C274.5,100,274.9,99.79,275.4,100.08Z"></path><path d="M280.22,105.77a2,2,0,0,1,.91,1.57l0,9.2c0,.57-.4.81-.91.52a2,2,0,0,1-.9-1.57l0-9.19C279.32,105.72,279.73,105.48,280.22,105.77Z"></path><path d="M285.07,106.86a2,2,0,0,1,.9,1.56L285.92,127c0,.57-.42.8-.91.52a2,2,0,0,1-.91-1.57l.06-18.6C284.16,106.8,284.56,106.57,285.07,106.86Z"></path><path d="M289.9,106.23a2,2,0,0,1,.91,1.57l-.07,26.56c0,.58-.41.8-.92.51a2,2,0,0,1-.9-1.56l.08-26.56C289,106.18,289.41,106,289.9,106.23Z"></path><path d="M294.73,112.44a2,2,0,0,1,.9,1.56l-.05,18.61c0,.57-.41.8-.91.52a2,2,0,0,1-.9-1.57l.05-18.6C293.82,112.39,294.23,112.15,294.73,112.44Z"></path><path d="M299.56,120a2,2,0,0,1,.9,1.57l0,11.58c0,.57-.42.81-.91.52a2,2,0,0,1-.91-1.57l0-11.59C298.64,120,299.05,119.73,299.56,120Z"></path><path d="M304.4,118a2,2,0,0,1,.9,1.56l-.05,18.61c0,.57-.4.81-.91.52a2,2,0,0,1-.9-1.57l.05-18.6C303.49,118,303.9,117.73,304.4,118Z"></path><path d="M314.06,125.94a2,2,0,0,1,.9,1.56l0,14.52c0,.57-.4.81-.91.52a2,2,0,0,1-.9-1.57l0-14.52C313.15,125.87,313.56,125.65,314.06,125.94Z"></path><path d="M309.24,119.09a2,2,0,0,1,.9,1.57l-.07,25.12c0,.57-.41.81-.91.52a2,2,0,0,1-.9-1.56l.07-25.12C308.33,119,308.73,118.8,309.24,119.09Z"></path><path d="M318.89,131.18a2,2,0,0,1,.9,1.57l0,9.9c0,.57-.41.8-.91.51a2,2,0,0,1-.9-1.56l0-9.9C318,131.13,318.39,130.9,318.89,131.18Z"></path></g><path d="M391.25,159.46a2,2,0,0,1,.9,1.56l0,15.8c0,.57-.41.8-.91.51a2,2,0,0,1-.9-1.56l0-15.79C390.34,159.41,390.74,159.17,391.25,159.46Z" style="fill:#1F8562"></path><path d="M396.09,155.73a2,2,0,0,1,.91,1.57L397,183.37c0,.57-.41.81-.92.51a2,2,0,0,1-.9-1.56l.05-26.07C395.18,155.68,395.59,155.44,396.09,155.73Z" style="fill:#1F8562"></path><path d="M400.92,162.05a2,2,0,0,1,.9,1.56l0,20.51c0,.57-.41.81-.9.52a2,2,0,0,1-.91-1.56l0-20.51C400,162,400.42,161.76,400.92,162.05Z" style="fill:#1F8562"></path><path d="M405.77,167.22a2,2,0,0,1,.9,1.57l0,15c0,.57-.41.81-.91.52a1.94,1.94,0,0,1-.9-1.56l0-15C404.86,167.17,405.26,166.93,405.77,167.22Z" style="fill:#1F8562"></path><path d="M410.59,173.47a2,2,0,0,1,.9,1.57l0,9.19c0,.58-.4.81-.9.52a2,2,0,0,1-.91-1.56l0-9.2C409.68,173.41,410.09,173.18,410.59,173.47Z" style="fill:#1F8562"></path><path d="M415.43,170.31a2,2,0,0,1,.9,1.57l-.05,18.6c0,.57-.41.81-.91.52a2,2,0,0,1-.9-1.56l0-18.61C414.52,170.26,414.92,170,415.43,170.31Z" style="fill:#1F8562"></path><path d="M420.27,169.69a2,2,0,0,1,.91,1.57l-.08,26.55c0,.58-.41.81-.91.51a2,2,0,0,1-.91-1.56l.08-26.55C419.36,169.63,419.77,169.4,420.27,169.69Z" style="fill:#1F8562"></path><path d="M425.1,175.89a2,2,0,0,1,.9,1.57l-.05,18.6c0,.58-.42.81-.91.52a2,2,0,0,1-.91-1.56l.06-18.61C424.19,175.84,424.6,175.61,425.1,175.89Z" style="fill:#1F8562"></path><path d="M429.92,183.48a2,2,0,0,1,.9,1.56l0,11.59c0,.57-.41.8-.91.51a2,2,0,0,1-.91-1.57L429,184C429,183.42,429.41,183.18,429.92,183.48Z" style="fill:#1F8562"></path><path d="M434.76,183.29a1.94,1.94,0,0,1,.9,1.56l-.05,16.79c0,.58-.4.81-.91.52a2,2,0,0,1-.9-1.56l.05-16.79C433.86,183.23,434.26,183,434.76,183.29Z" style="fill:#1F8562"></path><path d="M444.42,189.39a1.93,1.93,0,0,1,.9,1.56l0,14.52c0,.57-.4.81-.9.52a2,2,0,0,1-.91-1.56l0-14.52C443.52,189.33,443.92,189.1,444.42,189.39Z" style="fill:#1F8562"></path><path d="M439.6,179.24a2,2,0,0,1,.91,1.57l-.07,28.43c0,.57-.42.8-.91.51a2,2,0,0,1-.91-1.56l.08-28.43C438.7,179.18,439.1,178.94,439.6,179.24Z" style="fill:#1F8562"></path><path d="M449.25,194.64a2,2,0,0,1,.91,1.56l0,9.9c0,.57-.41.8-.91.52a2,2,0,0,1-.9-1.57l0-9.89C448.35,194.58,448.75,194.35,449.25,194.64Z" style="fill:#1F8562"></path><g style="opacity:0.2"><path d="M391.25,159.46a2,2,0,0,1,.9,1.56l0,15.8c0,.57-.41.8-.91.51a2,2,0,0,1-.9-1.56l0-15.79C390.34,159.41,390.74,159.17,391.25,159.46Z"></path><path d="M396.09,155.73a2,2,0,0,1,.91,1.57L397,183.37c0,.57-.41.81-.92.51a2,2,0,0,1-.9-1.56l.05-26.07C395.18,155.68,395.59,155.44,396.09,155.73Z"></path><path d="M400.92,162.05a2,2,0,0,1,.9,1.56l0,20.51c0,.57-.41.81-.9.52a2,2,0,0,1-.91-1.56l0-20.51C400,162,400.42,161.76,400.92,162.05Z"></path><path d="M405.77,167.22a2,2,0,0,1,.9,1.57l0,15c0,.57-.41.81-.91.52a1.94,1.94,0,0,1-.9-1.56l0-15C404.86,167.17,405.26,166.93,405.77,167.22Z"></path><path d="M410.59,173.47a2,2,0,0,1,.9,1.57l0,9.19c0,.58-.4.81-.9.52a2,2,0,0,1-.91-1.56l0-9.2C409.68,173.41,410.09,173.18,410.59,173.47Z"></path><path d="M415.43,170.31a2,2,0,0,1,.9,1.57l-.05,18.6c0,.57-.41.81-.91.52a2,2,0,0,1-.9-1.56l0-18.61C414.52,170.26,414.92,170,415.43,170.31Z"></path><path d="M420.27,169.69a2,2,0,0,1,.91,1.57l-.08,26.55c0,.58-.41.81-.91.51a2,2,0,0,1-.91-1.56l.08-26.55C419.36,169.63,419.77,169.4,420.27,169.69Z"></path><path d="M425.1,175.89a2,2,0,0,1,.9,1.57l-.05,18.6c0,.58-.42.81-.91.52a2,2,0,0,1-.91-1.56l.06-18.61C424.19,175.84,424.6,175.61,425.1,175.89Z"></path><path d="M429.92,183.48a2,2,0,0,1,.9,1.56l0,11.59c0,.57-.41.8-.91.51a2,2,0,0,1-.91-1.57L429,184C429,183.42,429.41,183.18,429.92,183.48Z"></path><path d="M434.76,183.29a1.94,1.94,0,0,1,.9,1.56l-.05,16.79c0,.58-.4.81-.91.52a2,2,0,0,1-.9-1.56l.05-16.79C433.86,183.23,434.26,183,434.76,183.29Z"></path><path d="M444.42,189.39a1.93,1.93,0,0,1,.9,1.56l0,14.52c0,.57-.4.81-.9.52a2,2,0,0,1-.91-1.56l0-14.52C443.52,189.33,443.92,189.1,444.42,189.39Z"></path><path d="M439.6,179.24a2,2,0,0,1,.91,1.57l-.07,28.43c0,.57-.42.8-.91.51a2,2,0,0,1-.91-1.56l.08-28.43C438.7,179.18,439.1,178.94,439.6,179.24Z"></path><path d="M449.25,194.64a2,2,0,0,1,.91,1.56l0,9.9c0,.57-.41.8-.91.52a2,2,0,0,1-.9-1.57l0-9.89C448.35,194.58,448.75,194.35,449.25,194.64Z"></path></g></g></svg>