<?xml version="1.0" encoding="UTF-8" standalone="no"?>
<!DOCTYPE svg PUBLIC "-//W3C//DTD SVG 1.1//EN" "http://www.w3.org/Graphics/SVG/1.1/DTD/svg11.dtd">
<!-- Created with Vectornator (http://vectornator.io/) -->
<svg height="100%" stroke-miterlimit="10" style="fill-rule:nonzero;clip-rule:evenodd;stroke-linecap:round;stroke-linejoin:round;" version="1.1" viewBox="0 0 16 16" width="100%" xml:space="preserve" xmlns="http://www.w3.org/2000/svg" xmlns:vectornator="http://vectornator.io" xmlns:xlink="http://www.w3.org/1999/xlink">
<defs/>
<g id="Untitled" vectornator:layerName="Untitled">
<path d="M8 0.65625C6.4087 0.65625 4.87522 1.31228 3.75 2.4375C2.62478 3.56272 2 5.06496 2 6.65625C2 11.323 8 15.3438 8 15.3438C8 15.3437 14 11.323 14 6.65625C14 5.06496 13.3753 3.56272 12.25 2.4375C11.1248 1.31228 9.5913 0.65625 8 0.65625ZM8 4.0625C9.38071 4.0625 10.5 5.18179 10.5 6.5625C10.5 7.94321 9.38071 9.0625 8 9.0625C6.61929 9.0625 5.5 7.94321 5.5 6.5625C5.5 5.18179 6.61929 4.0625 8 4.0625Z" fill="#ffffff" fill-rule="evenodd" opacity="1" stroke="#ffffff" stroke-linecap="round" stroke-linejoin="round" stroke-width="0.5"/>
</g>
</svg>
