<svg width="280" height="280" viewBox="0 0 280 280" fill="none" xmlns="http://www.w3.org/2000/svg">
<path d="M230.278 137.228C180.09 108.253 98.9912 108.253 49.1288 137.228C-0.733582 166.202 -0.470381 213.181 49.6888 242.155C99.848 271.129 180.981 271.135 230.843 242.155C280.706 213.175 280.47 166.202 230.278 137.228Z" fill="#F5F5F5"/>
<path d="M52.4216 188.339L94.3208 164.164L145.219 193.536C145.523 193.712 145.775 193.964 145.95 194.268C146.125 194.571 146.217 194.916 146.217 195.266C146.217 195.617 146.125 195.962 145.95 196.265C145.775 196.569 145.523 196.821 145.219 196.997L131.471 204.926C139.938 203.913 149.078 205.307 155.624 209.11C165.967 215.118 165.911 224.862 155.506 230.877C145.102 236.891 128.274 236.886 117.93 230.877C111.378 227.069 109.004 221.766 110.79 216.877L108.287 218.316C106.771 219.191 105.051 219.651 103.3 219.651C101.55 219.651 99.83 219.191 98.3136 218.316L52.4216 191.8C52.1181 191.624 51.8662 191.372 51.691 191.068C51.5159 190.765 51.4236 190.42 51.4236 190.07C51.4236 189.719 51.5159 189.375 51.691 189.071C51.8662 188.767 52.1181 188.515 52.4216 188.339Z" fill="#E6E6E6"/>
<path d="M51.1448 232.109L79.0888 215.975C79.2772 215.867 79.4337 215.711 79.5425 215.522C79.6514 215.334 79.7086 215.12 79.7086 214.903C79.7086 214.685 79.6514 214.472 79.5425 214.284C79.4337 214.095 79.2772 213.939 79.0888 213.831L54.4488 199.517C54.261 199.407 54.0475 199.349 53.83 199.349C53.6125 199.349 53.399 199.407 53.2112 199.517L24.64 216.009C24.4516 216.117 24.2951 216.274 24.1863 216.462C24.0774 216.65 24.0201 216.864 24.0201 217.081C24.0201 217.299 24.0774 217.512 24.1863 217.701C24.2951 217.889 24.4516 218.045 24.64 218.154L48.6472 232.103C49.0258 232.325 49.4565 232.442 49.8952 232.443C50.334 232.444 50.7652 232.329 51.1448 232.109Z" fill="#E6E6E6"/>
<path d="M248.802 208.32C250.135 209.093 250.141 210.342 248.802 211.12L243.354 214.262C242.607 214.643 241.781 214.841 240.943 214.841C240.105 214.841 239.278 214.643 238.532 214.262L178.746 179.715C177.408 178.948 177.402 177.694 178.746 176.915L184.195 173.768C184.942 173.387 185.768 173.188 186.606 173.188C187.444 173.188 188.27 173.387 189.017 173.768L248.802 208.32Z" fill="#E6E6E6"/>
<path d="M232.025 213.259C233.363 214.032 233.369 215.281 232.025 216.059L226.576 219.206C225.83 219.587 225.003 219.786 224.165 219.786C223.327 219.786 222.501 219.587 221.754 219.206L170.682 189.706C169.35 188.938 169.338 187.684 170.682 186.906L176.131 183.758C176.878 183.377 177.704 183.179 178.542 183.179C179.38 183.179 180.206 183.377 180.953 183.758L232.025 213.259Z" fill="#E6E6E6"/>
<path d="M58.7159 54.7735L58.7551 69.6863L60.5639 70.7391L60.5135 53.7319L58.7159 54.7735Z" fill="#F0F0F0"/>
<path d="M39.2448 80.9537L39.2503 83.0425L60.5639 70.7393L58.7551 69.6865L39.2448 80.9537Z" fill="#F5F5F5"/>
<path d="M62.72 49.9688L37.0104 64.7975L37.072 86.7999L62.7536 71.9712L62.72 49.9688ZM39.2504 83.0423V80.9535L39.2 66.0407L58.716 54.7735L60.5136 53.7599L60.564 70.7671L39.2504 83.0423Z" fill="#E0E0E0"/>
<path d="M62.6918 49.9688L60.883 48.916L35.2014 63.7448L37.0102 64.792L62.6918 49.9688Z" fill="#F5F5F5"/>
<path d="M35.2016 63.7449L35.2632 85.7641L37.072 86.8169L37.0104 64.7921L35.2016 63.7449Z" fill="#F0F0F0"/>
<path d="M58.6992 88.2447L58.744 103.158L60.5528 104.205L60.5024 87.2031L58.6992 88.2447Z" fill="#F0F0F0"/>
<path d="M39.2336 114.419L39.2392 116.514L60.5528 104.205L58.744 103.158L39.2336 114.419Z" fill="#F5F5F5"/>
<path d="M62.6808 83.4399L36.9992 98.2631L37.0608 120.282L62.72 105.454L62.6808 83.4399ZM39.2392 116.514V114.419L39.2 99.5063L58.7104 88.2447L60.5136 87.2031L60.564 104.205L39.2392 116.514Z" fill="#E0E0E0"/>
<path d="M62.6808 83.4344L60.872 82.3872L35.1904 97.2104L36.9992 98.2632L62.6808 83.4344Z" fill="#F5F5F5"/>
<path d="M35.1904 97.2104L35.252 119.23L37.0608 120.282L36.9992 98.2633L35.1904 97.2104Z" fill="#F0F0F0"/>
<path d="M52.5168 60.4353L57.8368 64.6297L57.848 68.7177L40.1464 78.9377L40.1352 74.8441L43.512 68.1465L46.5416 70.4985L45.4664 73.8249L47.0232 70.8681L52.5168 60.4353Z" fill="#E0E0E0"/>
<path d="M46.6984 62.5017C47.5328 62.0201 48.2104 62.4065 48.216 63.3641C48.1876 63.8861 48.0363 64.394 47.7746 64.8464C47.5128 65.2989 47.1479 65.6832 46.7096 65.9681C45.8752 66.4497 45.1976 66.0633 45.1976 65.1057C45.2249 64.5841 45.3751 64.0764 45.6359 63.6238C45.8967 63.1713 46.2608 62.7868 46.6984 62.5017Z" fill="#E0E0E0"/>
<path d="M52.5 93.9065L57.82 98.0953L57.8368 102.189L40.1352 112.409L40.124 108.315L43.4952 101.612L46.5248 103.964L45.4552 107.29L47.0064 104.339L52.5 93.9065Z" fill="#E0E0E0"/>
<path d="M46.6871 95.9673C47.5215 95.4857 48.1991 95.8721 48.1991 96.8297C48.1731 97.3516 48.0235 97.8598 47.7626 98.3125C47.5016 98.7653 47.1369 99.1495 46.6983 99.4337C45.8639 99.9153 45.1863 99.5289 45.1863 98.5713C45.2123 98.0494 45.362 97.5411 45.6229 97.0884C45.8838 96.6356 46.2486 96.2514 46.6871 95.9673Z" fill="#E0E0E0"/>
<path d="M249.715 73.2927C249.234 72.3009 248.465 71.4772 247.509 70.9295L190.019 38.2255C189.754 38.1239 189.474 38.0671 189.19 38.0575C186.234 38.0015 183.26 40.7847 182.84 42.2519C182.745 42.4373 182.695 42.6426 182.694 42.8511V167.143C182.694 168.114 182.951 169.067 183.439 169.906C183.927 170.745 184.628 171.44 185.472 171.92L242.962 204.68C243.032 204.715 243.105 204.744 243.18 204.769C246.613 206.225 250.264 203.201 250.264 200.032V75.7119C250.268 74.8742 250.08 74.0466 249.715 73.2927Z" fill="#263238"/>
<path d="M182.845 42.2572C183.265 40.79 186.239 38.0068 189.196 38.0628C189.479 38.0725 189.76 38.1293 190.025 38.2308L247.52 70.9292C248.36 71.4145 249.061 72.11 249.551 72.9474C250.042 73.7848 250.307 74.7354 250.32 75.706V200.026C250.32 203.196 246.669 206.22 243.236 204.764C243.161 204.739 243.088 204.709 243.017 204.674L185.472 171.92C184.629 171.439 183.929 170.744 183.442 169.905C182.955 169.066 182.699 168.113 182.7 167.143V42.8564C182.7 42.648 182.75 42.4426 182.845 42.2572Z" fill="#455A64"/>
<path d="M242.267 88.8494C242.266 88.364 242.137 87.8876 241.893 87.4678C241.649 87.0481 241.299 86.6999 240.878 86.4582L187.499 56.095C187.291 55.9765 187.054 55.9148 186.814 55.916C186.574 55.9173 186.339 55.9815 186.132 56.1022C185.924 56.2229 185.752 56.3959 185.632 56.604C185.513 56.812 185.45 57.0478 185.45 57.2878V157.556C185.45 158.041 185.579 158.517 185.823 158.936C186.067 159.354 186.417 159.701 186.838 159.941L240.24 190.361C240.45 190.479 240.686 190.54 240.927 190.539C241.168 190.537 241.404 190.472 241.612 190.351C241.819 190.23 241.992 190.056 242.112 189.848C242.232 189.639 242.295 189.403 242.295 189.162L242.267 88.8494Z" fill="#1D795A"/>
<path opacity="0.2" d="M242.267 88.8494C242.266 88.364 242.137 87.8876 241.893 87.4678C241.649 87.0481 241.299 86.6999 240.878 86.4582L187.499 56.095C187.291 55.9765 187.054 55.9148 186.814 55.916C186.574 55.9173 186.339 55.9815 186.132 56.1022C185.924 56.2229 185.752 56.3959 185.632 56.604C185.513 56.812 185.45 57.0478 185.45 57.2878V157.556C185.45 158.041 185.579 158.517 185.823 158.936C186.067 159.354 186.417 159.701 186.838 159.941L240.24 190.361C240.45 190.479 240.686 190.54 240.927 190.539C241.168 190.537 241.404 190.472 241.612 190.351C241.819 190.23 241.992 190.056 242.112 189.848C242.232 189.639 242.295 189.403 242.295 189.162L242.267 88.8494Z" fill="black"/>
<path opacity="0.3" d="M250.286 75.7062V200.026C250.286 203.196 246.635 206.22 243.202 204.764C243.409 204.838 243.63 204.862 243.848 204.833C244.065 204.804 244.273 204.723 244.453 204.598C244.633 204.472 244.78 204.305 244.882 204.111C244.984 203.917 245.038 203.701 245.039 203.481V79.1614C245.035 78.0801 244.712 77.0241 244.11 76.1262L249.738 73.3262C250.097 74.0682 250.285 74.8817 250.286 75.7062Z" fill="black"/>
<path opacity="0.1" d="M189.19 38.0797C189.474 38.0894 189.754 38.1462 190.019 38.2477L247.52 70.9293C248.476 71.4771 249.245 72.3007 249.726 73.2925L244.098 76.0926C243.627 75.3744 242.994 74.7762 242.25 74.3453L184.755 41.6581C184.592 41.566 184.411 41.5084 184.225 41.4888C184.038 41.4692 183.85 41.4881 183.671 41.5442C183.492 41.6004 183.326 41.6926 183.184 41.8153C183.042 41.938 182.927 42.0884 182.846 42.2573C183.26 40.7845 186.234 38.0013 189.19 38.0797Z" fill="white"/>
<path d="M206.774 62.1934C206.371 61.9582 206.035 62.1374 206.035 62.6022C206.049 62.8576 206.122 63.1063 206.25 63.3282C206.377 63.55 206.555 63.7387 206.769 63.879L218.047 70.3862C218.45 70.6214 218.775 70.4254 218.775 69.9606C218.763 69.7091 218.691 69.4642 218.566 69.2461C218.44 69.0279 218.264 68.8429 218.053 68.7062L206.774 62.1934Z" fill="#263238"/>
<path d="M220.948 70.3751C220.545 70.1455 220.214 70.3303 220.214 70.7951C220.229 71.0481 220.302 71.2943 220.429 71.514C220.555 71.7337 220.731 71.9209 220.942 72.0607C221.346 72.2959 221.682 72.0999 221.682 71.6407C221.667 71.3871 221.593 71.1404 221.465 70.9206C221.338 70.7008 221.161 70.514 220.948 70.3751Z" fill="#263238"/>
<path d="M213.73 61.2471C212.923 60.7823 212.268 61.1519 212.268 62.0759C212.293 62.5831 212.437 63.0771 212.689 63.518C212.942 63.9588 213.294 64.3339 213.718 64.6127C214.525 65.0775 215.191 64.6967 215.197 63.7671C215.167 63.2614 215.019 62.7699 214.764 62.3322C214.509 61.8944 214.155 61.5227 213.73 61.2471Z" fill="#263238"/>
<path d="M213.724 178.304C212.083 177.357 210.756 178.108 210.75 179.984C210.802 181.015 211.097 182.019 211.609 182.915C212.122 183.811 212.839 184.574 213.702 185.141C215.348 186.088 216.709 185.315 216.714 183.422C216.652 182.394 216.35 181.395 215.83 180.506C215.311 179.617 214.589 178.863 213.724 178.304Z" fill="#263238"/>
<path d="M233.52 93.3743C233.451 92.8135 233.288 92.2683 233.038 91.7615C232.929 91.54 232.803 91.3267 232.663 91.1231C232.241 90.5025 231.684 89.9855 231.034 89.6111L178.853 59.9311L178.774 59.8975C178.705 59.8742 178.634 59.8555 178.562 59.8415C178.408 59.8107 178.253 59.7919 178.097 59.7855C177.249 59.7798 176.411 59.9715 175.65 60.3455C174.906 60.7124 174.221 61.188 173.617 61.7567L173.298 62.0759C172.873 62.4948 172.544 63.0012 172.334 63.5599C172.294 63.6421 172.262 63.7285 172.239 63.8175C172.212 63.9102 172.198 64.0065 172.2 64.1031V176.96C172.202 177.84 172.437 178.704 172.879 179.465C173.321 180.226 173.956 180.857 174.72 181.294L226.901 211.03C226.966 211.061 227.033 211.088 227.102 211.109C230.216 212.43 233.531 209.686 233.531 206.808V93.9511C233.539 93.7588 233.535 93.5662 233.52 93.3743Z" fill="#1D795A"/>
<path d="M172.323 63.5877C172.704 62.2605 175.403 59.7293 178.086 59.7853C178.344 59.7914 178.599 59.8406 178.842 59.9309L231.022 89.6109C231.89 90.1126 232.588 90.8612 233.027 91.7613C233.365 92.4421 233.541 93.1912 233.542 93.9509V206.813C233.542 209.692 230.227 212.413 227.114 211.114C227.045 211.093 226.977 211.067 226.912 211.036L174.72 181.283C173.955 180.847 173.319 180.216 172.877 179.455C172.434 178.694 172.201 177.829 172.2 176.949V64.1309C172.199 63.9429 172.241 63.7571 172.323 63.5877Z" fill="#1D795A"/>
<path opacity="0.2" d="M233.52 93.9511V206.813C233.52 209.692 230.205 212.413 227.091 211.114C227.279 211.186 227.482 211.211 227.682 211.187C227.882 211.163 228.073 211.09 228.239 210.976C228.404 210.861 228.539 210.707 228.632 210.528C228.725 210.35 228.773 210.151 228.771 209.949V97.0703C228.769 96.0892 228.477 95.1306 227.931 94.3151L233.038 91.7615C233.364 92.445 233.529 93.194 233.52 93.9511Z" fill="white"/>
<path opacity="0.4" d="M178.08 59.78C178.338 59.786 178.594 59.8352 178.836 59.9256L231.017 89.6056C231.884 90.1072 232.582 90.8559 233.022 91.756L227.92 94.3152C227.493 93.662 226.917 93.119 226.24 92.7304L174.059 63.0504C173.91 62.9666 173.746 62.9146 173.576 62.8976C173.406 62.8806 173.234 62.899 173.071 62.9516C172.909 63.0042 172.759 63.0899 172.631 63.2032C172.503 63.3166 172.4 63.4552 172.329 63.6104C172.698 62.2552 175.398 59.724 178.08 59.78Z" fill="white"/>
<path opacity="0.3" d="M172.323 63.5877C172.704 62.2605 175.403 59.7293 178.086 59.7853C178.344 59.7914 178.599 59.8406 178.842 59.9309L231.022 89.6109C231.89 90.1126 232.588 90.8612 233.027 91.7613C233.365 92.4421 233.541 93.1912 233.542 93.9509V206.813C233.542 209.692 230.227 212.413 227.114 211.114C227.045 211.093 226.977 211.067 226.912 211.036L174.72 181.283C173.955 180.847 173.319 180.216 172.877 179.455C172.434 178.694 172.201 177.829 172.2 176.949V64.1309C172.199 63.9429 172.241 63.7571 172.323 63.5877Z" fill="white"/>
<path d="M177.453 70.2632L178.035 70.6048L178.046 68.0904L177.458 67.7544L177.453 70.2632Z" fill="white"/>
<path d="M176.45 69.6864L177.033 70.0224L177.038 67.9896L176.456 67.6536L176.45 69.6864Z" fill="white"/>
<path d="M175.442 69.1041L176.025 69.4401L176.03 67.9337L175.448 67.5977L175.442 69.1041Z" fill="white"/>
<path d="M174.44 68.5273L175.022 68.8633V67.8441L174.44 67.5081V68.5273Z" fill="white"/>
<path d="M179.626 71.5231L183.204 73.5895L183.21 71.4783L179.631 69.4119L179.626 71.5231Z" fill="white"/>
<path d="M184.985 74.6144L186.771 75.6448L186.777 73.5392L184.99 72.5088L184.985 74.6144Z" fill="white"/>
<path d="M221.906 95.6648L221.911 93.968L223.832 95.0768L221.911 93.968L221.906 95.6648Z" fill="white"/>
<path d="M221.906 95.6648L223.826 96.7736L223.832 95.0768L221.911 93.968L221.906 95.6648Z" fill="#1D795A"/>
<path d="M225.187 96.1129V95.4521L221.558 93.3577V95.8665L225.187 97.9609V97.3001L225.652 97.5689V96.3817L225.187 96.1129ZM223.826 96.7737L221.906 95.6537V93.9737L223.826 95.0937V96.7737Z" fill="white"/>
<path d="M216.362 92.6913L219.94 94.7521L219.946 92.6465L216.367 90.5801L216.362 92.6913Z" fill="white"/>
<path d="M199.287 82.7064L202.866 84.7728L202.871 82.6672L199.293 80.6008L199.287 82.7064Z" fill="white"/>
<path d="M219.229 102.766L166.65 72.408C166.499 72.303 166.325 72.2369 166.142 72.2154C165.96 72.1939 165.774 72.2178 165.603 72.2848H165.575L164.455 72.9232L165.144 73.6064L165.105 88.62V88.9728V93.0216C165.133 93.5487 165.285 94.0616 165.549 94.5189C165.813 94.9762 166.18 95.3649 166.622 95.6536L217.151 124.88L219.094 126.795L220.181 126.174C220.22 126.155 220.258 126.133 220.293 126.106H220.343C220.466 125.992 220.561 125.852 220.622 125.696C220.683 125.54 220.708 125.372 220.696 125.205V121.498V120.803L220.741 105.442C220.72 104.908 220.572 104.386 220.309 103.921C220.046 103.455 219.676 103.059 219.229 102.766Z" fill="#1D795A"/>
<path opacity="0.2" d="M219.229 102.766L166.65 72.408C166.499 72.303 166.325 72.2369 166.142 72.2154C165.96 72.1939 165.774 72.2178 165.603 72.2848H165.575L164.455 72.9232L165.144 73.6064L165.105 88.62V88.9728V93.0216C165.133 93.5487 165.285 94.0616 165.549 94.5189C165.813 94.9762 166.18 95.3649 166.622 95.6536L217.151 124.88L219.094 126.795L220.181 126.174C220.22 126.155 220.258 126.133 220.293 126.106H220.343C220.466 125.992 220.561 125.852 220.622 125.696C220.683 125.54 220.708 125.372 220.696 125.205V121.498V120.803L220.741 105.442C220.72 104.908 220.572 104.386 220.309 103.921C220.046 103.455 219.676 103.059 219.229 102.766Z" fill="black"/>
<path d="M218.103 103.398C218.545 103.687 218.913 104.076 219.176 104.533C219.44 104.99 219.592 105.503 219.621 106.03L219.576 121.386L163.951 89.2751V89.9751L219.576 122.08V125.782C219.576 126.75 218.887 127.142 218.047 126.655L165.458 96.3199C165.016 96.0318 164.649 95.644 164.386 95.1877C164.122 94.7315 163.969 94.2196 163.94 93.6935L163.996 73.9311C163.996 72.9679 164.679 72.5759 165.525 73.0575L218.103 103.398Z" fill="#1D795A"/>
<path d="M219.576 121.386V122.086L163.951 89.9751V89.2751L219.576 121.386Z" fill="#1D795A"/>
<g opacity="0.2">
<path d="M219.576 121.386V122.086L163.951 89.9751V89.2751L219.576 121.386Z" fill="white"/>
</g>
<g opacity="0.6">
<path d="M192.405 108.158L192.399 109.872L165.704 94.4551L165.71 92.7471L192.405 108.158Z" fill="white"/>
</g>
<path d="M175.61 81.0151C175.875 81.1884 176.095 81.4217 176.253 81.6961C176.411 81.9705 176.501 82.2783 176.518 82.5943V92.8647C176.518 93.4247 176.109 93.6767 175.599 93.3855L166.667 88.2223C166.401 88.0509 166.18 87.8189 166.021 87.5454C165.863 87.2718 165.771 86.9645 165.754 86.6487L165.782 76.3783C165.782 75.8183 166.197 75.5607 166.701 75.8519L175.61 81.0151Z" fill="white"/>
<g opacity="0.6">
<path d="M208.253 100.951L208.247 103.197L179.962 86.8672L179.967 84.6216L208.253 100.951Z" fill="white"/>
</g>
<g opacity="0.6">
<path d="M195.737 101.618L195.731 103.863L179.939 94.7463L179.945 92.5007L195.737 101.618Z" fill="white"/>
</g>
<g opacity="0.6">
<path d="M208.242 104.894L208.236 107.134L179.95 90.804L179.956 88.564L208.242 104.894Z" fill="white"/>
</g>
<g opacity="0.5">
<path d="M217.47 105.274L216.619 106.036L217.622 108.114L216.782 107.626L216.177 106.316L215.622 106.96L214.777 106.467L215.802 105.566L214.984 103.841L215.813 104.317L216.25 105.28L216.63 104.793L217.47 105.274Z" fill="white"/>
</g>
<path d="M219.229 130.738L166.65 100.38C166.499 100.276 166.324 100.211 166.141 100.19C165.959 100.17 165.774 100.195 165.603 100.262H165.575L164.455 100.901L165.144 101.584L165.105 116.598V116.95V120.999C165.134 121.525 165.287 122.037 165.55 122.493C165.814 122.95 166.181 123.337 166.622 123.626L217.19 152.824L219.134 154.739L220.22 154.112C220.26 154.096 220.297 154.075 220.332 154.05L220.382 154.022C220.505 153.908 220.6 153.768 220.661 153.612C220.722 153.456 220.748 153.288 220.735 153.121V149.414V148.714L220.78 133.358C220.746 132.83 220.588 132.318 220.318 131.862C220.049 131.407 219.675 131.021 219.229 130.738Z" fill="#1D795A"/>
<path opacity="0.2" d="M219.229 130.738L166.65 100.38C166.499 100.276 166.324 100.211 166.141 100.19C165.959 100.17 165.774 100.195 165.603 100.262H165.575L164.455 100.901L165.144 101.584L165.105 116.598V116.95V120.999C165.134 121.525 165.287 122.037 165.55 122.493C165.814 122.95 166.181 123.337 166.622 123.626L217.19 152.824L219.134 154.739L220.22 154.112C220.26 154.096 220.297 154.075 220.332 154.05L220.382 154.022C220.505 153.908 220.6 153.768 220.661 153.612C220.722 153.456 220.748 153.288 220.735 153.121V149.414V148.714L220.78 133.358C220.746 132.83 220.588 132.318 220.318 131.862C220.049 131.407 219.675 131.021 219.229 130.738Z" fill="black"/>
<path d="M218.103 131.376C218.545 131.665 218.913 132.053 219.176 132.511C219.44 132.968 219.592 133.481 219.621 134.008L219.576 149.363L163.951 117.253V117.947L219.576 150.08V153.781C219.576 154.75 218.887 155.142 218.047 154.655L165.469 124.298C165.028 124.009 164.66 123.622 164.397 123.165C164.133 122.709 163.98 122.197 163.951 121.671L164.007 101.909C164.007 100.94 164.69 100.548 165.536 101.035L218.103 131.376Z" fill="#1D795A"/>
<path d="M219.576 149.363V150.063L163.951 117.947V117.253L219.576 149.363Z" fill="#1D795A"/>
<g opacity="0.2">
<path d="M219.576 149.363V150.063L163.951 117.947V117.253L219.576 149.363Z" fill="white"/>
</g>
<path d="M175.61 108.993C175.875 109.166 176.095 109.399 176.253 109.674C176.411 109.948 176.501 110.256 176.518 110.572V120.837C176.518 121.397 176.109 121.649 175.599 121.363L166.667 116.2C166.401 116.028 166.179 115.795 166.02 115.52C165.861 115.246 165.77 114.937 165.754 114.621L165.782 104.356C165.782 103.796 166.197 103.538 166.701 103.829L175.61 108.993Z" fill="white"/>
<g opacity="0.6">
<path d="M208.253 128.929L208.247 131.174L179.962 114.839L179.967 112.594L208.253 128.929Z" fill="white"/>
</g>
<g opacity="0.5">
<path d="M217.47 133.252L216.619 134.014L217.622 136.086L216.782 135.604L216.177 134.294L215.622 134.932L214.777 134.445L215.802 133.543L214.984 131.818L215.813 132.294L216.25 133.258L216.63 132.77L217.47 133.252Z" fill="white"/>
</g>
<path opacity="0.6" d="M165.71 120.725L165.704 122.433L181.222 131.393V129.679L165.71 120.725Z" fill="white"/>
<path opacity="0.6" d="M179.956 116.536L179.95 118.781L193.441 126.565V124.32L179.956 116.536Z" fill="white"/>
<path d="M219.229 187.079L166.65 156.721C166.499 156.617 166.325 156.55 166.142 156.529C165.96 156.507 165.774 156.531 165.603 156.598H165.575L164.455 157.237L165.144 157.92L165.105 172.933V173.286V177.335C165.133 177.862 165.285 178.375 165.549 178.832C165.813 179.29 166.18 179.678 166.622 179.967L217.19 209.16L219.134 211.075L220.22 210.453L220.332 210.392L220.382 210.358C220.505 210.244 220.6 210.104 220.661 209.948C220.722 209.792 220.748 209.624 220.735 209.457V205.755V205.055L220.78 189.694C220.745 189.167 220.587 188.656 220.317 188.201C220.048 187.747 219.675 187.362 219.229 187.079Z" fill="#1D795A"/>
<path opacity="0.2" d="M219.229 187.079L166.65 156.721C166.499 156.617 166.325 156.55 166.142 156.529C165.96 156.507 165.774 156.531 165.603 156.598H165.575L164.455 157.237L165.144 157.92L165.105 172.933V173.286V177.335C165.133 177.862 165.285 178.375 165.549 178.832C165.813 179.29 166.18 179.678 166.622 179.967L217.19 209.16L219.134 211.075L220.22 210.453L220.332 210.392L220.382 210.358C220.505 210.244 220.6 210.104 220.661 209.948C220.722 209.792 220.748 209.624 220.735 209.457V205.755V205.055L220.78 189.694C220.745 189.167 220.587 188.656 220.317 188.201C220.048 187.747 219.675 187.362 219.229 187.079Z" fill="black"/>
<path d="M218.103 187.717C218.544 188.006 218.912 188.393 219.175 188.85C219.439 189.306 219.591 189.818 219.621 190.344L219.576 205.705L163.951 173.6V174.3L219.576 206.41V210.117C219.576 211.081 218.887 211.473 218.047 210.991L165.469 180.633C165.027 180.345 164.659 179.956 164.396 179.499C164.132 179.041 163.98 178.529 163.951 178.001L164.007 158.245C164.007 157.276 164.69 156.884 165.536 157.371L218.103 187.717Z" fill="#1D795A"/>
<path d="M219.576 205.705V206.399L163.951 174.289V173.589L219.576 205.705Z" fill="#1D795A"/>
<g opacity="0.2">
<path d="M219.576 205.705V206.399L163.951 174.289V173.589L219.576 205.705Z" fill="white"/>
</g>
<path d="M175.61 165.329C175.875 165.502 176.095 165.736 176.252 166.01C176.41 166.284 176.501 166.592 176.518 166.908V177.178C176.518 177.738 176.109 177.99 175.599 177.699L166.667 172.542C166.401 172.369 166.18 172.136 166.021 171.861C165.863 171.587 165.771 171.279 165.754 170.962L165.76 160.72C165.76 160.16 166.174 159.908 166.678 160.199L175.61 165.329Z" fill="white"/>
<g opacity="0.6">
<path d="M208.253 185.265L208.247 187.51L179.962 171.181L179.967 168.935L208.253 185.265Z" fill="white"/>
</g>
<g opacity="0.5">
<path d="M217.47 189.594L216.619 190.355L217.622 192.427L216.782 191.946L216.177 190.635L215.622 191.274L214.777 190.786L215.802 189.879L214.984 188.154L215.813 188.636L216.25 189.599L216.63 189.106L217.47 189.594Z" fill="white"/>
</g>
<path opacity="0.6" d="M165.71 177.061L165.704 178.774L181.222 187.729V186.015L165.71 177.061Z" fill="white"/>
<path opacity="0.6" d="M179.956 172.877L179.95 175.117L186.049 178.634V176.389L179.956 172.877Z" fill="white"/>
<path d="M219.229 158.715L166.65 128.358C166.5 128.251 166.325 128.184 166.142 128.163C165.959 128.143 165.773 128.169 165.603 128.24H165.575L164.455 128.884L165.144 129.562L165.105 144.581V144.934V148.982C165.134 149.508 165.287 150.02 165.55 150.477C165.814 150.933 166.181 151.321 166.622 151.609L217.19 180.807L219.134 182.722L220.22 182.095L220.332 182.034L220.382 182.006C220.506 181.891 220.601 181.749 220.662 181.592C220.724 181.435 220.748 181.266 220.735 181.098V177.397V176.697L220.78 161.342C220.747 160.812 220.589 160.299 220.32 159.842C220.05 159.386 219.676 159 219.229 158.715Z" fill="#1D795A"/>
<path opacity="0.2" d="M219.229 158.715L166.65 128.358C166.5 128.251 166.325 128.184 166.142 128.163C165.959 128.143 165.773 128.169 165.603 128.24H165.575L164.455 128.884L165.144 129.562L165.105 144.581V144.934V148.982C165.134 149.508 165.287 150.02 165.55 150.477C165.814 150.933 166.181 151.321 166.622 151.609L217.19 180.807L219.134 182.722L220.22 182.095L220.332 182.034L220.382 182.006C220.506 181.891 220.601 181.749 220.662 181.592C220.724 181.435 220.748 181.266 220.735 181.098V177.397V176.697L220.78 161.342C220.747 160.812 220.589 160.299 220.32 159.842C220.05 159.386 219.676 159 219.229 158.715Z" fill="black"/>
<path d="M218.103 159.354C218.544 159.642 218.912 160.03 219.175 160.486C219.439 160.942 219.591 161.454 219.621 161.98L219.576 177.341L163.951 145.225V145.925L219.576 178.041V181.742C219.576 182.711 218.887 183.098 218.047 182.616L165.469 152.258C165.028 151.97 164.66 151.582 164.397 151.126C164.133 150.67 163.98 150.158 163.951 149.632L164.007 129.87C164.007 128.901 164.69 128.509 165.536 128.996L218.103 159.354Z" fill="#1D795A"/>
<path d="M219.576 177.341V178.041L163.951 145.925V145.225L219.576 177.341Z" fill="#1D795A"/>
<g opacity="0.2">
<path d="M219.576 177.341V178.041L163.951 145.925V145.225L219.576 177.341Z" fill="white"/>
</g>
<g opacity="0.6">
<path d="M185.562 160.222L185.556 161.93L165.704 150.41L165.71 148.702L185.562 160.222Z" fill="white"/>
</g>
<path d="M175.61 136.965C175.875 137.138 176.095 137.372 176.252 137.646C176.41 137.921 176.501 138.228 176.518 138.544V148.814C176.518 149.374 176.109 149.626 175.599 149.335L166.667 144.178C166.401 144.006 166.179 143.773 166.02 143.498C165.861 143.224 165.77 142.915 165.754 142.598L165.782 132.334C165.782 131.774 166.197 131.516 166.701 131.807L175.61 136.965Z" fill="white"/>
<g opacity="0.6">
<path d="M208.253 156.901L208.247 159.146L179.962 142.817L179.967 140.571L208.253 156.901Z" fill="white"/>
</g>
<g opacity="0.6">
<path d="M203.263 161.963L203.258 164.209L179.939 150.701L179.945 148.456L203.263 161.963Z" fill="white"/>
</g>
<g opacity="0.6">
<path d="M208.242 160.843L208.236 163.089L179.95 146.759L179.956 144.513L208.242 160.843Z" fill="white"/>
</g>
<g opacity="0.5">
<path d="M217.47 161.229L216.619 161.991L217.622 164.063L216.782 163.581L216.177 162.271L215.622 162.909L214.777 162.422L215.802 161.521L214.984 159.796L215.813 160.272L216.25 161.235L216.63 160.748L217.47 161.229Z" fill="white"/>
</g>
<path d="M159.286 72.7607L149.912 67.3847C149.094 66.9143 147.151 67.5527 147.151 68.8743C147.151 68.7673 147.179 68.6621 147.232 68.5692C147.285 68.4763 147.362 68.3991 147.454 68.3452C147.547 68.2913 147.652 68.2627 147.759 68.2621C147.866 68.2616 147.971 68.2893 148.064 68.3423L157.433 73.7183C157.741 73.8953 157.989 74.1606 158.144 74.4799L159.964 73.4439C159.804 73.1595 159.57 72.9235 159.286 72.7607Z" fill="#1D795A"/>
<path d="M158.144 74.4799C158.277 74.7319 158.348 75.0123 158.351 75.2975V86.0551C158.351 86.1616 158.322 86.2661 158.268 86.3582C158.215 86.4503 158.138 86.5268 158.046 86.58C157.953 86.6332 157.849 86.6614 157.742 86.6616C157.636 86.6619 157.531 86.6342 157.438 86.5815C157.709 86.7503 158.019 86.8447 158.337 86.8552C158.655 86.8657 158.971 86.7919 159.252 86.6413C159.533 86.4907 159.768 86.2686 159.936 85.9975C160.103 85.7264 160.196 85.4159 160.205 85.0975V74.3455C160.202 74.0312 160.119 73.7228 159.964 73.4495L158.144 74.4799Z" fill="#1D795A"/>
<path opacity="0.4" d="M159.286 72.7607L149.912 67.3847C149.094 66.9143 147.151 67.5527 147.151 68.8743C147.151 68.7673 147.179 68.6621 147.232 68.5692C147.285 68.4763 147.362 68.3991 147.454 68.3452C147.547 68.2913 147.652 68.2627 147.759 68.2621C147.866 68.2616 147.971 68.2893 148.064 68.3423L157.433 73.7183C157.741 73.8953 157.989 74.1606 158.144 74.4799L159.964 73.4439C159.804 73.1595 159.57 72.9235 159.286 72.7607Z" fill="white"/>
<path opacity="0.2" d="M158.144 74.4799C158.277 74.7319 158.348 75.0123 158.351 75.2975V86.0551C158.351 86.1616 158.322 86.2661 158.268 86.3582C158.215 86.4503 158.138 86.5268 158.046 86.58C157.953 86.6332 157.849 86.6614 157.742 86.6616C157.636 86.6619 157.531 86.6342 157.438 86.5815C157.709 86.7503 158.019 86.8447 158.337 86.8552C158.655 86.8657 158.971 86.7919 159.252 86.6413C159.533 86.4907 159.768 86.2686 159.936 85.9975C160.103 85.7264 160.196 85.4159 160.205 85.0975V74.3455C160.202 74.0312 160.119 73.7228 159.964 73.4495L158.144 74.4799Z" fill="white"/>
<path d="M148.064 68.3199L157.433 73.6959C157.712 73.8553 157.945 74.0859 158.106 74.3643C158.267 74.6427 158.352 74.9589 158.351 75.2807V86.0383C158.35 86.1448 158.322 86.2493 158.268 86.3414C158.215 86.4335 158.138 86.51 158.046 86.5632C157.953 86.6164 157.849 86.6446 157.742 86.6448C157.636 86.6451 157.531 86.6174 157.438 86.5647L148.07 81.2111C147.79 81.0517 147.558 80.821 147.396 80.5426C147.235 80.2642 147.15 79.948 147.151 79.6263V68.8799C147.146 68.7705 147.17 68.6617 147.221 68.5648C147.272 68.468 147.348 68.3866 147.442 68.3294C147.535 68.2721 147.642 68.241 147.751 68.2393C147.861 68.2377 147.969 68.2655 148.064 68.3199Z" fill="#1D795A"/>
<path d="M160.608 81.1271L158.368 81.5471V78.6575L160.698 80.8639C160.717 80.8846 160.731 80.9104 160.737 80.9384C160.743 80.9663 160.742 80.9955 160.733 81.0226C160.723 81.0498 160.707 81.0738 160.685 81.0923C160.663 81.1107 160.636 81.1227 160.608 81.1271Z" fill="#1D795A"/>
<path d="M158.357 78.6575L160.205 77.5991L162.534 79.8391C162.551 79.8562 162.564 79.8769 162.572 79.8997C162.579 79.9225 162.582 79.9468 162.578 79.9706C162.575 79.9944 162.566 80.0172 162.553 80.0371C162.539 80.057 162.522 80.0736 162.501 80.0855L160.658 81.1159L158.357 78.6575Z" fill="#1D795A"/>
<path opacity="0.2" d="M158.357 78.6575L160.205 77.5991L162.534 79.8391C162.551 79.8562 162.564 79.8769 162.572 79.8997C162.579 79.9225 162.582 79.9468 162.578 79.9706C162.575 79.9944 162.566 80.0172 162.553 80.0371C162.539 80.057 162.522 80.0736 162.501 80.0855L160.658 81.1159L158.357 78.6575Z" fill="white"/>
<path d="M151.598 80.3599C151.721 80.9742 152.076 81.5175 152.589 81.8775H152.634C153.143 82.1743 153.642 82.0287 153.703 81.5527L151.598 80.3599Z" fill="white"/>
<path d="M150.125 77.9184C150.29 77.6418 150.383 77.3277 150.394 77.0056C150.427 76.5352 150.438 76.048 150.455 75.5664C150.489 74.5752 150.886 74.0544 151.659 74.0096C151.844 74.0096 151.883 73.9368 151.855 73.6792C151.805 73.248 151.928 72.9904 152.219 72.94C152.375 72.9178 152.534 72.9515 152.667 73.0352C152.847 73.1426 153.002 73.2878 153.121 73.4608C153.254 73.62 153.354 73.8039 153.415 74.0018C153.477 74.1998 153.498 74.408 153.479 74.6144C153.456 74.7162 153.461 74.8226 153.494 74.9216C153.528 75.0206 153.589 75.1081 153.67 75.1744C154.252 75.8579 154.639 76.686 154.79 77.5712C154.825 77.8648 154.842 78.1603 154.84 78.456C154.833 78.9749 154.867 79.4936 154.941 80.0072C155.017 80.5543 155.208 81.0791 155.501 81.5472C155.602 81.6871 155.655 81.8561 155.652 82.0288C155.652 82.2808 155.551 82.3424 155.322 82.2136L152.645 80.64L150.466 79.38L150.186 79.2176L149.901 79.0552C149.79 78.9904 149.705 78.8896 149.66 78.7696C149.57 78.5512 149.61 78.2768 149.744 78.2096C149.898 78.1547 150.031 78.0528 150.125 77.9184ZM152.197 77.8624L153.11 78.3888L153.345 76.0088L151.978 75.2192L152.197 77.8624ZM152.65 79.7384C153.042 79.968 153.317 79.8112 153.317 79.4248C153.302 79.2055 153.234 78.9932 153.117 78.8067C153.001 78.6201 152.841 78.4651 152.65 78.3552C152.258 78.1312 151.984 78.2656 151.984 78.6576C151.999 78.8784 152.067 79.0922 152.183 79.2805C152.3 79.4688 152.46 79.626 152.65 79.7384ZM152.65 73.6736C152.499 73.584 152.37 73.6736 152.37 73.836C152.378 73.9312 152.408 74.0235 152.456 74.1058C152.505 74.1882 152.571 74.2587 152.65 74.312C152.677 74.3324 152.709 74.3444 152.742 74.3465C152.775 74.3487 152.809 74.3408 152.838 74.324C152.866 74.3072 152.89 74.2821 152.904 74.252C152.919 74.222 152.924 74.1883 152.919 74.1552C152.919 74.058 152.894 73.9625 152.846 73.8781C152.798 73.7936 152.728 73.7232 152.645 73.6736" fill="white"/>
<path d="M159.286 101.78L149.912 96.4041C149.094 95.9337 147.151 96.5721 147.151 97.8881C147.152 97.7815 147.18 97.677 147.234 97.5849C147.288 97.4928 147.364 97.4163 147.457 97.3631C147.549 97.3099 147.654 97.2817 147.76 97.2815C147.867 97.2812 147.971 97.3089 148.064 97.3617L157.433 102.738C157.742 102.916 157.989 103.184 158.144 103.505L159.964 102.469C159.804 102.182 159.57 101.944 159.286 101.78Z" fill="#1D795A"/>
<path d="M158.144 103.505C158.277 103.757 158.348 104.037 158.351 104.322V115.08C158.351 115.187 158.322 115.291 158.268 115.383C158.215 115.475 158.138 115.552 158.046 115.605C157.953 115.658 157.849 115.686 157.742 115.687C157.636 115.687 157.531 115.659 157.438 115.606C157.709 115.775 158.02 115.87 158.338 115.88C158.657 115.89 158.973 115.816 159.254 115.665C159.535 115.514 159.771 115.291 159.938 115.019C160.105 114.747 160.197 114.436 160.205 114.117V103.365C160.203 103.05 160.12 102.742 159.964 102.469L158.144 103.505Z" fill="#1D795A"/>
<path opacity="0.4" d="M159.286 101.78L149.912 96.4041C149.094 95.9337 147.151 96.5721 147.151 97.8881C147.152 97.7815 147.18 97.677 147.234 97.5849C147.288 97.4928 147.364 97.4163 147.457 97.3631C147.549 97.3099 147.654 97.2817 147.76 97.2815C147.867 97.2812 147.971 97.3089 148.064 97.3617L157.433 102.738C157.742 102.916 157.989 103.184 158.144 103.505L159.964 102.469C159.804 102.182 159.57 101.944 159.286 101.78Z" fill="white"/>
<path opacity="0.2" d="M158.144 103.505C158.277 103.757 158.348 104.037 158.351 104.322V115.08C158.351 115.187 158.322 115.291 158.268 115.383C158.215 115.475 158.138 115.552 158.046 115.605C157.953 115.658 157.849 115.686 157.742 115.687C157.636 115.687 157.531 115.659 157.438 115.606C157.709 115.775 158.02 115.87 158.338 115.88C158.657 115.89 158.973 115.816 159.254 115.665C159.535 115.514 159.771 115.291 159.938 115.019C160.105 114.747 160.197 114.436 160.205 114.117V103.365C160.203 103.05 160.12 102.742 159.964 102.469L158.144 103.505Z" fill="white"/>
<path d="M148.064 97.3614L157.433 102.737C157.712 102.897 157.945 103.127 158.106 103.406C158.267 103.684 158.352 104 158.351 104.322V115.08C158.351 115.186 158.322 115.291 158.268 115.383C158.215 115.475 158.138 115.552 158.046 115.605C157.953 115.658 157.849 115.686 157.742 115.686C157.636 115.687 157.531 115.659 157.438 115.606L148.07 110.253C147.789 110.093 147.556 109.861 147.395 109.582C147.234 109.302 147.15 108.985 147.151 108.662V97.8878C147.152 97.7813 147.18 97.6768 147.234 97.5847C147.288 97.4926 147.364 97.4161 147.457 97.3629C147.549 97.3096 147.654 97.2815 147.76 97.2813C147.867 97.281 147.971 97.3086 148.064 97.3614Z" fill="#1D795A"/>
<path d="M160.608 110.146L158.368 110.566V107.677L160.698 109.883C160.717 109.904 160.731 109.93 160.737 109.958C160.743 109.986 160.742 110.015 160.733 110.042C160.723 110.069 160.707 110.093 160.685 110.112C160.663 110.13 160.636 110.142 160.608 110.146Z" fill="#1D795A"/>
<path d="M158.357 107.677L160.205 106.618L162.534 108.858C162.551 108.875 162.564 108.896 162.572 108.919C162.579 108.942 162.582 108.966 162.578 108.99C162.575 109.014 162.566 109.036 162.553 109.056C162.539 109.076 162.522 109.093 162.501 109.105L160.658 110.135L158.357 107.677Z" fill="#1D795A"/>
<path opacity="0.2" d="M158.357 107.677L160.205 106.618L162.534 108.858C162.551 108.875 162.564 108.896 162.572 108.919C162.579 108.942 162.582 108.966 162.578 108.99C162.575 109.014 162.566 109.036 162.553 109.056C162.539 109.076 162.522 109.093 162.501 109.105L160.658 110.135L158.357 107.677Z" fill="white"/>
<path d="M151.598 109.374C151.72 109.99 152.075 110.535 152.589 110.897H152.634C153.143 111.194 153.642 111.042 153.703 110.572L151.598 109.374Z" fill="white"/>
<path d="M150.125 106.96C150.291 106.686 150.383 106.373 150.394 106.053C150.427 105.582 150.438 105.095 150.455 104.614C150.489 103.617 150.886 103.102 151.659 103.057C151.844 103.057 151.883 102.984 151.855 102.726C151.805 102.295 151.928 102.038 152.219 101.987C152.375 101.962 152.535 101.996 152.667 102.082C152.847 102.19 153.002 102.335 153.121 102.508C153.254 102.667 153.354 102.851 153.415 103.049C153.477 103.247 153.498 103.455 153.479 103.662C153.455 103.763 153.461 103.87 153.494 103.969C153.528 104.068 153.589 104.155 153.67 104.222C154.252 104.905 154.639 105.733 154.79 106.618C154.825 106.912 154.842 107.207 154.84 107.503C154.833 108.022 154.867 108.541 154.941 109.054C155.017 109.601 155.208 110.126 155.501 110.594C155.602 110.734 155.655 110.903 155.652 111.076C155.652 111.328 155.551 111.39 155.322 111.261L152.617 109.698L150.438 108.438L150.158 108.276L149.873 108.114C149.762 108.049 149.677 107.948 149.632 107.828C149.542 107.61 149.582 107.335 149.716 107.268C149.884 107.216 150.028 107.107 150.125 106.96ZM152.197 106.91L153.11 107.43L153.345 105.056L151.978 104.266L152.197 106.91ZM152.65 108.786C153.042 109.01 153.317 108.858 153.317 108.472C153.302 108.253 153.234 108.04 153.117 107.854C153.001 107.667 152.841 107.512 152.65 107.402C152.258 107.173 151.984 107.313 151.984 107.705C151.999 107.926 152.067 108.139 152.183 108.328C152.299 108.516 152.46 108.673 152.65 108.786ZM152.65 102.721C152.499 102.631 152.37 102.721 152.37 102.878C152.378 102.974 152.407 103.067 152.455 103.151C152.504 103.234 152.57 103.305 152.65 103.359C152.677 103.38 152.709 103.392 152.742 103.394C152.775 103.396 152.809 103.388 152.837 103.371C152.866 103.354 152.889 103.329 152.904 103.299C152.919 103.269 152.924 103.235 152.919 103.202C152.919 103.105 152.894 103.01 152.846 102.925C152.798 102.841 152.728 102.77 152.645 102.721" fill="white"/>
<path d="M159.286 130.799L149.912 125.44C149.094 124.97 147.151 125.608 147.151 126.924C147.152 126.817 147.18 126.713 147.234 126.621C147.288 126.529 147.364 126.452 147.457 126.399C147.549 126.346 147.654 126.318 147.76 126.317C147.867 126.317 147.971 126.345 148.064 126.398L157.433 131.774C157.742 131.952 157.989 132.219 158.144 132.541L159.964 131.505C159.807 131.212 159.572 130.968 159.286 130.799Z" fill="#1D795A"/>
<path d="M158.144 132.524C158.277 132.776 158.348 133.056 158.351 133.342V144.094C158.352 144.201 158.324 144.306 158.271 144.399C158.217 144.492 158.141 144.569 158.048 144.623C157.956 144.677 157.851 144.705 157.744 144.706C157.637 144.706 157.531 144.679 157.438 144.626C157.709 144.795 158.02 144.889 158.338 144.899C158.657 144.91 158.973 144.835 159.254 144.684C159.535 144.533 159.771 144.31 159.938 144.038C160.105 143.766 160.197 143.455 160.205 143.136V132.384C160.203 132.07 160.12 131.761 159.964 131.488L158.144 132.524Z" fill="#1D795A"/>
<path opacity="0.4" d="M159.286 130.799L149.912 125.44C149.094 124.97 147.151 125.608 147.151 126.924C147.152 126.817 147.18 126.713 147.234 126.621C147.288 126.529 147.364 126.452 147.457 126.399C147.549 126.346 147.654 126.318 147.76 126.317C147.867 126.317 147.971 126.345 148.064 126.398L157.433 131.774C157.742 131.952 157.989 132.219 158.144 132.541L159.964 131.505C159.807 131.212 159.572 130.968 159.286 130.799Z" fill="white"/>
<path opacity="0.2" d="M158.144 132.524C158.277 132.776 158.348 133.056 158.351 133.342V144.094C158.352 144.201 158.324 144.306 158.271 144.399C158.217 144.492 158.141 144.569 158.048 144.623C157.956 144.677 157.851 144.705 157.744 144.706C157.637 144.706 157.531 144.679 157.438 144.626C157.709 144.795 158.02 144.889 158.338 144.899C158.657 144.91 158.973 144.835 159.254 144.684C159.535 144.533 159.771 144.31 159.938 144.038C160.105 143.766 160.197 143.455 160.205 143.136V132.384C160.203 132.07 160.12 131.761 159.964 131.488L158.144 132.524Z" fill="white"/>
<path d="M148.064 126.381L157.433 131.757C157.712 131.916 157.945 132.147 158.106 132.425C158.267 132.704 158.352 133.02 158.351 133.342V144.094C158.352 144.201 158.324 144.306 158.27 144.399C158.217 144.492 158.141 144.569 158.048 144.623C157.956 144.677 157.851 144.705 157.744 144.706C157.637 144.706 157.531 144.679 157.438 144.626L148.07 139.272C147.79 139.112 147.557 138.88 147.396 138.601C147.235 138.321 147.15 138.004 147.151 137.682V126.907C147.152 126.801 147.18 126.696 147.234 126.604C147.288 126.512 147.364 126.435 147.457 126.382C147.549 126.329 147.654 126.301 147.76 126.301C147.867 126.3 147.971 126.328 148.064 126.381Z" fill="#1D795A"/>
<path d="M160.608 139.166L158.368 139.586V136.696L160.698 138.897C160.719 138.917 160.734 138.944 160.741 138.972C160.748 139.001 160.747 139.031 160.738 139.06C160.728 139.088 160.711 139.113 160.688 139.131C160.665 139.15 160.637 139.162 160.608 139.166Z" fill="#1D795A"/>
<path d="M158.357 136.696L160.205 135.637L162.534 137.877C162.551 137.895 162.564 137.915 162.572 137.938C162.579 137.961 162.582 137.985 162.578 138.009C162.575 138.033 162.566 138.055 162.553 138.075C162.539 138.095 162.522 138.112 162.501 138.124L160.658 139.154L158.357 136.696Z" fill="#1D795A"/>
<path opacity="0.2" d="M158.357 136.696L160.205 135.637L162.534 137.877C162.551 137.895 162.564 137.915 162.572 137.938C162.579 137.961 162.582 137.985 162.578 138.009C162.575 138.033 162.566 138.055 162.553 138.075C162.539 138.095 162.522 138.112 162.501 138.124L160.658 139.154L158.357 136.696Z" fill="white"/>
<path d="M151.598 138.393C151.718 139.008 152.074 139.553 152.589 139.91H152.634C153.143 140.202 153.642 140.056 153.703 139.586L151.598 138.393Z" fill="white"/>
<path d="M150.125 135.951C150.291 135.677 150.383 135.364 150.394 135.044C150.427 134.574 150.438 134.086 150.455 133.605C150.489 132.608 150.886 132.093 151.659 132.048C151.844 132.048 151.883 131.975 151.855 131.718C151.805 131.286 151.928 131.029 152.219 130.978C152.375 130.953 152.535 130.987 152.667 131.074C152.847 131.181 153.002 131.326 153.121 131.499C153.254 131.658 153.354 131.842 153.415 132.04C153.477 132.238 153.499 132.446 153.479 132.653C153.455 132.755 153.461 132.861 153.494 132.96C153.528 133.059 153.589 133.147 153.67 133.213C154.252 133.896 154.639 134.724 154.79 135.61C154.825 135.903 154.842 136.199 154.84 136.494C154.833 137.011 154.866 137.528 154.941 138.04C155.017 138.589 155.208 139.115 155.501 139.586C155.603 139.725 155.656 139.894 155.652 140.067C155.652 140.319 155.551 140.381 155.322 140.252L152.617 138.69L150.438 137.43L150.158 137.267L149.873 137.105C149.761 137.039 149.676 136.936 149.632 136.814C149.542 136.601 149.582 136.326 149.716 136.254C149.883 136.203 150.027 136.096 150.125 135.951ZM152.197 135.901L153.11 136.422L153.345 134.047L151.978 133.28L152.197 135.923V135.901ZM152.65 137.799C153.042 138.023 153.317 137.866 153.317 137.486C153.302 137.266 153.234 137.054 153.117 136.867C153.001 136.681 152.841 136.526 152.65 136.416C152.258 136.186 151.984 136.326 151.984 136.713C151.998 136.935 152.066 137.149 152.182 137.339C152.298 137.528 152.459 137.686 152.65 137.799ZM152.65 131.734C152.499 131.645 152.37 131.734 152.37 131.891C152.377 131.987 152.405 132.08 152.454 132.162C152.503 132.245 152.57 132.315 152.65 132.367C152.796 132.451 152.919 132.367 152.919 132.205C152.918 132.109 152.892 132.014 152.844 131.931C152.796 131.847 152.728 131.778 152.645 131.729" fill="white"/>
<path d="M159.286 159.818L149.912 154.442C149.094 153.966 147.151 154.605 147.151 155.926C147.15 155.819 147.178 155.714 147.231 155.62C147.284 155.527 147.361 155.45 147.454 155.397C147.547 155.343 147.652 155.315 147.759 155.316C147.867 155.316 147.972 155.345 148.064 155.4L157.433 160.776C157.742 160.954 157.989 161.222 158.144 161.543L159.964 160.507C159.806 160.22 159.571 159.981 159.286 159.818Z" fill="#1D795A"/>
<path d="M158.144 161.543C158.277 161.795 158.348 162.076 158.351 162.361V173.113C158.352 173.22 158.324 173.325 158.271 173.418C158.217 173.511 158.141 173.588 158.048 173.642C157.956 173.696 157.851 173.724 157.744 173.725C157.637 173.725 157.531 173.698 157.438 173.645C157.709 173.814 158.02 173.908 158.338 173.918C158.657 173.929 158.973 173.854 159.254 173.703C159.535 173.552 159.771 173.329 159.938 173.057C160.105 172.785 160.197 172.474 160.205 172.155V161.403C160.203 161.089 160.12 160.78 159.964 160.507L158.144 161.543Z" fill="#1D795A"/>
<path opacity="0.4" d="M159.286 159.818L149.912 154.442C149.094 153.966 147.151 154.605 147.151 155.926C147.15 155.819 147.178 155.714 147.231 155.62C147.284 155.527 147.361 155.45 147.454 155.397C147.547 155.343 147.652 155.315 147.759 155.316C147.867 155.316 147.972 155.345 148.064 155.4L157.433 160.776C157.742 160.954 157.989 161.222 158.144 161.543L159.964 160.507C159.806 160.22 159.571 159.981 159.286 159.818Z" fill="white"/>
<path opacity="0.2" d="M158.144 161.543C158.277 161.795 158.348 162.076 158.351 162.361V173.113C158.352 173.22 158.324 173.325 158.271 173.418C158.217 173.511 158.141 173.588 158.048 173.642C157.956 173.696 157.851 173.724 157.744 173.725C157.637 173.725 157.531 173.698 157.438 173.645C157.709 173.814 158.02 173.908 158.338 173.918C158.657 173.929 158.973 173.854 159.254 173.703C159.535 173.552 159.771 173.329 159.938 173.057C160.105 172.785 160.197 172.474 160.205 172.155V161.403C160.203 161.089 160.12 160.78 159.964 160.507L158.144 161.543Z" fill="white"/>
<path d="M148.064 155.4L157.433 160.776C157.712 160.935 157.945 161.166 158.106 161.444C158.267 161.723 158.352 162.039 158.351 162.361V173.113C158.351 173.22 158.324 173.325 158.27 173.418C158.217 173.511 158.141 173.588 158.048 173.642C157.956 173.696 157.851 173.724 157.744 173.725C157.637 173.725 157.531 173.698 157.438 173.645L148.07 168.291C147.79 168.131 147.557 167.899 147.396 167.62C147.234 167.341 147.15 167.023 147.151 166.701V155.926C147.15 155.819 147.178 155.714 147.231 155.62C147.284 155.527 147.361 155.45 147.454 155.397C147.547 155.343 147.652 155.315 147.759 155.316C147.867 155.316 147.972 155.345 148.064 155.4Z" fill="#1D795A"/>
<path d="M160.608 168.185L158.368 168.605V165.715L160.698 167.916C160.719 167.936 160.734 167.963 160.741 167.991C160.748 168.02 160.747 168.05 160.738 168.079C160.728 168.107 160.711 168.132 160.688 168.15C160.665 168.169 160.637 168.181 160.608 168.185Z" fill="#1D795A"/>
<path d="M158.357 165.715L160.205 164.657L162.534 166.897C162.551 166.914 162.564 166.935 162.572 166.957C162.579 166.98 162.582 167.004 162.578 167.028C162.575 167.052 162.566 167.075 162.553 167.095C162.539 167.115 162.522 167.131 162.501 167.143L160.658 168.174L158.357 165.715Z" fill="#1D795A"/>
<path opacity="0.2" d="M158.357 165.715L160.205 164.657L162.534 166.897C162.551 166.914 162.564 166.935 162.572 166.957C162.579 166.98 162.582 167.004 162.578 167.028C162.575 167.052 162.566 167.075 162.553 167.095C162.539 167.115 162.522 167.131 162.501 167.143L160.658 168.174L158.357 165.715Z" fill="white"/>
<path d="M151.598 167.44C151.718 168.055 152.074 168.6 152.589 168.958H152.634C153.143 169.249 153.642 169.103 153.703 168.627L151.598 167.44Z" fill="white"/>
<path d="M150.125 164.97C150.291 164.696 150.383 164.384 150.394 164.063C150.427 163.587 150.438 163.105 150.455 162.618C150.489 161.627 150.886 161.112 151.659 161.067C151.844 161.067 151.883 160.994 151.855 160.731C151.805 160.3 151.928 160.048 152.219 159.997C152.374 159.973 152.533 160.005 152.667 160.087C152.846 160.198 153.001 160.345 153.121 160.518C153.254 160.677 153.354 160.861 153.415 161.059C153.477 161.257 153.499 161.465 153.479 161.672C153.455 161.774 153.461 161.88 153.494 161.979C153.528 162.078 153.589 162.166 153.67 162.232C154.253 162.915 154.64 163.743 154.79 164.629C154.825 164.922 154.842 165.218 154.84 165.513C154.833 166.031 154.867 166.547 154.941 167.059C155.017 167.606 155.208 168.131 155.501 168.599C155.603 168.741 155.656 168.912 155.652 169.086C155.652 169.338 155.551 169.4 155.322 169.271L152.617 167.709L150.438 166.449L150.158 166.286L149.873 166.118C149.762 166.053 149.677 165.953 149.632 165.833C149.542 165.62 149.582 165.345 149.716 165.273C149.882 165.219 150.025 165.113 150.125 164.97ZM152.197 164.914L153.11 165.441L153.345 163.066L151.978 162.277L152.197 164.914ZM152.65 166.796C153.042 167.02 153.317 166.863 153.317 166.482C153.303 166.263 153.236 166.05 153.119 165.863C153.003 165.676 152.842 165.521 152.65 165.413C152.258 165.183 151.984 165.323 151.984 165.709C151.998 165.931 152.066 166.146 152.182 166.336C152.298 166.525 152.459 166.683 152.65 166.796ZM152.65 160.725C152.623 160.704 152.59 160.691 152.555 160.688C152.52 160.685 152.485 160.693 152.455 160.711C152.424 160.728 152.4 160.755 152.385 160.786C152.37 160.818 152.365 160.853 152.37 160.888C152.377 160.984 152.405 161.076 152.454 161.159C152.503 161.242 152.57 161.312 152.65 161.364C152.796 161.448 152.919 161.364 152.919 161.201C152.916 161.105 152.889 161.011 152.842 160.927C152.794 160.843 152.726 160.772 152.645 160.72" fill="white"/>
<path d="M95.452 195.277L64.0472 176.91C63.0523 176.326 62.3023 175.403 61.9358 174.31C61.5693 173.216 61.6111 172.027 62.0536 170.962L63.6384 167.154L62.7872 169.198C62.3817 170.177 62.3481 171.27 62.6926 172.271C63.0371 173.273 63.736 174.114 64.6576 174.636L98.8176 193.961C98.7183 194.296 98.544 194.603 98.3081 194.859C98.0722 195.116 97.7809 195.315 97.4563 195.442C97.1317 195.569 96.7825 195.62 96.4352 195.591C96.0878 195.563 95.7516 195.456 95.452 195.277Z" fill="#37474F"/>
<path d="M64.316 157.097L67.116 158.777L63.6328 167.177L62.048 170.985C61.6055 172.05 61.5636 173.239 61.9301 174.332C62.2966 175.425 63.0467 176.349 64.0416 176.932L95.4464 195.3C95.7458 195.477 96.0815 195.584 96.4282 195.611C96.7748 195.639 97.1233 195.588 97.4471 195.461C97.771 195.334 98.0616 195.135 98.2972 194.879C98.5327 194.624 98.7068 194.317 98.8064 193.984L101.046 195.244L143.192 170.856L144.553 185.136L142.341 185.467L142.178 184.498C142.111 184.115 141.953 183.753 141.717 183.445C141.48 183.136 141.173 182.888 140.821 182.723C140.469 182.559 140.082 182.481 139.693 182.498C139.305 182.514 138.926 182.624 138.589 182.818L107.52 200.693C106.252 201.423 105.221 202.502 104.55 203.802C103.878 205.101 103.595 206.567 103.734 208.023L103.841 209.143H101.601L101.142 206.433C100.956 205.323 100.527 204.269 99.8848 203.345C99.2428 202.421 98.404 201.651 97.4288 201.091L61.5328 180.415C61.1911 180.218 60.8123 180.093 60.4202 180.05C60.028 180.006 59.6311 180.044 59.2544 180.161C58.8776 180.279 58.5293 180.473 58.2313 180.731C57.9334 180.99 57.6923 181.308 57.5232 181.664L54.124 188.799C54.124 188.799 53.004 189.398 52.5784 188.323L64.316 157.097Z" fill="#455A64"/>
<path d="M104.25 121.89L137.995 148.03C139.024 148.828 139.878 149.828 140.506 150.968C141.134 152.109 141.522 153.365 141.646 154.661L145.426 194.32C145.218 194.514 144.95 194.634 144.666 194.659C144.382 194.684 144.098 194.614 143.858 194.46L137.138 154.644C137.025 153.966 136.766 153.321 136.379 152.752C135.992 152.184 135.487 151.706 134.898 151.351L105.073 133.476C101.164 131.152 100.481 122.937 104.25 121.89Z" fill="#455A64"/>
<path opacity="0.3" d="M104.25 121.89L137.995 148.03C139.024 148.828 139.878 149.828 140.506 150.968C141.134 152.109 141.522 153.365 141.646 154.661L145.426 194.32C145.218 194.514 144.95 194.634 144.666 194.659C144.382 194.684 144.098 194.614 143.858 194.46L137.138 154.644C137.025 153.966 136.766 153.321 136.379 152.752C135.992 152.184 135.487 151.706 134.898 151.351L105.073 133.476C101.164 131.152 100.481 122.937 104.25 121.89Z" fill="white"/>
<path d="M65.5928 167.014C65.7429 166.611 66.0305 166.274 66.4048 166.062L100.24 146.529C100.955 146.114 101.768 145.895 102.595 145.895C103.422 145.895 104.234 146.114 104.95 146.529L138.55 166.051C138.926 166.266 139.213 166.607 139.362 167.014C140.325 168.795 140.65 172.838 139.306 175.414C139.128 175.751 138.863 176.034 138.538 176.232L104.72 195.765C104.004 196.179 103.192 196.397 102.365 196.397C101.538 196.397 100.726 196.179 100.01 195.765L66.4104 176.243C66.08 176.05 65.8163 175.761 65.6544 175.414C64.3048 172.838 64.6296 168.795 65.5928 167.014Z" fill="#1D795A"/>
<path opacity="0.3" d="M65.5928 167.014C65.7429 166.611 66.0305 166.274 66.4048 166.062L100.24 146.529C100.955 146.114 101.768 145.895 102.595 145.895C103.422 145.895 104.234 146.114 104.95 146.529L138.55 166.051C138.926 166.266 139.213 166.607 139.362 167.014C140.325 168.795 140.65 172.838 139.306 175.414C139.128 175.751 138.863 176.034 138.538 176.232L104.72 195.765C104.004 196.179 103.192 196.397 102.365 196.397C101.538 196.397 100.726 196.179 100.01 195.765L66.4104 176.243C66.08 176.05 65.8163 175.761 65.6544 175.414C64.3048 172.838 64.6296 168.795 65.5928 167.014Z" fill="white"/>
<path opacity="0.3" d="M65.5928 167.014C65.4321 167.431 65.4249 167.892 65.5727 168.314C65.7204 168.735 66.0134 169.091 66.3992 169.316L99.9992 188.838C100.715 189.252 101.527 189.469 102.354 189.469C103.181 189.469 103.993 189.252 104.709 188.838L138.544 169.299C138.93 169.078 139.224 168.726 139.374 168.307C139.523 167.889 139.519 167.43 139.362 167.014C140.325 168.795 140.65 172.838 139.306 175.414C139.128 175.751 138.863 176.034 138.538 176.232L104.72 195.765C104.004 196.179 103.192 196.397 102.365 196.397C101.538 196.397 100.726 196.179 100.01 195.765L66.4104 176.243C66.08 176.05 65.8163 175.761 65.6544 175.414C64.3048 172.838 64.6296 168.795 65.5928 167.014Z" fill="black"/>
<path d="M62.7984 129.92L94.7912 111.44C95.0754 111.275 95.3976 111.186 95.7264 111.182H95.8832C98.8064 111.21 101.097 112.952 102.794 115.002C102.821 115.025 102.845 115.051 102.866 115.08C103.037 115.291 103.161 115.535 103.23 115.797L112.409 149.957C112.681 150.927 112.624 151.961 112.246 152.895C111.868 153.829 111.191 154.612 110.32 155.12L78.3328 173.6C77.9939 173.796 77.6031 173.884 77.2128 173.852C73.5504 173.471 71.3944 171.209 70.3136 170.016C70.1085 169.787 69.9608 169.512 69.8824 169.215L60.704 135.055C60.4388 134.088 60.5004 133.06 60.8791 132.132C61.2578 131.203 61.9325 130.426 62.7984 129.92Z" fill="#1D795A"/>
<path opacity="0.2" d="M62.7984 129.92L94.7912 111.44C95.0754 111.275 95.3976 111.186 95.7264 111.182H95.8832C98.8064 111.21 101.097 112.952 102.794 115.002C102.821 115.025 102.845 115.051 102.866 115.08C103.037 115.291 103.161 115.535 103.23 115.797L112.409 149.957C112.681 150.927 112.624 151.961 112.246 152.895C111.868 153.829 111.191 154.612 110.32 155.12L78.3328 173.6C77.9939 173.796 77.6031 173.884 77.2128 173.852C73.5504 173.471 71.3944 171.209 70.3136 170.016C70.1085 169.787 69.9608 169.512 69.8824 169.215L60.704 135.055C60.4388 134.088 60.5004 133.06 60.8791 132.132C61.2578 131.203 61.9325 130.426 62.7984 129.92Z" fill="white"/>
<path opacity="0.1" d="M62.7984 129.92L94.7912 111.44C95.0754 111.275 95.3976 111.186 95.7264 111.182H95.8832C98.8064 111.21 101.097 112.952 102.794 115.002C102.495 114.675 102.095 114.46 101.658 114.393C101.221 114.326 100.774 114.41 100.391 114.632L68.3984 133.112C67.4888 133.64 66.7903 134.468 66.4216 135.453L60.8216 132.227C61.1973 131.255 61.895 130.44 62.7984 129.92Z" fill="black"/>
<path opacity="0.2" d="M66.4216 135.425C66.0789 136.32 66.0299 137.3 66.2816 138.225L75.46 172.385C75.5633 172.773 75.7849 173.12 76.0939 173.377C76.4029 173.633 76.7841 173.788 77.1848 173.818C73.5224 173.438 71.3664 171.175 70.2856 169.982C70.0805 169.753 69.9327 169.479 69.8544 169.182L60.676 135.022C60.4294 134.096 60.4823 133.116 60.8272 132.222L66.4216 135.425Z" fill="black"/>
<path d="M133.61 191.733C133.238 193.695 133.026 195.684 132.978 197.68L131.6 197.12C130.932 196.864 130.204 196.812 129.506 196.969C128.809 197.127 128.173 197.487 127.68 198.005L127.613 198.078C127.362 198.342 127.018 198.499 126.654 198.516C126.289 198.533 125.933 198.408 125.658 198.167C125.512 198.04 125.393 197.884 125.31 197.708C125.228 197.533 125.182 197.342 125.177 197.148L124.986 191.167L133.61 191.733Z" fill="#FFA8A7"/>
<path d="M128.19 213.948C131.102 217.067 136.472 219.794 140.37 217.134L139.933 218.125C136.013 220.785 130.665 218.058 127.753 214.945C124.841 211.831 126.728 209.664 124.107 206.897C123.118 205.954 122.344 204.808 121.839 203.537C121.957 203.241 122.063 202.849 122.203 202.417C122.769 203.716 123.562 204.903 124.544 205.923C127.165 208.673 125.272 210.834 128.19 213.948Z" fill="white"/>
<path d="M123.637 199.142C124.088 198.504 124.401 197.779 124.555 197.014C124.582 196.838 124.645 196.67 124.742 196.522C124.838 196.373 124.966 196.247 125.115 196.151L125.149 197.154C125.157 197.432 125.247 197.703 125.409 197.93C125.57 198.158 125.796 198.333 126.056 198.432C126.317 198.531 126.601 198.551 126.873 198.489C127.146 198.427 127.393 198.286 127.585 198.083L127.652 198.01C128.145 197.492 128.781 197.132 129.478 196.975C130.176 196.817 130.904 196.87 131.572 197.126L133 197.686C133.21 197.768 133.391 197.912 133.518 198.099C133.645 198.286 133.712 198.507 133.711 198.733C133.616 202.821 135.526 208.253 137.53 211.232C139.591 212.089 141.366 214.894 140.459 216.95L140.37 217.157C136.45 219.817 131.102 217.09 128.19 213.97C125.278 210.851 127.165 208.695 124.544 205.929C123.562 204.909 122.769 203.722 122.203 202.423C122.526 201.268 123.009 200.163 123.637 199.142Z" fill="#1D795A"/>
<path opacity="0.2" d="M123.637 199.142C124.088 198.504 124.401 197.779 124.555 197.014C124.582 196.838 124.645 196.67 124.742 196.522C124.838 196.373 124.966 196.247 125.115 196.151L125.149 197.154C125.157 197.432 125.247 197.703 125.409 197.93C125.57 198.158 125.796 198.333 126.056 198.432C126.317 198.531 126.601 198.551 126.873 198.489C127.146 198.427 127.393 198.286 127.585 198.083L127.652 198.01C128.145 197.492 128.781 197.132 129.478 196.975C130.176 196.817 130.904 196.87 131.572 197.126L133 197.686C133.21 197.768 133.391 197.912 133.518 198.099C133.645 198.286 133.712 198.507 133.711 198.733C133.616 202.821 135.526 208.253 137.53 211.232C139.591 212.089 141.366 214.894 140.459 216.95L140.37 217.157C136.45 219.817 131.102 217.09 128.19 213.97C125.278 210.851 127.165 208.695 124.544 205.929C123.562 204.909 122.769 203.722 122.203 202.423C122.526 201.268 123.009 200.163 123.637 199.142Z" fill="white"/>
<path d="M129.36 205.044C129.302 205.073 129.239 205.09 129.174 205.094C129.109 205.098 129.045 205.09 128.983 205.069C128.922 205.048 128.865 205.015 128.816 204.973C128.768 204.93 128.728 204.878 128.699 204.82C128.669 204.763 128.65 204.701 128.644 204.637C128.637 204.574 128.644 204.509 128.663 204.448C128.681 204.386 128.712 204.329 128.753 204.28C128.794 204.23 128.844 204.189 128.901 204.159C129.755 203.676 130.719 203.422 131.701 203.422C132.682 203.422 133.647 203.676 134.501 204.159C134.585 204.478 134.68 204.798 134.775 205.117C133.956 204.636 133.027 204.377 132.077 204.364C131.128 204.351 130.192 204.586 129.36 205.044Z" fill="white"/>
<path d="M128.626 202.832C128.509 202.893 128.372 202.905 128.246 202.865C128.12 202.825 128.015 202.737 127.954 202.619C127.894 202.502 127.882 202.365 127.922 202.239C127.962 202.113 128.05 202.008 128.167 201.947C129.062 201.459 130.066 201.207 131.086 201.216C132.105 201.224 133.105 201.494 133.991 201.998C134.047 202.328 134.12 202.664 134.193 203C132.49 202.104 130.777 201.746 128.626 202.832Z" fill="white"/>
<path d="M130.127 207.245C130.01 207.301 129.875 207.31 129.751 207.268C129.628 207.226 129.525 207.137 129.466 207.021C129.407 206.905 129.396 206.772 129.434 206.648C129.473 206.524 129.559 206.421 129.674 206.36C130.508 205.89 131.447 205.638 132.405 205.628C133.362 205.618 134.307 205.851 135.15 206.304C135.274 206.651 135.402 206.987 135.537 207.323C134.719 206.843 133.791 206.583 132.842 206.569C131.894 206.556 130.959 206.788 130.127 207.245Z" fill="white"/>
<path d="M137.53 211.21C139.591 212.066 141.366 214.872 140.459 216.927L140.37 217.134C136.528 219.755 131.27 217.134 128.324 214.088C130.777 209.278 135.906 210.476 137.53 211.21Z" fill="white"/>
<path d="M130.99 209.389C130.932 209.418 130.868 209.435 130.804 209.44C130.739 209.444 130.674 209.435 130.613 209.415C130.551 209.394 130.495 209.361 130.446 209.318C130.397 209.276 130.357 209.224 130.329 209.165C130.271 209.051 130.259 208.918 130.297 208.794C130.334 208.671 130.418 208.567 130.53 208.505C131.368 208.035 132.311 207.784 133.271 207.776C134.232 207.768 135.179 208.003 136.024 208.46C136.198 208.841 136.377 209.205 136.584 209.58C134.859 208.661 133.146 208.32 130.99 209.389Z" fill="white"/>
<path d="M139.737 203.616C140.184 205.553 140.789 207.45 141.546 209.289L140.05 209.373C139.339 209.41 138.654 209.657 138.082 210.083C137.51 210.508 137.077 211.093 136.836 211.764L136.802 211.854C136.679 212.197 136.428 212.479 136.101 212.64C135.774 212.802 135.397 212.831 135.05 212.722C134.864 212.666 134.693 212.571 134.546 212.445C134.4 212.319 134.281 212.163 134.198 211.988L131.6 206.59L139.737 203.616Z" fill="#FFA8A7"/>
<path d="M143.746 226.134C147.666 227.814 153.681 228.138 156.173 224.129V225.215C153.681 229.219 147.672 228.894 143.746 227.22C139.821 225.546 140.678 222.802 137.161 221.329C135.874 220.862 134.703 220.122 133.728 219.162C133.728 218.842 133.661 218.445 133.605 217.98C134.647 218.94 135.851 219.708 137.161 220.248C140.678 221.721 139.821 224.459 143.746 226.134Z" fill="white"/>
<path d="M133.605 214.424C133.767 213.66 133.767 212.87 133.605 212.106C133.56 211.932 133.552 211.751 133.583 211.574C133.614 211.397 133.683 211.229 133.784 211.081L134.221 211.988C134.303 212.163 134.422 212.319 134.569 212.445C134.715 212.572 134.887 212.666 135.072 212.722C135.42 212.831 135.796 212.802 136.123 212.641C136.45 212.479 136.701 212.197 136.825 211.854L136.858 211.764C137.099 211.093 137.532 210.508 138.104 210.083C138.676 209.657 139.361 209.41 140.073 209.373L141.596 209.289C141.822 209.281 142.045 209.341 142.236 209.462C142.427 209.583 142.576 209.759 142.666 209.966C144.234 213.741 148.17 217.935 151.206 219.862C153.446 219.806 156.195 221.659 156.195 223.905V224.129C153.703 228.138 147.694 227.808 143.769 226.134C139.843 224.459 140.7 221.721 137.183 220.248C135.873 219.708 134.669 218.94 133.627 217.98C133.455 216.801 133.448 215.605 133.605 214.424Z" fill="#1D795A"/>
<path opacity="0.2" d="M133.605 214.424C133.767 213.66 133.767 212.87 133.605 212.106C133.56 211.932 133.552 211.751 133.583 211.574C133.614 211.397 133.683 211.229 133.784 211.081L134.221 211.988C134.303 212.163 134.422 212.319 134.569 212.445C134.715 212.572 134.887 212.666 135.072 212.722C135.42 212.831 135.796 212.802 136.123 212.641C136.45 212.479 136.701 212.197 136.825 211.854L136.858 211.764C137.099 211.093 137.532 210.508 138.104 210.083C138.676 209.657 139.361 209.41 140.073 209.373L141.596 209.289C141.822 209.281 142.045 209.341 142.236 209.462C142.427 209.583 142.576 209.759 142.666 209.966C144.234 213.741 148.17 217.935 151.206 219.862C153.446 219.806 156.195 221.659 156.195 223.905V224.129C153.703 228.138 147.694 227.808 143.769 226.134C139.843 224.459 140.7 221.721 137.183 220.248C135.873 219.708 134.669 218.94 133.627 217.98C133.455 216.801 133.448 215.605 133.605 214.424Z" fill="white"/>
<path d="M141.204 217.521C141.121 217.624 141 217.69 140.868 217.704C140.736 217.718 140.604 217.68 140.501 217.597C140.398 217.513 140.332 217.393 140.318 217.261C140.304 217.129 140.342 216.997 140.426 216.894C141.017 216.112 141.799 215.495 142.697 215.102C143.596 214.71 144.58 214.556 145.555 214.654C145.762 214.917 145.975 215.169 146.194 215.421C145.251 215.309 144.296 215.444 143.421 215.812C142.547 216.18 141.783 216.769 141.204 217.521Z" fill="white"/>
<path d="M139.653 215.785C139.566 215.873 139.45 215.925 139.327 215.933C139.203 215.94 139.082 215.901 138.985 215.823C138.889 215.746 138.825 215.635 138.806 215.514C138.786 215.392 138.813 215.267 138.88 215.163C139.5 214.354 140.317 213.717 141.254 213.313C142.19 212.909 143.214 212.752 144.228 212.856C144.418 213.136 144.614 213.416 144.816 213.69C142.901 213.556 141.187 213.92 139.653 215.785Z" fill="white"/>
<path d="M142.8 219.212C142.713 219.3 142.597 219.353 142.474 219.36C142.35 219.367 142.229 219.328 142.133 219.251C142.036 219.173 141.972 219.063 141.953 218.941C141.933 218.819 141.96 218.694 142.027 218.59C142.604 217.828 143.363 217.223 144.235 216.832C145.107 216.44 146.064 216.275 147.017 216.35C147.269 216.619 147.526 216.877 147.784 217.129C146.844 217.016 145.891 217.148 145.017 217.513C144.144 217.878 143.38 218.464 142.8 219.212Z" fill="white"/>
<path d="M151.2 219.862C153.44 219.806 156.19 221.659 156.19 223.905V224.129C153.731 228.049 147.868 227.814 143.942 226.206C144.228 220.814 149.402 219.839 151.2 219.862Z" fill="white"/>
<path d="M144.48 220.831C144.396 220.928 144.277 220.99 144.149 221.002C144.02 221.014 143.892 220.976 143.791 220.895C143.69 220.814 143.625 220.698 143.608 220.57C143.591 220.442 143.625 220.313 143.702 220.209C144.28 219.444 145.042 218.837 145.917 218.446C146.792 218.054 147.752 217.89 148.708 217.969C149.022 218.249 149.33 218.529 149.643 218.759C147.711 218.602 145.998 218.96 144.48 220.831Z" fill="white"/>
<path d="M116.676 152.561L136.326 163.52C138.107 164.512 139.532 166.038 140.399 167.883C141.266 169.727 141.532 171.798 141.159 173.802L137.346 194.32L140.476 204.254C137.76 207.878 131.6 208.062 131.6 208.062C128.145 201.135 125.608 198.19 123.648 192.382C121.688 186.575 120.361 182.56 120.361 182.56L104.042 178.08C100.311 177.066 96.9684 174.956 94.4478 172.023C91.9272 169.09 90.3439 165.469 89.9024 161.627C89.628 159.163 89.6112 157.478 89.6112 157.478L116.676 152.561Z" fill="#455A64"/>
<path d="M116.676 152.561L136.326 163.52C138.107 164.512 139.532 166.038 140.399 167.883C141.266 169.727 141.532 171.798 141.159 173.802L137.346 194.32L140.476 204.254C137.76 207.878 131.6 208.062 131.6 208.062C128.145 201.135 125.608 198.19 123.648 192.382C121.688 186.575 120.361 182.56 120.361 182.56L104.042 178.08C100.311 177.066 96.9684 174.956 94.4478 172.023C91.9272 169.09 90.3439 165.469 89.9024 161.627C89.628 159.163 89.6112 157.478 89.6112 157.478L116.676 152.561Z" fill="#37474F"/>
<path opacity="0.2" d="M116.53 158.083C116.53 160.278 115.753 162.403 114.335 164.08L128.195 172.76C130.231 174.032 131.738 175.997 132.44 178.293L137.346 194.32L132.922 176.451C132.412 174.394 131.118 172.619 129.315 171.506L116.514 163.599C117.824 160.334 116.53 158.083 116.53 158.083Z" fill="black"/>
<path d="M114.554 118.81H115.058C118.451 118.843 122.746 121.156 124.846 127.075L133 142.867L123.693 146.994L118.597 132.093L114.554 118.81Z" fill="#1D795A"/>
<g opacity="0.2">
<path d="M114.554 118.81H115.058C118.451 118.843 122.746 121.156 124.846 127.075L133 142.867L123.693 146.994L118.597 132.093L114.554 118.81Z" fill="black"/>
</g>
<path opacity="0.2" d="M121.089 129.287C121.738 131.152 121.778 133.162 121.884 135.139C121.99 137.116 122.214 139.49 123.116 141.249C124.111 140.556 125.304 140.205 126.516 140.248C127.728 140.292 128.893 140.727 129.836 141.49C130.51 142.058 131.029 142.788 131.342 143.612L123.704 147L118.608 132.098L116.105 123.878C117.253 124.404 118.285 125.153 119.14 126.082C119.996 127.01 120.658 128.1 121.089 129.287Z" fill="black"/>
<path d="M123.603 144.15C123.96 143.272 124.533 142.5 125.27 141.904C126.006 141.309 126.882 140.91 127.814 140.745C128.787 140.647 129.769 140.79 130.673 141.161C131.577 141.532 132.377 142.12 133 142.873C134.014 144.099 133.857 145.762 133.213 147.218C132.677 148.351 131.765 149.262 130.633 149.798C129.501 150.334 128.218 150.461 127.002 150.158C124.6 149.486 122.696 146.479 123.603 144.15Z" fill="#1D795A"/>
<g opacity="0.2">
<path d="M123.603 144.15C123.96 143.272 124.533 142.5 125.27 141.904C126.006 141.309 126.882 140.91 127.814 140.745C128.787 140.647 129.769 140.79 130.673 141.161C131.577 141.532 132.377 142.12 133 142.873C134.014 144.099 133.857 145.762 133.213 147.218C132.677 148.351 131.765 149.262 130.633 149.798C129.501 150.334 128.218 150.461 127.002 150.158C124.6 149.486 122.696 146.479 123.603 144.15Z" fill="black"/>
</g>
<path d="M89.2976 159.04C92.7864 162.4 109.525 162.999 118.065 154.868C117.247 149.128 117.505 142.979 118.065 136.898C118.625 130.816 122.164 120.182 115.377 118.944C106.31 117.174 101.735 118.804 94.332 120.73C87.864 131.505 88.7544 147.633 89.2976 159.04Z" fill="#1D795A"/>
<path opacity="0.2" d="M89.2976 159.04C92.7864 162.4 109.525 162.999 118.065 154.868C117.247 149.128 117.505 142.979 118.065 136.898C118.625 130.816 122.164 120.182 115.377 118.944C106.31 117.174 101.735 118.804 94.332 120.73C87.864 131.505 88.7544 147.633 89.2976 159.04Z" fill="black"/>
<path opacity="0.2" d="M99.204 147.073C98.8456 141.092 99.204 130.917 97.2384 127.943L91.84 126C88.5248 135.178 88.7152 146.524 89.1296 155.725C92.7666 157.82 96.7496 159.246 100.89 159.936C102.614 160.255 104.356 160.496 106.103 160.636C110.488 159.729 114.85 157.909 118.054 154.857C117.942 154.09 117.858 153.306 117.785 152.522C113.557 152.285 109.381 151.479 105.37 150.125C104.622 149.203 103.684 148.453 102.62 147.926C101.556 147.399 100.391 147.108 99.204 147.073Z" fill="black"/>
<path opacity="0.15" d="M113.999 158.637C113.999 158.637 113.999 158.637 113.999 158.609C113.999 158.581 113.999 158.609 113.999 158.575V158.547V158.514C113.999 158.514 113.999 158.514 113.999 158.48V158.452L120.092 147.112L120.932 148.07L114.839 159.41C114.801 159.473 114.774 159.544 114.761 159.617C114.755 159.638 114.754 159.661 114.759 159.682C114.764 159.704 114.774 159.724 114.789 159.74L113.949 158.788V158.743C113.949 158.743 113.949 158.715 113.949 158.704L113.999 158.637Z" fill="white"/>
<path opacity="0.2" d="M120.193 147.039V147.006V146.972V146.938V146.899V146.866V146.826L120.221 146.793V146.759V146.726V146.698L120.31 146.619H120.338H120.372H120.411H120.45H120.49L127.495 142.699H127.534H127.574H127.613H127.652H127.686H127.725H127.758H127.798H127.837H127.966C127.985 142.699 128.005 142.703 128.023 142.711C128.042 142.718 128.058 142.73 128.072 142.744L128.906 143.702C128.873 143.657 128.8 143.646 128.699 143.668C128.564 143.703 128.434 143.756 128.313 143.825L121.307 147.745C121.169 147.824 121.036 147.912 120.91 148.008C120.775 148.114 120.646 148.221 120.523 148.338C120.406 148.449 120.295 148.567 120.193 148.691C120.106 148.796 120.029 148.908 119.963 149.027L119.123 148.07L120.193 147.039Z" fill="white"/>
<path d="M123.715 151.351C123.715 151.351 119.291 153.591 117.331 152.359L118.367 150.433C115.583 150.39 112.871 151.312 110.69 153.042C106.506 152.277 102.422 151.043 98.5152 149.363L97.1264 148.803L90.0872 154.655C94.8864 157.763 117.527 159.891 119.879 158.441C122.231 156.99 124.034 154.112 123.715 151.351Z" fill="#FFA8A7"/>
<path d="M128.498 145.645C128.646 146.383 128.732 147.132 128.755 147.885C128.574 149.693 127.807 151.392 126.571 152.723C126.314 153.015 125.992 153.241 125.63 153.384C125.45 153.451 125.255 153.47 125.064 153.44C124.874 153.409 124.695 153.33 124.544 153.21C124.28 152.898 124.144 152.498 124.163 152.09C124.104 151.478 124.138 150.861 124.264 150.259C124.389 149.651 124.732 149.11 125.227 148.736C125.613 148.502 126.024 148.314 126.454 148.176C126.873 148 127.247 147.73 127.546 147.386L128.498 145.645Z" fill="#FFA8A7"/>
<path d="M97.1264 148.786L97.3392 129.858C97.3679 127.301 96.7393 124.779 95.5136 122.534L94.332 120.736C93.3897 120.83 92.486 121.159 91.7034 121.692C90.9208 122.225 90.2843 122.946 89.852 123.788C88.215 126.6 87.4564 129.838 87.6736 133.084C87.6736 133.084 86.9288 152.594 90.0872 154.638L97.1264 148.786Z" fill="#1D795A"/>
<path d="M101.853 149.559L97.1264 148.786L90.0872 154.638C92.1536 156.234 97.104 157.948 100.369 158.749C101.369 158.994 102.417 158.969 103.404 158.676L103.964 158.514L105.045 151.2C104.178 150.334 103.062 149.76 101.853 149.559Z" fill="#1D795A"/>
<g opacity="0.2">
<path d="M97.1264 148.786L97.3392 129.858C97.3679 127.301 96.7393 124.779 95.5136 122.534L94.332 120.736C93.3897 120.83 92.486 121.159 91.7034 121.692C90.9208 122.225 90.2843 122.946 89.852 123.788C88.215 126.6 87.4564 129.838 87.6736 133.084C87.6736 133.084 86.9288 152.594 90.0872 154.638L97.1264 148.786Z" fill="black"/>
<path d="M101.853 149.559L97.1264 148.787L90.0872 154.639C92.1536 156.235 97.104 157.948 100.369 158.749C101.369 158.994 102.417 158.969 103.404 158.676L103.964 158.514L105.045 151.2C104.178 150.334 103.062 149.761 101.853 149.559Z" fill="black"/>
</g>
<path d="M109.2 152.768C107.055 153.86 108.153 158.183 108.573 158.514L109.2 158.57C109.097 158.744 108.946 158.886 108.766 158.978C108.586 159.07 108.383 159.109 108.181 159.09C107.033 158.973 104.754 158.721 103.936 158.53C101.735 155.221 104.194 151.676 105.022 151.2C106.366 151.598 107.682 151.889 108.382 152.029C108.532 152.059 108.673 152.122 108.796 152.213C108.919 152.304 109.021 152.421 109.094 152.555L109.2 152.768Z" fill="#1D795A"/>
<path opacity="0.3" d="M109.2 152.768C107.055 153.86 108.153 158.183 108.573 158.514L109.2 158.57C109.097 158.744 108.946 158.886 108.766 158.978C108.586 159.07 108.383 159.109 108.181 159.09C107.033 158.973 104.754 158.721 103.936 158.53C101.735 155.221 104.194 151.676 105.022 151.2C106.366 151.598 107.682 151.889 108.382 152.029C108.532 152.059 108.673 152.122 108.796 152.213C108.919 152.304 109.021 152.421 109.094 152.555L109.2 152.768Z" fill="black"/>
<path d="M101.102 119.638C100.948 119.937 100.862 120.267 100.853 120.604C100.843 120.94 100.909 121.274 101.046 121.582C101.331 122.194 101.748 122.735 102.267 123.166C103.813 124.533 105.76 125.36 107.817 125.524C108.925 125.651 110.047 125.456 111.048 124.964C111.543 124.708 111.967 124.332 112.279 123.87C112.591 123.409 112.782 122.876 112.834 122.321C112.818 121.67 112.619 121.037 112.26 120.494C111.902 119.95 111.399 119.518 110.807 119.246C109.612 118.733 108.303 118.54 107.01 118.686C105.8 118.849 104.58 118.916 103.359 118.888C102.519 118.765 101.59 118.804 101.102 119.638Z" fill="#1D795A"/>
<path opacity="0.3" d="M101.102 119.638C100.948 119.937 100.862 120.267 100.853 120.604C100.843 120.94 100.909 121.274 101.046 121.582C101.331 122.194 101.748 122.735 102.267 123.166C103.813 124.533 105.76 125.36 107.817 125.524C108.925 125.651 110.047 125.456 111.048 124.964C111.543 124.708 111.967 124.332 112.279 123.87C112.591 123.409 112.782 122.876 112.834 122.321C112.818 121.67 112.619 121.037 112.26 120.494C111.902 119.95 111.399 119.518 110.807 119.246C109.612 118.733 108.303 118.54 107.01 118.686C105.8 118.849 104.58 118.916 103.359 118.888C102.519 118.765 101.59 118.804 101.102 119.638Z" fill="black"/>
<path d="M100.33 105.566L105.263 112.846H105.386L100.122 105.095C100.122 105.095 91.672 108.718 92.2824 111.311C92.2961 111.344 92.3073 111.378 92.316 111.412L92.3832 111.58C92.3811 111.597 92.3811 111.614 92.3832 111.63L92.5512 112.056C92.5184 111.982 92.4922 111.905 92.4728 111.826C91.8792 109.2 100.33 105.566 100.33 105.566Z" fill="#1D795A"/>
<path opacity="0.1" d="M100.33 105.566L105.263 112.846H105.386L100.122 105.095C100.122 105.095 91.672 108.718 92.2824 111.311C92.2961 111.344 92.3073 111.378 92.316 111.412L92.3832 111.58C92.3811 111.597 92.3811 111.614 92.3832 111.63L92.5512 112.056C92.5184 111.982 92.4922 111.905 92.4728 111.826C91.8792 109.2 100.33 105.566 100.33 105.566Z" fill="black"/>
<path d="M105.28 112.834L100.346 105.554C100.346 105.554 91.896 109.183 92.5064 111.77C92.5258 111.849 92.552 111.926 92.5848 112C93.8952 115.136 105.605 113.305 105.605 113.305L105.28 112.834Z" fill="#1D795A"/>
<path opacity="0.3" d="M105.28 112.834L100.346 105.554C100.346 105.554 91.896 109.183 92.5064 111.77C92.5258 111.849 92.552 111.926 92.5848 112C93.8952 115.136 105.605 113.305 105.605 113.305L105.28 112.834Z" fill="black"/>
<path d="M102.978 117.214C101.813 115.089 100.905 112.833 100.274 110.494C99.7136 108.13 98.1064 102.883 99.2488 100.744C100.111 99.1367 102.486 97.5127 104.082 96.6335C105.678 95.7543 107.766 96.0231 109.547 95.6367C111.112 95.2493 112.73 95.1244 114.335 95.2671C115.931 95.4631 117.942 98.3471 119.006 99.5567C120.686 101.461 120.742 104.468 119.532 106.708C118.322 108.948 116.077 110.482 113.68 111.35C111.283 112.218 108.724 112.47 106.193 112.745C105.146 114.145 104.026 115.802 102.978 117.214Z" fill="#263238"/>
<path d="M116.39 94.0072C113.904 91.7672 110.146 91.3192 106.87 92.1816C104.098 92.9152 100.884 93.772 99.2824 96.1016C97.6808 98.4312 98.4928 101.746 98.6776 105.062C101.57 102.753 104.995 101.205 108.64 100.559C109.071 100.481 109.514 100.425 109.962 100.38L109.743 99.2936C109.679 98.9843 109.682 98.6648 109.753 98.3567C109.823 98.0487 109.958 97.7594 110.15 97.5082C110.342 97.2571 110.585 97.05 110.864 96.9011C111.142 96.7521 111.45 96.6647 111.765 96.6448C112.267 96.6169 112.771 96.6281 113.271 96.6784C113.967 96.7501 114.624 97.0374 115.149 97.5002C115.674 97.963 116.042 98.5783 116.2 99.26C116.312 99.764 116.424 100.274 116.53 100.733C117.77 100.951 118.992 101.258 120.187 101.651C119.37 98.924 118.513 95.9224 116.39 94.0072Z" fill="#455A64"/>
<path d="M116.122 99.0305C114.011 98.5536 111.828 98.489 109.693 98.8401C109.691 98.9925 109.706 99.1446 109.738 99.2937L109.956 100.38C112.151 100.2 114.361 100.319 116.525 100.733C116.418 100.274 116.306 99.7641 116.194 99.2601C116.172 99.1817 116.144 99.1201 116.122 99.0305Z" fill="#37474F"/>
<path d="M111.014 116.48L110.69 120.098C110.677 120.379 110.749 120.658 110.897 120.898C111.096 121.276 111.173 121.706 111.116 122.128C111.058 122.551 110.87 122.946 110.578 123.256C110.113 123.613 109.545 123.81 108.959 123.816C107.858 123.875 106.756 123.701 105.727 123.306C104.697 122.91 103.762 122.302 102.984 121.52C102.827 121.355 102.705 121.161 102.624 120.948C102.544 120.736 102.506 120.51 102.514 120.282L102.749 111.11L111.014 116.48Z" fill="#FFA8A7"/>
<path d="M111.014 116.48L110.69 120.098C110.677 120.379 110.749 120.658 110.897 120.898C111.096 121.276 111.173 121.706 111.116 122.128C111.058 122.551 110.87 122.946 110.578 123.256C110.113 123.613 109.545 123.81 108.959 123.816C107.858 123.875 106.756 123.701 105.727 123.306C104.697 122.91 103.762 122.302 102.984 121.52C102.827 121.355 102.705 121.161 102.624 120.948C102.544 120.736 102.506 120.51 102.514 120.282L102.749 111.11L111.014 116.48Z" fill="#FFA8A7"/>
<path opacity="0.2" d="M105.442 118.278C106.355 119.064 107.464 119.586 108.651 119.79C109.354 119.887 110.07 119.816 110.74 119.582L111.014 116.486L102.749 111.098L102.665 114.458C103.253 115.946 104.208 117.26 105.442 118.278Z" fill="black"/>
<path d="M114.089 105.28C114.868 104.914 115.525 104.33 115.982 103.6C114.353 104.343 112.612 104.809 110.83 104.978C111.513 104.384 112.162 103.712 112.846 103.118C111.624 103.532 110.368 103.837 109.094 104.031C109.805 103.666 110.438 103.166 110.958 102.558C108.959 103.492 106.815 104.077 104.619 104.289C104.521 104.42 104.458 104.574 104.434 104.737L104.098 107.341C104.102 107.526 104.064 107.71 103.988 107.878C103.911 108.047 103.798 108.196 103.656 108.315C103.502 108.387 103.33 108.412 103.162 108.385C102.994 108.358 102.839 108.281 102.715 108.164C102.473 107.923 102.283 107.635 102.155 107.318C101.883 106.662 101.52 106.047 101.074 105.493C100.848 105.217 100.566 104.993 100.246 104.836C99.9267 104.678 99.5769 104.591 99.2207 104.58C98.0615 104.608 97.1767 105.767 97.0535 106.921C96.9969 107.517 97.0895 108.118 97.3232 108.669C97.5569 109.221 97.9242 109.705 98.3919 110.079C98.874 110.421 99.4339 110.637 100.021 110.708C100.608 110.778 101.203 110.701 101.752 110.482C101.226 112.493 102.278 114.649 103.841 116.015C105.403 117.382 107.408 118.121 109.362 118.815C110.432 119.202 111.563 119.594 112.678 119.375C113.586 119.171 114.4 118.668 114.99 117.947C115.577 117.23 116.058 116.432 116.418 115.578C118.182 111.771 119.186 107.657 119.375 103.466C117.884 104.679 116.01 105.322 114.089 105.28Z" fill="#FFA8A7"/>
<path d="M112.633 109.379L114.268 113.702L111.406 113.736L112.633 109.379Z" fill="#F28F8F"/>
<path d="M108.237 114.57L111.238 115.808C111.009 116.154 110.672 116.416 110.28 116.555C109.888 116.693 109.462 116.7 109.066 116.575C108.332 116.295 108.08 115.36 108.237 114.57Z" fill="#F28F8F"/>
<path opacity="0.3" d="M108.237 114.57L111.238 115.808C111.009 116.154 110.672 116.416 110.28 116.555C109.888 116.693 109.462 116.7 109.066 116.575C108.332 116.295 108.08 115.36 108.237 114.57Z" fill="black"/>
<path d="M110.085 116.609C109.749 116.699 109.394 116.688 109.066 116.575C108.79 116.44 108.56 116.227 108.404 115.962C108.249 115.697 108.175 115.392 108.192 115.086C108.642 115.05 109.089 115.188 109.441 115.471C109.793 115.754 110.023 116.161 110.085 116.609Z" fill="#F28F8F"/>
<path d="M108.59 108.59C108.532 108.796 108.558 109.017 108.663 109.204C108.768 109.391 108.943 109.528 109.15 109.586C109.356 109.644 109.577 109.618 109.764 109.513C109.951 109.408 110.088 109.233 110.146 109.026C110.175 108.924 110.183 108.817 110.171 108.712C110.158 108.606 110.125 108.505 110.073 108.412C110.021 108.319 109.951 108.238 109.868 108.172C109.784 108.107 109.689 108.058 109.586 108.03C109.484 108.001 109.377 107.993 109.272 108.005C109.166 108.018 109.065 108.051 108.972 108.103C108.879 108.155 108.798 108.225 108.732 108.308C108.667 108.392 108.618 108.487 108.59 108.59Z" fill="#263238"/>
<path d="M115.041 109.939C114.983 110.146 115.009 110.367 115.114 110.554C115.219 110.74 115.394 110.878 115.601 110.936C115.807 110.994 116.028 110.967 116.215 110.862C116.402 110.757 116.54 110.582 116.598 110.376C116.626 110.274 116.635 110.167 116.622 110.061C116.609 109.956 116.576 109.854 116.524 109.762C116.472 109.669 116.402 109.588 116.319 109.522C116.235 109.456 116.14 109.408 116.038 109.379C115.935 109.351 115.829 109.342 115.723 109.355C115.618 109.367 115.516 109.401 115.423 109.453C115.331 109.505 115.249 109.574 115.184 109.658C115.118 109.741 115.069 109.837 115.041 109.939Z" fill="#263238"/>
<path d="M116.799 105.958L118.188 107.638C118.327 107.446 118.402 107.216 118.402 106.98C118.402 106.743 118.327 106.513 118.188 106.322C118.014 106.137 117.791 106.005 117.546 105.941C117.3 105.876 117.042 105.882 116.799 105.958Z" fill="#263238"/>
<path d="M109.648 104.625L107.587 105.336C107.568 105.102 107.624 104.868 107.745 104.667C107.867 104.466 108.049 104.308 108.265 104.216C108.511 104.148 108.77 104.15 109.015 104.222C109.26 104.294 109.479 104.434 109.648 104.625Z" fill="#263238"/>
<path d="M63.504 145.51L97.244 171.651C98.2736 172.448 99.1289 173.448 99.7569 174.588C100.385 175.728 100.772 176.986 100.895 178.282L104.681 217.941C104.472 218.135 104.205 218.254 103.921 218.28C103.637 218.305 103.353 218.235 103.113 218.081L96.3928 178.265C96.2801 177.586 96.0215 176.939 95.6348 176.37C95.2481 175.8 94.7425 175.322 94.1528 174.967L64.3272 157.097C60.4184 154.773 59.7296 146.558 63.504 145.51Z" fill="#455A64"/>
<path opacity="0.3" d="M63.504 145.51L97.244 171.651C98.2736 172.448 99.1289 173.448 99.7569 174.588C100.385 175.728 100.772 176.986 100.895 178.282L104.681 217.941C104.472 218.135 104.205 218.254 103.921 218.28C103.637 218.305 103.353 218.235 103.113 218.081L96.3928 178.265C96.2801 177.586 96.0215 176.939 95.6348 176.37C95.2481 175.8 94.7425 175.322 94.1528 174.967L64.3272 157.097C60.4184 154.773 59.7296 146.558 63.504 145.51Z" fill="white"/>
<path d="M113.999 158.67C113.999 158.67 113.999 158.698 113.999 158.71V158.754L114.839 159.706C114.839 159.706 114.839 159.667 114.839 159.645C114.873 159.79 115.086 159.785 115.45 159.583L122.455 155.663C122.997 155.349 123.457 154.911 123.799 154.386L129.92 143.03C130.015 142.839 130.015 142.727 129.92 142.677H129.948L129.114 141.719C129.1 141.705 129.083 141.693 129.065 141.686C129.047 141.678 129.027 141.674 129.007 141.674H128.878H128.839H128.8H128.766H128.727H128.694H128.654H128.615H128.576H128.537L121.531 145.594H121.492H121.453H121.414H121.38H121.352L121.262 145.673V145.701V145.734V145.768L121.234 145.802V145.841V145.874V145.914V145.947V145.981V146.014V146.048L115.142 157.388V157.416C115.142 157.416 115.142 157.416 115.142 157.45V157.483V157.511C115.142 157.511 115.142 157.511 115.142 157.545C115.142 157.578 115.142 157.545 115.142 157.573V157.618L113.999 158.67ZM129.718 142.66H129.746C129.746 142.66 129.774 142.66 129.797 142.66C129.771 142.654 129.744 142.654 129.718 142.66ZM121.57 147.342L121.766 147.179L121.57 147.342ZM121.24 147.694L121.324 147.605L121.24 147.694ZM114.839 159.6C114.852 159.527 114.879 159.456 114.918 159.393C114.877 159.463 114.85 159.541 114.839 159.622V159.6Z" fill="#455A64"/>
<path d="M72.8672 213.937L75.2585 215.326L75.2472 212.565L72.8672 213.937Z" fill="#E6E6E6"/>
<path d="M75.152 185.769L51.9232 199.175L75.152 185.769Z" fill="#CFCFCF"/>
<path d="M75.2472 212.565V215.326L77.7336 213.892L77.6496 181.44L49.4088 197.747L49.4984 230.194L51.9848 228.76V225.999L72.8672 213.92L75.2472 212.565ZM51.9232 199.175L75.152 185.769L75.18 196.291L51.9568 209.731L51.9232 199.175ZM51.9624 212.582L75.1912 199.17V199.203V209.698L51.9904 223.104L51.9624 212.582Z" fill="#E0E0E0"/>
<path d="M75.2192 209.697L75.1912 199.203V199.175L51.9624 212.581L51.9904 223.104L75.2192 209.697Z" fill="#E0E0E0"/>
<path d="M75.18 196.291L75.152 185.769L51.9232 199.175L51.9568 209.703L75.18 196.291Z" fill="#E0E0E0"/>
<path d="M49.4088 197.747L24.752 183.417L24.8416 215.869L49.4984 230.194L49.4088 197.747Z" fill="#E0E0E0"/>
<path d="M49.4088 197.747L77.6496 181.44L52.9928 167.11L24.752 183.417L49.4088 197.747Z" fill="#E0E0E0"/>
<path opacity="0.2" d="M72.8672 213.937L75.2585 215.326L75.2472 212.565L72.8672 213.937Z" fill="white"/>
<path d="M75.152 185.769L51.9232 199.175L75.152 185.769Z" fill="#CFCFCF"/>
<path opacity="0.8" d="M75.2192 209.697L75.1912 199.203V199.175L51.9624 212.581L51.9904 223.104L75.2192 209.697Z" fill="white"/>
<path opacity="0.8" d="M75.18 196.291L75.152 185.769L51.9232 199.175L51.9568 209.703L75.18 196.291Z" fill="white"/>
<path d="M67.5808 194.051L67.5696 192.601L59.528 197.243L59.5336 198.699L67.5808 194.051Z" fill="#E0E0E0"/>
<path d="M67.5808 207.273L67.5696 205.817L59.528 210.459L59.5336 211.915L67.5808 207.273Z" fill="#E0E0E0"/>
<path opacity="0.2" d="M49.4088 197.747L24.752 183.417L24.8416 215.869L49.4984 230.194L49.4088 197.747Z" fill="white"/>
<path opacity="0.4" d="M49.4088 197.747L77.6496 181.44L52.9928 167.11L24.752 183.417L49.4088 197.747Z" fill="white"/>
<path opacity="0.05" d="M43.932 175.482C47.068 173.667 52.136 173.667 55.2496 175.482C58.3632 177.296 58.3464 180.225 55.2104 182.039C52.0744 183.854 47.0064 183.848 43.8928 182.039C40.7792 180.23 40.796 177.29 43.932 175.482Z" fill="black"/>
<path d="M41.2104 164.08L49.812 164.332L58.4192 164.08C58.7888 169.893 57.652 175.812 56.0896 178.707C55.7263 179.448 55.1384 180.056 54.4096 180.443C51.8728 181.91 47.768 181.91 45.248 180.443C44.5057 180.053 43.9146 179.426 43.568 178.662C41.9664 175.756 40.8408 169.87 41.2104 164.08Z" fill="white"/>
<path d="M43.7528 160.563C40.3928 162.512 40.3592 165.665 43.708 167.613C47.0568 169.562 52.5056 169.557 55.8768 167.613C59.248 165.67 59.2368 162.512 55.916 160.563C52.5952 158.614 47.124 158.62 43.7528 160.563Z" fill="#EBEBEB"/>
<path d="M45.0856 161.336C42.4536 162.859 42.4424 165.317 45.052 166.835C47.6616 168.353 51.9176 168.353 54.572 166.835C57.2264 165.317 57.2152 162.859 54.6056 161.336C51.996 159.813 47.712 159.818 45.0856 161.336Z" fill="#E0E0E0"/>
<g opacity="0.15">
<path d="M45.0856 161.336C42.4536 162.859 42.4424 165.317 45.052 166.835C47.6616 168.353 51.9176 168.353 54.572 166.835C57.2264 165.317 57.2152 162.859 54.6056 161.336C51.996 159.813 47.712 159.818 45.0856 161.336Z" fill="black"/>
</g>
<path d="M50.5344 164.332C49.8444 164.907 49.0281 165.311 48.1522 165.511C47.2762 165.71 46.3655 165.7 45.4944 165.48C44.6548 165.223 43.8922 164.762 43.2754 164.137C42.6585 163.513 42.2068 162.744 41.9608 161.902C42.9792 161.418 43.9118 160.771 44.7216 159.986C43.428 159.661 42.0687 159.71 40.8016 160.126C40.4513 159.576 40.2411 158.949 40.1893 158.298C40.1376 157.648 40.2459 156.995 40.5048 156.397C41.9731 155.743 43.6249 155.628 45.1696 156.072C44.5288 155.512 43.7789 155.092 42.9674 154.836C42.1559 154.581 41.3002 154.496 40.4544 154.588C40.3286 152.121 40.7098 149.655 41.5744 147.342C44.7832 147.51 47.8912 148.887 48.944 149.884C48.9901 151.032 48.8693 152.181 48.5856 153.294C48.9998 153.082 49.3535 152.768 49.6139 152.383C49.8744 151.997 50.033 151.551 50.0752 151.088C52.0856 151.592 52.9424 152.594 53.256 153.356C52.9678 154.783 52.3136 156.111 51.3576 157.209C53.2392 156.649 54.0064 154.538 54.0064 154.538C55.8712 158.928 55.5184 163.901 50.5344 164.332Z" fill="#1D795A"/>
<path opacity="0.2" d="M50.5344 164.332C49.8444 164.907 49.0281 165.311 48.1522 165.511C47.2762 165.71 46.3655 165.7 45.4944 165.48C44.6548 165.223 43.8922 164.762 43.2754 164.137C42.6585 163.513 42.2068 162.744 41.9608 161.902C42.9792 161.418 43.9118 160.771 44.7216 159.986C43.428 159.661 42.0687 159.71 40.8016 160.126C40.4513 159.576 40.2411 158.949 40.1893 158.298C40.1376 157.648 40.2459 156.995 40.5048 156.397C41.9731 155.743 43.6249 155.628 45.1696 156.072C44.5288 155.512 43.7789 155.092 42.9674 154.836C42.1559 154.581 41.3002 154.496 40.4544 154.588C40.3286 152.121 40.7098 149.655 41.5744 147.342C44.7832 147.51 47.8912 148.887 48.944 149.884C48.9901 151.032 48.8693 152.181 48.5856 153.294C48.9998 153.082 49.3535 152.768 49.6139 152.383C49.8744 151.997 50.033 151.551 50.0752 151.088C52.0856 151.592 52.9424 152.594 53.256 153.356C52.9678 154.783 52.3136 156.111 51.3576 157.209C53.2392 156.649 54.0064 154.538 54.0064 154.538C55.8712 158.928 55.5184 163.901 50.5344 164.332Z" fill="black"/>
<path opacity="0.3" d="M50.5344 164.332C49.8444 164.907 49.0281 165.311 48.1522 165.511C47.2762 165.71 46.3655 165.7 45.4944 165.48C44.6548 165.223 43.8922 164.762 43.2754 164.137C42.6585 163.513 42.2068 162.744 41.9608 161.902C42.9792 161.418 43.9118 160.771 44.7216 159.986C43.428 159.661 42.0687 159.71 40.8016 160.126C40.4513 159.576 40.2411 158.949 40.1893 158.298C40.1376 157.648 40.2459 156.995 40.5048 156.397C41.9731 155.743 43.6249 155.628 45.1696 156.072C44.5288 155.512 43.7789 155.092 42.9674 154.836C42.1559 154.581 41.3002 154.496 40.4544 154.588C40.3286 152.121 40.7098 149.655 41.5744 147.342C44.7832 147.51 47.8912 148.887 48.944 149.884C48.9901 151.032 48.8693 152.181 48.5856 153.294C48.9998 153.082 49.3535 152.768 49.6139 152.383C49.8744 151.997 50.033 151.551 50.0752 151.088C52.0856 151.592 52.9424 152.594 53.256 153.356C52.9678 154.783 52.3136 156.111 51.3576 157.209C53.2392 156.649 54.0064 154.538 54.0064 154.538C55.8712 158.928 55.5184 163.901 50.5344 164.332Z" fill="white"/>
<path d="M50.6464 164.808C50.6954 164.802 50.7405 164.779 50.7727 164.741C50.8048 164.704 50.8217 164.656 50.82 164.606C50.512 160.558 48.1936 153.871 42.6664 148.366C42.6497 148.349 42.6297 148.335 42.6076 148.326C42.5854 148.317 42.5617 148.312 42.5376 148.312C42.5136 148.312 42.4898 148.317 42.4677 148.326C42.4455 148.335 42.4255 148.349 42.4088 148.366C42.3914 148.384 42.3775 148.404 42.3681 148.427C42.3586 148.449 42.3538 148.473 42.3538 148.498C42.3538 148.522 42.3586 148.547 42.3681 148.569C42.3775 148.592 42.3914 148.612 42.4088 148.63C47.8632 154.073 50.148 160.658 50.4504 164.646C50.4525 164.669 50.4593 164.692 50.4703 164.713C50.4813 164.734 50.4964 164.753 50.5146 164.768C50.5328 164.783 50.5538 164.794 50.5765 164.801C50.5991 164.808 50.6229 164.81 50.6464 164.808Z" fill="#F5F5F5"/>
<path d="M49.1288 166.499C49.772 167.025 50.5305 167.391 51.3424 167.567C52.1542 167.744 52.9963 167.726 53.7998 167.514C54.6032 167.303 55.3452 166.904 55.9651 166.351C56.585 165.798 57.0652 165.106 57.3664 164.332C56.446 163.918 55.6032 163.35 54.8744 162.652C56.0945 162.361 57.3701 162.4 58.5704 162.764C58.9332 162.3 59.171 161.75 59.2612 161.168C59.3514 160.585 59.2909 159.99 59.0856 159.437C57.6886 158.862 56.1396 158.77 54.684 159.174C55.9795 158.162 57.6101 157.678 59.248 157.819C59.5282 155.644 59.3177 153.434 58.632 151.351C55.5744 151.536 52.5504 152.801 51.4976 153.697C51.3798 154.708 51.4214 155.73 51.6208 156.727C51.2518 156.549 50.9387 156.273 50.7155 155.93C50.4924 155.586 50.3677 155.188 50.3552 154.778C48.44 155.243 47.5552 156.139 47.236 156.817C47.417 158.074 47.9532 159.253 48.7816 160.216C48.2447 160.021 47.7588 159.707 47.3603 159.298C46.9617 158.889 46.6608 158.395 46.48 157.853C44.4696 161.745 44.5032 166.124 49.1288 166.499Z" fill="#1D795A"/>
<path opacity="0.3" d="M49.1288 166.499C49.772 167.025 50.5305 167.391 51.3424 167.567C52.1542 167.744 52.9963 167.726 53.7998 167.514C54.6032 167.303 55.3452 166.904 55.9651 166.351C56.585 165.798 57.0652 165.106 57.3664 164.332C56.446 163.918 55.6032 163.35 54.8744 162.652C56.0945 162.361 57.3701 162.4 58.5704 162.764C58.9332 162.3 59.171 161.75 59.2612 161.168C59.3514 160.585 59.2909 159.99 59.0856 159.437C57.6886 158.862 56.1396 158.77 54.684 159.174C55.9795 158.162 57.6101 157.678 59.248 157.819C59.5282 155.644 59.3177 153.434 58.632 151.351C55.5744 151.536 52.5504 152.801 51.4976 153.697C51.3798 154.708 51.4214 155.73 51.6208 156.727C51.2518 156.549 50.9387 156.273 50.7155 155.93C50.4924 155.586 50.3677 155.188 50.3552 154.778C48.44 155.243 47.5552 156.139 47.236 156.817C47.417 158.074 47.9532 159.253 48.7816 160.216C48.2447 160.021 47.7588 159.707 47.3603 159.298C46.9617 158.889 46.6608 158.395 46.48 157.853C44.4696 161.745 44.5032 166.124 49.1288 166.499Z" fill="white"/>
<path d="M49.0056 166.942C49.0498 166.941 49.0924 166.925 49.1262 166.896C49.1599 166.868 49.1826 166.828 49.1904 166.785C49.7168 163.257 52.276 157.399 57.7696 152.51C57.787 152.493 57.8009 152.473 57.8103 152.45C57.8198 152.428 57.8246 152.403 57.8246 152.379C57.8246 152.354 57.8198 152.33 57.8103 152.308C57.8009 152.285 57.787 152.264 57.7696 152.247C57.7529 152.23 57.7329 152.216 57.7107 152.207C57.6886 152.197 57.6648 152.193 57.6408 152.193C57.6168 152.193 57.593 152.197 57.5708 152.207C57.5487 152.216 57.5287 152.23 57.512 152.247C51.9456 157.209 49.3472 163.156 48.8096 166.746C48.8032 166.794 48.8161 166.843 48.8454 166.881C48.8748 166.92 48.9182 166.946 48.9664 166.953L49.0056 166.942Z" fill="white"/>
<path d="M111.602 43.7583L89.0176 56.6383C88.5087 56.9373 88.0863 57.3635 87.7917 57.875C87.4972 58.3864 87.3407 58.9657 87.3376 59.5559V80.7463C87.3523 81.3318 87.5216 81.9029 87.8283 82.4018C88.135 82.9007 88.5682 83.3097 89.0839 83.5871C89.5996 83.8646 90.1796 84.0008 90.7649 83.9818C91.3502 83.9628 91.9201 83.7894 92.4168 83.4791L98.8568 79.8503L99.1256 80.2871C99.1378 80.303 99.153 80.3164 99.1704 80.3263H99.204C99.6968 80.6511 100.565 81.1215 100.761 81.2167C100.806 81.2312 100.855 81.2277 100.898 81.2068C100.941 81.1859 100.974 81.1494 100.99 81.1047L102.11 77.9743L114.99 70.5991C115.503 70.3031 115.929 69.8768 116.224 69.3635C116.519 68.8502 116.673 68.268 116.67 67.6759V46.4799C116.687 44.0663 113.12 42.8903 111.602 43.7583Z" fill="#1D795A"/>
<path opacity="0.2" d="M99.12 80.3095C99.1322 80.3254 99.1474 80.3388 99.1648 80.3487H99.1984C99.6912 80.6735 100.559 81.1439 100.755 81.2391C100.732 81.2343 100.71 81.2249 100.691 81.2114C100.672 81.198 100.656 81.1807 100.643 81.1607L99.5792 79.4303L99.7864 79.3127L98.8512 79.8727L99.12 80.3095Z" fill="white"/>
<path opacity="0.4" d="M91.112 59.8303C91.3302 59.3976 91.6375 59.0159 92.0136 58.7103C92.1421 58.6062 92.2788 58.5125 92.4224 58.4303L115.002 45.5503C115.172 45.4518 115.366 45.4001 115.563 45.4002C115.76 45.4004 115.953 45.4526 116.124 45.5514C116.294 45.6502 116.435 45.7923 116.533 45.9631C116.631 46.134 116.682 46.3277 116.682 46.5247C116.682 44.0999 113.109 42.9239 111.597 43.7919L89.012 56.6719C88.4877 56.9739 88.0559 57.4135 87.7632 57.9431L91.112 59.8303Z" fill="white"/>
<path opacity="0.2" d="M90.72 82.5327V61.3423C90.7115 61.2099 90.7115 61.0771 90.72 60.9447C90.7764 60.5547 90.8955 60.1765 91.0728 59.8247L87.7128 57.9263C87.4282 58.4284 87.2778 58.9955 87.276 59.5727V80.7631C87.2907 81.3485 87.46 81.9196 87.7667 82.4186C88.0734 82.9175 88.5066 83.3264 89.0223 83.6039C89.538 83.8813 90.118 84.0175 90.7033 83.9985C91.2886 83.9796 91.8585 83.8062 92.3552 83.4959C92.1868 83.5832 91.999 83.6263 91.8094 83.6212C91.6198 83.6161 91.4346 83.5629 91.2711 83.4666C91.1077 83.3704 90.9714 83.2342 90.875 83.0708C90.7786 82.9074 90.7253 82.7223 90.72 82.5327Z" fill="white"/>
<path d="M106.837 70.9631C106.792 71.9711 105.717 73.6343 104.664 74.2783L104.574 74.3343C103.454 74.9783 102.374 74.6591 102.234 73.6231L106.837 70.9631Z" fill="white"/>
<path d="M110.88 66.3096C111.166 66.416 111.255 67.0152 111.059 67.4912C110.961 67.7512 110.777 67.9703 110.538 68.1128L109.917 68.4768L109.295 68.8352L104.535 71.5792L98.6272 74.9952C98.1344 75.2752 97.9272 75.1408 97.9048 74.592C97.8995 74.2121 98.0174 73.8408 98.2408 73.5336C98.8846 72.5128 99.3063 71.368 99.4784 70.1736C99.6385 69.0609 99.7134 67.9376 99.7024 66.8136C99.6886 66.1659 99.7242 65.5182 99.8088 64.876C100.144 62.9343 101.009 61.1227 102.306 59.64C102.473 59.4929 102.599 59.3053 102.671 59.0953C102.744 58.8853 102.761 58.6601 102.721 58.4416C102.695 57.7628 102.843 57.0888 103.152 56.4838C103.461 55.8789 103.92 55.3633 104.485 54.9864C104.778 54.8018 105.128 54.7283 105.47 54.7792C106.109 54.8968 106.378 55.4512 106.266 56.392C106.198 56.952 106.266 57.092 106.697 57.1144C108.377 57.2152 109.256 58.3464 109.323 60.5136C109.357 61.572 109.379 62.6304 109.452 63.6608C109.477 64.3632 109.681 65.0475 110.046 65.6488C110.245 65.9536 110.538 66.1855 110.88 66.3096ZM105.521 65.52L106.002 59.752L103.04 61.4656L103.55 66.6568L105.538 65.5368L105.521 65.52ZM104.552 69.636C104.968 69.3898 105.318 69.046 105.572 68.6343C105.826 68.2226 105.975 67.7553 106.008 67.2728C106.008 66.4216 105.409 66.1192 104.546 66.6176C104.13 66.8579 103.779 67.1972 103.525 67.6055C103.271 68.0139 103.122 68.4785 103.09 68.9584C103.09 69.7928 103.695 70.1344 104.552 69.636ZM104.513 56.3864C104.337 56.5009 104.19 56.6554 104.085 56.8374C103.98 57.0194 103.919 57.2237 103.908 57.4336C103.908 57.8144 104.177 57.9656 104.507 57.7808C104.683 57.6668 104.829 57.5131 104.934 57.3322C105.039 57.1512 105.1 56.9481 105.112 56.7392C105.112 56.3528 104.843 56.1792 104.507 56.3864" fill="white"/>
</svg>
