<svg width="40" height="40" viewBox="0 0 40 40" fill="none" xmlns="http://www.w3.org/2000/svg">
<path d="M34.62 16.9253L32.34 10.0853C32.0092 9.08946 31.3731 8.22316 30.5219 7.60951C29.6706 6.99585 28.6477 6.66606 27.5983 6.66699H12.4017C11.3523 6.66606 10.3294 6.99585 9.47814 7.60951C8.62692 8.22316 7.99074 9.08946 7.66 10.0853L5.37999 16.9253C4.7737 17.179 4.25593 17.6063 3.89177 18.1534C3.52762 18.7005 3.33333 19.3431 3.33333 20.0003V28.3337C3.33333 29.5637 4.00666 30.627 4.99999 31.2053V35.0003C4.99999 35.4424 5.17559 35.8663 5.48815 36.1788C5.80071 36.4914 6.22463 36.667 6.66666 36.667H8.33333C8.77536 36.667 9.19928 36.4914 9.51184 36.1788C9.8244 35.8663 10 35.4424 10 35.0003V31.667H30V35.0003C30 35.4424 30.1756 35.8663 30.4882 36.1788C30.8007 36.4914 31.2246 36.667 31.6667 36.667H33.3333C33.7754 36.667 34.1993 36.4914 34.5118 36.1788C34.8244 35.8663 35 35.4424 35 35.0003V31.2053C35.5056 30.9153 35.9259 30.4972 36.2185 29.9931C36.5111 29.4889 36.6657 28.9166 36.6667 28.3337V20.0003C36.6667 19.3431 36.4724 18.7005 36.1082 18.1534C35.7441 17.6063 35.2263 17.179 34.62 16.9253ZM12.4017 10.0003H27.5967C28.315 10.0003 28.9517 10.457 29.1783 11.1403L31.0217 16.667H8.97833L10.82 11.1403C10.9306 10.8083 11.1429 10.5195 11.4267 10.3149C11.7106 10.1103 12.0517 10.0002 12.4017 10.0003V10.0003ZM9.16666 26.667C8.83825 26.6669 8.51307 26.6021 8.2097 26.4763C7.90632 26.3505 7.6307 26.1662 7.39855 25.9339C7.1664 25.7016 6.98229 25.4259 6.85671 25.1224C6.73113 24.819 6.66655 24.4937 6.66666 24.1653C6.66677 23.8369 6.73157 23.5117 6.85734 23.2084C6.98312 22.905 7.16743 22.6294 7.39973 22.3972C7.63203 22.1651 7.90778 21.981 8.21124 21.8554C8.51469 21.7298 8.83991 21.6652 9.16833 21.6653C9.83159 21.6655 10.4676 21.9292 10.9364 22.3984C11.4053 22.8675 11.6685 23.5037 11.6683 24.167C11.6681 24.8303 11.4044 25.4663 10.9353 25.9351C10.4661 26.4039 9.82992 26.6672 9.16666 26.667V26.667ZM30.8333 26.667C30.5049 26.6669 30.1797 26.6021 29.8764 26.4763C29.573 26.3505 29.2974 26.1662 29.0652 25.9339C28.8331 25.7016 28.649 25.4259 28.5234 25.1224C28.3978 24.819 28.3332 24.4937 28.3333 24.1653C28.3334 23.8369 28.3982 23.5117 28.524 23.2084C28.6498 22.905 28.8341 22.6294 29.0664 22.3972C29.2987 22.1651 29.5744 21.981 29.8779 21.8554C30.1814 21.7298 30.5066 21.6652 30.835 21.6653C31.4983 21.6655 32.1343 21.9292 32.6031 22.3984C33.0719 22.8675 33.3352 23.5037 33.335 24.167C33.3348 24.8303 33.0711 25.4663 32.6019 25.9351C32.1328 26.4039 31.4966 26.6672 30.8333 26.667V26.667Z" fill="#F7FDFB"/>
</svg>
