<svg width="16" height="17" viewBox="0 0 16 17" fill="none" xmlns="http://www.w3.org/2000/svg">
<path d="M1.3335 5.16659C1.3335 4.81296 1.47397 4.47382 1.72402 4.22378C1.97407 3.97373 2.31321 3.83325 2.66683 3.83325H13.3335C13.6871 3.83325 14.0263 3.97373 14.2763 4.22378C14.5264 4.47382 14.6668 4.81296 14.6668 5.16659V11.8333C14.6668 12.1869 14.5264 12.526 14.2763 12.7761C14.0263 13.0261 13.6871 13.1666 13.3335 13.1666H2.66683C2.31321 13.1666 1.97407 13.0261 1.72402 12.7761C1.47397 12.526 1.3335 12.1869 1.3335 11.8333V5.16659Z" stroke="#FAFAFA" stroke-linecap="round" stroke-linejoin="round"/>
<path d="M8 10.4999C9.10457 10.4999 10 9.60445 10 8.49988C10 7.39531 9.10457 6.49988 8 6.49988C6.89543 6.49988 6 7.39531 6 8.49988C6 9.60445 6.89543 10.4999 8 10.4999Z" stroke="#FAFAFA" stroke-linecap="round" stroke-linejoin="round"/>
<path d="M1.3335 6.49992C2.04074 6.49992 2.71902 6.21897 3.21911 5.71887C3.71921 5.21877 4.00016 4.5405 4.00016 3.83325M12.0002 13.1666C12.0002 12.4593 12.2811 11.7811 12.7812 11.281C13.2813 10.7809 13.9596 10.4999 14.6668 10.4999" stroke="#FAFAFA" stroke-linecap="round" stroke-linejoin="round"/>
</svg>
