<svg width="128" height="153" viewBox="0 0 128 153" fill="none" xmlns="http://www.w3.org/2000/svg">
<path d="M22.0566 140.253C21.4544 140.253 20.9847 140.084 20.6475 139.747C20.3343 139.41 20.1777 138.94 20.1777 138.338V117.67H12.5176C12.0117 117.67 11.6143 117.537 11.3252 117.272C11.0361 116.983 10.8916 116.586 10.8916 116.08C10.8916 115.574 11.0361 115.189 11.3252 114.924C11.6143 114.659 12.0117 114.526 12.5176 114.526H31.5596C32.0895 114.526 32.499 114.659 32.7881 114.924C33.0771 115.189 33.2217 115.574 33.2217 116.08C33.2217 116.586 33.0771 116.983 32.7881 117.272C32.499 117.537 32.0895 117.67 31.5596 117.67H23.8994V138.338C23.8994 138.94 23.7428 139.41 23.4297 139.747C23.1406 140.084 22.6829 140.253 22.0566 140.253ZM34.7096 140.253C34.1074 140.253 33.6497 140.096 33.3366 139.783C33.0234 139.446 32.8668 138.988 32.8668 138.41V123.957C32.8668 123.355 33.0234 122.897 33.3366 122.584C33.6497 122.271 34.0833 122.114 34.6374 122.114C35.2155 122.114 35.6491 122.271 35.9381 122.584C36.2513 122.897 36.4079 123.355 36.4079 123.957V126.595H36.0465C36.4319 125.149 37.1426 124.053 38.1784 123.307C39.2142 122.56 40.539 122.126 42.153 122.006C42.5866 121.982 42.9238 122.09 43.1647 122.331C43.4297 122.572 43.5742 122.945 43.5983 123.451C43.6465 123.957 43.5381 124.367 43.2731 124.68C43.0081 124.969 42.5986 125.137 42.0446 125.186L41.3581 125.258C39.7923 125.402 38.5999 125.896 37.7809 126.739C36.9619 127.582 36.5524 128.739 36.5524 130.208V138.41C36.5524 138.988 36.3958 139.446 36.0827 139.783C35.7936 140.096 35.3359 140.253 34.7096 140.253ZM51.8064 140.325C50.5779 140.325 49.4698 140.084 48.4821 139.603C47.5186 139.121 46.7598 138.47 46.2058 137.651C45.6517 136.832 45.3747 135.905 45.3747 134.869C45.3747 133.568 45.6999 132.545 46.3503 131.798C47.0248 131.027 48.1208 130.485 49.6384 130.172C51.1801 129.835 53.2517 129.666 55.8532 129.666H57.5515V131.906H55.8894C54.155 131.906 52.782 131.991 51.7702 132.159C50.7585 132.328 50.0359 132.617 49.6023 133.026C49.1928 133.412 48.988 133.954 48.988 134.652C48.988 135.568 49.3012 136.314 49.9275 136.893C50.5538 137.447 51.4209 137.724 52.529 137.724C53.4203 137.724 54.2032 137.519 54.8777 137.109C55.5521 136.676 56.0821 136.098 56.4675 135.375C56.877 134.652 57.0818 133.821 57.0818 132.882V128.727C57.0818 127.354 56.7927 126.366 56.2146 125.764C55.6364 125.161 54.6849 124.86 53.3601 124.86C52.5892 124.86 51.7823 124.957 50.9392 125.149C50.1202 125.342 49.265 125.667 48.3737 126.125C47.9642 126.318 47.615 126.378 47.3259 126.306C47.0368 126.233 46.808 126.077 46.6394 125.836C46.4708 125.571 46.3744 125.294 46.3503 125.005C46.3503 124.692 46.4226 124.391 46.5671 124.102C46.7357 123.812 47.0127 123.596 47.3982 123.451C48.4581 122.945 49.5059 122.584 50.5417 122.367C51.5775 122.15 52.5531 122.042 53.4685 122.042C55.0824 122.042 56.4073 122.295 57.4431 122.801C58.503 123.307 59.2859 124.077 59.7917 125.113C60.2976 126.149 60.5505 127.486 60.5505 129.124V138.41C60.5505 138.988 60.406 139.446 60.1169 139.783C59.8279 140.096 59.4063 140.253 58.8523 140.253C58.3223 140.253 57.9008 140.096 57.5876 139.783C57.2745 139.446 57.1179 138.988 57.1179 138.41V136.062H57.4431C57.2504 136.953 56.889 137.724 56.3591 138.374C55.8532 139 55.2149 139.482 54.4441 139.819C53.6732 140.157 52.794 140.325 51.8064 140.325ZM73.3455 140.325C71.5388 140.325 69.9731 139.952 68.6482 139.205C67.3474 138.434 66.3357 137.362 65.6131 135.989C64.8904 134.592 64.5291 132.954 64.5291 131.075C64.5291 129.678 64.7338 128.425 65.1433 127.317C65.5528 126.185 66.131 125.234 66.8777 124.463C67.6485 123.692 68.5759 123.102 69.6599 122.692C70.768 122.259 71.9965 122.042 73.3455 122.042C74.1886 122.042 75.0678 122.174 75.9832 122.439C76.9226 122.68 77.7898 123.09 78.5847 123.668C78.8979 123.861 79.0906 124.102 79.1629 124.391C79.2592 124.656 79.2713 124.933 79.199 125.222C79.1508 125.511 79.0183 125.764 78.8015 125.98C78.6088 126.173 78.3679 126.294 78.0789 126.342C77.7898 126.366 77.4767 126.282 77.1394 126.089C76.5613 125.679 75.9711 125.39 75.3689 125.222C74.7667 125.029 74.1886 124.933 73.6345 124.933C72.7673 124.933 71.9965 125.077 71.322 125.366C70.6716 125.631 70.1176 126.029 69.6599 126.559C69.2022 127.064 68.853 127.703 68.6121 128.474C68.3953 129.244 68.2869 130.124 68.2869 131.111C68.2869 133.087 68.7446 134.64 69.6599 135.772C70.5994 136.881 71.9243 137.435 73.6345 137.435C74.1886 137.435 74.7667 137.35 75.3689 137.182C75.9711 137.013 76.5613 136.724 77.1394 136.314C77.4767 136.122 77.7898 136.049 78.0789 136.098C78.3679 136.146 78.5968 136.278 78.7654 136.495C78.9581 136.688 79.0785 136.929 79.1267 137.218C79.199 137.483 79.1869 137.76 79.0906 138.049C78.9942 138.338 78.7895 138.579 78.4763 138.771C77.7055 139.326 76.8624 139.723 75.947 139.964C75.0558 140.205 74.1886 140.325 73.3455 140.325ZM89.8593 140.325C88.0527 140.325 86.4869 139.952 85.162 139.205C83.8613 138.434 82.8495 137.362 82.1269 135.989C81.4042 134.592 81.0429 132.954 81.0429 131.075C81.0429 129.678 81.2476 128.425 81.6572 127.317C82.0667 126.185 82.6448 125.234 83.3915 124.463C84.1624 123.692 85.0898 123.102 86.1738 122.692C87.2818 122.259 88.5103 122.042 89.8593 122.042C90.7024 122.042 91.5816 122.174 92.497 122.439C93.4364 122.68 94.3036 123.09 95.0986 123.668C95.4117 123.861 95.6044 124.102 95.6767 124.391C95.773 124.656 95.7851 124.933 95.7128 125.222C95.6646 125.511 95.5322 125.764 95.3154 125.98C95.1226 126.173 94.8818 126.294 94.5927 126.342C94.3036 126.366 93.9905 126.282 93.6532 126.089C93.0751 125.679 92.485 125.39 91.8827 125.222C91.2805 125.029 90.7024 124.933 90.1484 124.933C89.2812 124.933 88.5103 125.077 87.8359 125.366C87.1855 125.631 86.6314 126.029 86.1738 126.559C85.7161 127.064 85.3668 127.703 85.1259 128.474C84.9091 129.244 84.8007 130.124 84.8007 131.111C84.8007 133.087 85.2584 134.64 86.1738 135.772C87.1132 136.881 88.4381 137.435 90.1484 137.435C90.7024 137.435 91.2805 137.35 91.8827 137.182C92.485 137.013 93.0751 136.724 93.6532 136.314C93.9905 136.122 94.3036 136.049 94.5927 136.098C94.8818 136.146 95.1106 136.278 95.2792 136.495C95.4719 136.688 95.5924 136.929 95.6405 137.218C95.7128 137.483 95.7008 137.76 95.6044 138.049C95.5081 138.338 95.3033 138.579 94.9902 138.771C94.2193 139.326 93.3762 139.723 92.4609 139.964C91.5696 140.205 90.7024 140.325 89.8593 140.325ZM106.265 140.325C104.482 140.325 102.941 139.952 101.64 139.205C100.363 138.458 99.3634 137.398 98.6407 136.025C97.918 134.652 97.5567 133.038 97.5567 131.184C97.5567 129.762 97.7615 128.498 98.171 127.39C98.5805 126.282 99.1586 125.33 99.9054 124.535C100.676 123.716 101.592 123.102 102.651 122.692C103.735 122.259 104.94 122.042 106.265 122.042C108.023 122.042 109.541 122.415 110.817 123.162C112.118 123.909 113.13 124.969 113.853 126.342C114.575 127.691 114.937 129.305 114.937 131.184C114.937 132.581 114.732 133.845 114.322 134.978C113.913 136.11 113.323 137.073 112.552 137.868C111.805 138.663 110.89 139.277 109.806 139.711C108.746 140.12 107.566 140.325 106.265 140.325ZM106.265 137.507C107.252 137.507 108.12 137.266 108.866 136.784C109.613 136.302 110.191 135.592 110.601 134.652C111.034 133.713 111.251 132.557 111.251 131.184C111.251 129.112 110.793 127.546 109.878 126.486C108.963 125.426 107.758 124.896 106.265 124.896C105.253 124.896 104.374 125.137 103.627 125.619C102.88 126.077 102.29 126.775 101.857 127.715C101.447 128.654 101.242 129.811 101.242 131.184C101.242 133.231 101.7 134.797 102.615 135.881C103.531 136.965 104.747 137.507 106.265 137.507Z" fill="#F7FDFB"/>
<path d="M101.611 74.26C100.927 72.3516 99.9717 70.5515 98.775 68.915C95.9762 65.1063 90.505 60.53 80.3388 60.365H80.2525L80.1675 60.3725C73.8138 60.8475 69.4375 54.3813 65.205 48.1225C63.2288 45.2025 61.3625 42.4425 59.2638 40.2825C56.6938 37.6363 54.1263 36.3275 51.415 36.2825C43.9775 36.1575 27.5275 34.3813 27.3625 34.3638L25.135 34.125L25.29 36.36C25.3225 36.8363 26.1875 48.1188 34.0175 54.8763C39.55 59.6513 50.76 65.6675 55.1425 67.0663C59.9075 68.585 70.1975 69.8488 79.9538 69.8375C77.5253 72.0093 75.947 74.9729 75.5 78.2H54.1125C53.6374 74.7451 51.8684 71.5995 49.1631 69.3988C46.4578 67.1981 43.0179 66.1065 39.5386 66.3446C36.0594 66.5827 32.8003 68.1328 30.42 70.6816C28.0398 73.2303 26.7158 76.5876 26.7158 80.075C26.7158 83.5624 28.0398 86.9197 30.42 89.4685C32.8003 92.0172 36.0594 93.5673 39.5386 93.8054C43.0179 94.0435 46.4578 92.9519 49.1631 90.7512C51.8684 88.5505 53.6374 85.4049 54.1125 81.95H75.5C75.7692 83.913 76.4592 85.7947 77.5226 87.4665C78.5861 89.1383 79.9979 90.5607 81.6617 91.6366C83.3256 92.7125 85.202 93.4164 87.163 93.7003C89.1239 93.9842 91.123 93.8414 93.0236 93.2815C94.9242 92.7216 96.6815 91.758 98.1754 90.4564C99.6693 89.1549 100.865 87.5461 101.679 85.7401C102.494 83.934 102.91 81.9734 102.897 79.992C102.884 78.0107 102.444 76.0555 101.606 74.26H101.611ZM40.4788 89.7125C38.5723 89.7128 36.7086 89.1476 35.1233 88.0886C33.538 87.0296 32.3024 85.5242 31.5727 83.7629C30.843 82.0016 30.652 80.0635 31.0239 78.1936C31.3958 76.3238 32.3138 74.6062 33.6619 73.2581C35.01 71.91 36.7275 70.992 38.5974 70.6202C40.4672 70.2483 42.4054 70.4393 44.1667 71.1689C45.928 71.8986 47.4333 73.1343 48.4924 74.7195C49.5514 76.3048 50.1165 78.1685 50.1163 80.075C50.1133 82.6301 49.0969 85.0797 47.2902 86.8865C45.4835 88.6932 43.0339 89.7095 40.4788 89.7125ZM62.1038 50.2225C65.0313 54.55 68.2075 59.2438 72.32 61.9263C70.2575 61.135 67.9588 59.8188 64.2713 57.7075C63.0662 57.0175 61.7525 56.265 60.2713 55.43L55.625 41.9925C57.8313 43.915 59.9275 47.0138 62.0988 50.2225H62.1038ZM55.375 52.7563C54.0175 52.05 52.6675 51.3813 51.3463 50.72C48.1725 49.14 45.1738 47.6475 42.5675 45.9488C39.9613 44.25 35.7663 41.1988 32.625 38.6675C38.045 39.1962 46.0838 39.9088 50.9813 40.0213L55.375 52.7563ZM30.1163 41.4663C33.6863 44.3513 38.2863 47.6338 40.5225 49.0913C43.31 50.9075 46.3975 52.4475 49.6763 54.0775C50.4013 54.4383 51.1333 54.8046 51.8725 55.1763L41.5088 55.735C39.5875 54.4788 37.83 53.2075 36.4675 52.0313C32.985 49.0263 31.1125 44.8088 30.1163 41.4663ZM47.23 59.1825L58.23 58.5888C59.7813 59.4638 61.1488 60.245 62.4 60.9638C66.7225 63.4388 69.3887 64.9638 72.0825 65.8238C65.5187 65.4038 59.49 64.5125 56.2813 63.49C54.3588 62.875 50.8863 61.2225 47.23 59.1825ZM89.14 89.7125C87.5212 89.7139 85.9281 89.3075 84.5078 88.531C83.0874 87.7544 81.8855 86.6326 81.013 85.269C80.1405 83.9055 79.6254 82.3442 79.5153 80.7292C79.4053 79.1141 79.7037 77.4973 80.3832 76.028C81.0627 74.5588 82.1012 73.2843 83.4031 72.3221C84.7049 71.36 86.2282 70.7413 87.8322 70.523C89.4362 70.3048 91.0693 70.494 92.5809 71.0733C94.0925 71.6525 95.4339 72.6032 96.4812 73.8375C97.2376 74.8937 97.8669 76.0353 98.3562 77.2388C98.7992 78.6802 98.8978 80.2054 98.644 81.6919C98.3903 83.1783 97.7913 84.5845 96.8953 85.7974C95.9992 87.0103 94.8311 87.996 93.4849 88.6753C92.1386 89.3546 90.6517 89.7086 89.1438 89.7088L89.14 89.7125Z" fill="#F7FDFB"/>
</svg>
