<?xml version="1.0" standalone="no"?>
<!DOCTYPE svg PUBLIC "-//W3C//DTD SVG 20010904//EN"
 "http://www.w3.org/TR/2001/REC-SVG-20010904/DTD/svg10.dtd">
<svg version="1.0" xmlns="http://www.w3.org/2000/svg"
 width="156.000000pt" height="156.000000pt" viewBox="0 0 156.000000 156.000000"
 preserveAspectRatio="xMidYMid meet">

<g transform="translate(0.000000,156.000000) scale(0.100000,-0.100000)"
fill="#000000" stroke="none">
<path d="M247 1549 c-101 -24 -179 -87 -221 -179 l-26 -55 0 -545 c0 -514 2
-547 19 -587 27 -59 94 -128 154 -158 l51 -25 551 0 551 0 51 25 c61 31 127
99 156 163 22 46 22 55 22 582 l0 535 -28 60 c-36 78 -85 127 -161 162 l-61
28 -510 2 c-280 1 -527 -3 -548 -8z m688 -201 c252 -83 390 -355 306 -601 -38
-110 -101 -210 -209 -334 -69 -79 -239 -233 -257 -233 -18 0 -188 154 -257
233 -192 219 -262 398 -225 573 20 91 56 163 115 227 140 149 334 199 527 135z"/>
<path d="M540 955 c-18 -21 2 -65 29 -65 22 0 51 25 51 44 0 34 -57 49 -80 21z"/>
<path d="M944 956 c-9 -23 -1 -48 19 -60 25 -16 52 4 52 40 0 25 -4 29 -33 32
-22 2 -34 -2 -38 -12z"/>
<path d="M622 823 c5 -31 95 -68 163 -67 84 1 175 48 147 76 -7 7 -24 4 -54
-11 -58 -28 -140 -28 -193 -1 -48 25 -67 25 -63 3z"/>
</g>
</svg>
