<?xml version="1.0" encoding="UTF-8" standalone="no"?>
<!DOCTYPE svg PUBLIC "-//W3C//DTD SVG 1.1//EN" "http://www.w3.org/Graphics/SVG/1.1/DTD/svg11.dtd">
<!-- Created with Vectornator (http://vectornator.io/) -->
<svg height="100%" stroke-miterlimit="10" style="fill-rule:nonzero;clip-rule:evenodd;stroke-linecap:round;stroke-linejoin:round;" version="1.1" viewBox="0 0 40 40" width="100%" xml:space="preserve" xmlns="http://www.w3.org/2000/svg" xmlns:vectornator="http://vectornator.io" xmlns:xlink="http://www.w3.org/1999/xlink">
<defs/>
<g id="Untitled" vectornator:layerName="Untitled">
<path d="M5.65625 7.4375C4.70526 7.4375 3.79745 7.82755 3.125 8.5C2.45255 9.17246 2.0625 10.0803 2.0625 11.0312L2.0625 28.9688C2.0625 29.9197 2.45255 30.8276 3.125 31.5C3.79745 32.1724 4.70526 32.5625 5.65625 32.5625L34.3438 32.5625C35.2948 32.5625 36.2025 32.1724 36.875 31.5C37.5474 30.8276 37.9375 29.9197 37.9375 28.9688L37.9375 11.0312C37.9375 10.0803 37.5474 9.17246 36.875 8.5C36.2025 7.82754 35.2948 7.4375 34.3438 7.4375L5.65625 7.4375ZM7.875 9.1875C8.69705 9.12906 9.67709 9.18113 10.8438 9.34375C10.8437 11.0689 10.1252 12.7177 8.875 13.9375C7.62476 15.1574 5.92436 15.8438 4.15625 15.8438L4.15625 10.9688C4.36459 10.359 5.40886 9.36283 7.875 9.1875ZM20 15C22.7614 15 25 17.2386 25 20C25 22.7614 22.7614 25 20 25C17.2386 25 15 22.7614 15 20C15 17.2386 17.2386 15 20 15ZM35.8438 24.1562L35.8438 29.0312C35.5661 29.8444 33.8228 31.3379 29.1562 30.6875C29.1562 28.9624 29.8747 27.2823 31.125 26.0625C32.3752 24.8426 34.0756 24.1562 35.8438 24.1562Z" fill="#f7fdfb" fill-rule="evenodd" opacity="1" stroke="none"/>
</g>
</svg>
