<svg width="16" height="17" viewBox="0 0 16 17" fill="none" xmlns="http://www.w3.org/2000/svg">
<g clip-path="url(#clip0_622_16561)">
<path d="M8.41598 0.7231C8.37032 0.654622 8.30846 0.598474 8.23589 0.55964C8.16332 0.520807 8.08229 0.500488 7.99998 0.500488C7.91768 0.500488 7.83664 0.520807 7.76407 0.55964C7.69151 0.598474 7.62965 0.654622 7.58398 0.7231L4.58398 5.2231C4.53388 5.2984 4.50513 5.38587 4.50081 5.47621C4.49649 5.56655 4.51675 5.65637 4.55944 5.7361C4.60213 5.81584 4.66565 5.8825 4.74323 5.92899C4.82081 5.97548 4.90954 6.00005 4.99998 6.0001H5.09798L3.07598 9.2351C3.02868 9.31079 3.0025 9.39776 3.00015 9.48698C2.99781 9.5762 3.01939 9.66442 3.06266 9.74249C3.10593 9.82055 3.1693 9.88561 3.2462 9.93091C3.32311 9.97621 3.41073 10.0001 3.49998 10.0001H3.69098L2.05298 13.2761C2.01479 13.3523 1.99671 13.4371 2.00049 13.5222C2.00427 13.6074 2.02976 13.6902 2.07455 13.7628C2.11935 13.8353 2.18195 13.8952 2.25641 13.9368C2.33087 13.9783 2.41472 14.0001 2.49998 14.0001H6.99998V16.5001H8.99998V14.0001H13.5C13.5852 14.0001 13.6691 13.9783 13.7436 13.9368C13.818 13.8952 13.8806 13.8353 13.9254 13.7628C13.9702 13.6902 13.9957 13.6074 13.9995 13.5222C14.0033 13.4371 13.9852 13.3523 13.947 13.2761L12.31 10.0001H12.501C12.5902 10.0001 12.6779 9.97621 12.7548 9.93091C12.8317 9.88561 12.895 9.82055 12.9383 9.74249C12.9816 9.66442 13.0032 9.5762 13.0008 9.48698C12.9985 9.39776 12.9723 9.31079 12.925 9.2351L10.902 6.0001H11C11.0904 6.00005 11.1792 5.97548 11.2567 5.92899C11.3343 5.8825 11.3978 5.81584 11.4405 5.7361C11.4832 5.65637 11.5035 5.56655 11.4992 5.47621C11.4948 5.38587 11.4661 5.2984 11.416 5.2231L8.41598 0.7231ZM6.43698 5.2581C6.39379 5.18001 6.33049 5.11491 6.25365 5.06954C6.17681 5.02417 6.08922 5.0002 5.99998 5.0001H5.93398L7.99998 1.9011L10.066 5.0001H9.99998C9.91073 5.0001 9.82311 5.02399 9.7462 5.06929C9.6693 5.11459 9.60593 5.17965 9.56266 5.25772C9.51939 5.33578 9.49781 5.424 9.50015 5.51323C9.5025 5.60245 9.52868 5.68941 9.57598 5.7651L11.598 9.0001H11.5C11.4147 9.0001 11.3309 9.02191 11.2564 9.06345C11.182 9.10499 11.1193 9.16488 11.0746 9.23743C11.0298 9.30998 11.0043 9.39278 11.0005 9.47796C10.9967 9.56314 11.0148 9.64787 11.053 9.7241L12.69 13.0001H3.30898L4.94698 9.7241C4.98518 9.64787 5.00325 9.56314 4.99948 9.47796C4.9957 9.39278 4.97021 9.30998 4.92541 9.23743C4.88062 9.16488 4.81802 9.10499 4.74356 9.06345C4.6691 9.02191 4.58525 9.0001 4.49998 9.0001H4.40198L6.42398 5.7651C6.47117 5.68943 6.49725 5.60252 6.49954 5.51337C6.50182 5.42423 6.48023 5.33609 6.43698 5.2581Z" fill="#FAFAFA"/>
</g>
<defs>
<clipPath id="clip0_622_16561">
<rect width="16" height="16" fill="white" transform="translate(0 0.5)"/>
</clipPath>
</defs>
</svg>
